STARTFONT 2.1
COMMENT
COMMENT Shinonome 14dot font for JISX 0208, 1983/1990, Mincho Style
COMMENT
COMMENT The original is k14-screen.bdf (modified k14 to add screening
COMMENT processing) by
COMMENT   Yasuyuki Furukawa <Furukawa.Yasuyuki@fujixerox.co.jp>, 2000.
COMMENT   (Public Domain)
COMMENT
COMMENT > Donated by H. Kagotani <kagotani@cs.titech.ac.jp>; public domain
COMMENT > font from Japan
COMMENT > Modified by TAKADA Toshihiro <takada@seraph.ntt.jp>
COMMENT > 	changed to JIS X 0208-1990
COMMENT
COMMENT Modified and Maintained by /efont/.
COMMENT
COMMENT (c) /efont/ -- Efont Open Laboratory 2001
COMMENT http://openlab.ring.gr.jp/efont/
COMMENT
FONT -Shinonome-Mincho-Medium-R-Normal--14-130-75-75-C-140-JISX0208.1990-0
SIZE 14 75 75
FONTBOUNDINGBOX 14 14 0 -2
STARTPROPERTIES 20
FONTNAME_REGISTRY ""
FOUNDRY "Shinonome"
FAMILY_NAME "Mincho"
WEIGHT_NAME "Medium"
SLANT "R"
SETWIDTH_NAME "Normal"
ADD_STYLE_NAME ""
PIXEL_SIZE 14
POINT_SIZE 130
RESOLUTION_X 75
RESOLUTION_Y 75
SPACING "C"
AVERAGE_WIDTH 140
CHARSET_REGISTRY "JISX0208.1990"
CHARSET_ENCODING "0"
DEFAULT_CHAR 8481
FONT_DESCENT 2
FONT_ASCENT 12
COPYRIGHT "Public domain font.  Share and enjoy."
_XMBDFED_INFO "Edited with xmbdfed 4.4."
ENDPROPERTIES
CHARS 6879
STARTCHAR 2121
ENCODING 8481
SWIDTH 960 0
DWIDTH 14 0
BBX 14 14 0 -2
BITMAP
0000
0000
0000
0000
0000
0000
0000
0000
0000
0000
0000
0000
0000
0000
ENDCHAR
STARTCHAR 2122
ENCODING 8482
SWIDTH 960 0
DWIDTH 14 0
BBX 14 14 0 -2
BITMAP
0000
0000
0000
0000
0000
0000
0000
0000
0000
0000
4000
3000
1800
0800
ENDCHAR
STARTCHAR 2123
ENCODING 8483
SWIDTH 960 0
DWIDTH 14 0
BBX 14 14 0 -2
BITMAP
0000
0000
0000
0000
0000
0000
0000
0000
0000
0000
3000
4800
4800
3000
ENDCHAR
STARTCHAR 2124
ENCODING 8484
SWIDTH 960 0
DWIDTH 14 0
BBX 14 14 0 -2
BITMAP
0000
0000
0000
0000
0000
0000
0000
0000
0000
0000
6000
6000
2000
4000
ENDCHAR
STARTCHAR 2125
ENCODING 8485
SWIDTH 960 0
DWIDTH 14 0
BBX 14 14 0 -2
BITMAP
0000
0000
0000
0000
0000
0000
0000
0000
0000
0000
0000
6000
6000
0000
ENDCHAR
STARTCHAR 2126
ENCODING 8486
SWIDTH 960 0
DWIDTH 14 0
BBX 14 14 0 -2
BITMAP
0000
0000
0000
0000
0000
0000
0100
0380
0100
0000
0000
0000
0000
0000
ENDCHAR
STARTCHAR 2127
ENCODING 8487
SWIDTH 960 0
DWIDTH 14 0
BBX 14 14 0 -2
BITMAP
0000
0000
0000
0300
0300
0000
0000
0000
0300
0300
0000
0000
0000
0000
ENDCHAR
STARTCHAR 2128
ENCODING 8488
SWIDTH 960 0
DWIDTH 14 0
BBX 14 14 0 -2
BITMAP
0000
0000
0000
0300
0300
0000
0000
0000
0300
0300
0100
0200
0000
0000
ENDCHAR
STARTCHAR 2129
ENCODING 8489
SWIDTH 960 0
DWIDTH 14 0
BBX 14 14 0 -2
BITMAP
0000
0780
0840
1020
1020
1020
0040
0080
0100
0100
0100
0000
0300
0300
ENDCHAR
STARTCHAR 212a
ENCODING 8490
SWIDTH 960 0
DWIDTH 14 0
BBX 14 14 0 -2
BITMAP
0100
0180
0180
0180
0180
0100
0100
0100
0100
0100
0000
0100
0380
0100
ENDCHAR
STARTCHAR 212b
ENCODING 8491
SWIDTH 960 0
DWIDTH 14 0
BBX 14 14 0 -2
BITMAP
1000
4800
2000
0000
0000
0000
0000
0000
0000
0000
0000
0000
0000
0000
ENDCHAR
STARTCHAR 212c
ENCODING 8492
SWIDTH 960 0
DWIDTH 14 0
BBX 14 14 0 -2
BITMAP
3000
4800
4800
3000
0000
0000
0000
0000
0000
0000
0000
0000
0000
0000
ENDCHAR
STARTCHAR 212d
ENCODING 8493
SWIDTH 960 0
DWIDTH 14 0
BBX 14 14 0 -2
BITMAP
0180
0300
0400
0000
0000
0000
0000
0000
0000
0000
0000
0000
0000
0000
ENDCHAR
STARTCHAR 212e
ENCODING 8494
SWIDTH 960 0
DWIDTH 14 0
BBX 14 14 0 -2
BITMAP
0600
0300
0080
0000
0000
0000
0000
0000
0000
0000
0000
0000
0000
0000
ENDCHAR
STARTCHAR 212f
ENCODING 8495
SWIDTH 960 0
DWIDTH 14 0
BBX 14 14 0 -2
BITMAP
0c60
0c60
0000
0000
0000
0000
0000
0000
0000
0000
0000
0000
0000
0000
ENDCHAR
STARTCHAR 2130
ENCODING 8496
SWIDTH 960 0
DWIDTH 14 0
BBX 14 14 0 -2
BITMAP
0100
0280
0440
0820
0000
0000
0000
0000
0000
0000
0000
0000
0000
0000
ENDCHAR
STARTCHAR 2131
ENCODING 8497
SWIDTH 960 0
DWIDTH 14 0
BBX 14 14 0 -2
BITMAP
fffc
0000
0000
0000
0000
0000
0000
0000
0000
0000
0000
0000
0000
0000
ENDCHAR
STARTCHAR 2132
ENCODING 8498
SWIDTH 960 0
DWIDTH 14 0
BBX 14 14 0 -2
BITMAP
0000
0000
0000
0000
0000
0000
0000
0000
0000
0000
0000
0000
0000
fffc
ENDCHAR
STARTCHAR 2133
ENCODING 8499
SWIDTH 960 0
DWIDTH 14 0
BBX 14 14 0 -2
BITMAP
0000
0000
0000
0000
0c00
0300
0080
0040
0020
0000
0000
0000
0000
0000
ENDCHAR
STARTCHAR 2134
ENCODING 8500
SWIDTH 960 0
DWIDTH 14 0
BBX 14 14 0 -2
BITMAP
0000
0000
0020
0090
0c40
0300
0080
0040
0020
0000
0000
0000
0000
0000
ENDCHAR
STARTCHAR 2135
ENCODING 8501
SWIDTH 960 0
DWIDTH 14 0
BBX 14 14 0 -2
BITMAP
0000
0000
0000
0000
0c00
0300
0080
00c0
0100
0000
0000
0000
0000
0000
ENDCHAR
STARTCHAR 2136
ENCODING 8502
SWIDTH 960 0
DWIDTH 14 0
BBX 14 14 0 -2
BITMAP
0000
0000
0020
0090
0c40
0300
0080
00c0
0100
0000
0000
0000
0000
0000
ENDCHAR
STARTCHAR 2137
ENCODING 8503
SWIDTH 960 0
DWIDTH 14 0
BBX 14 14 0 -2
BITMAP
0000
0000
0000
0000
0440
0440
0440
0880
0880
1100
0000
0000
0000
0000
ENDCHAR
STARTCHAR 2138
ENCODING 8504
SWIDTH 960 0
DWIDTH 14 0
BBX 14 14 0 -2
BITMAP
0100
0100
0280
0440
0820
1010
600c
0fe0
0100
0100
0100
0100
7ffc
0000
ENDCHAR
STARTCHAR 2139
ENCODING 8505
SWIDTH 960 0
DWIDTH 14 0
BBX 14 14 0 -2
BITMAP
0000
0000
0000
0000
0200
0200
03f0
0420
0420
0840
1280
0180
0040
0020
ENDCHAR
STARTCHAR 213a
ENCODING 8506
SWIDTH 960 0
DWIDTH 14 0
BBX 14 14 0 -2
BITMAP
0000
0000
0010
0010
0020
0640
0980
0900
1280
1400
1800
1000
2000
0000
ENDCHAR
STARTCHAR 213b
ENCODING 8507
SWIDTH 960 0
DWIDTH 14 0
BBX 14 14 0 -2
BITMAP
0000
07c0
1830
2008
2008
4004
4004
4004
4004
4004
2008
2008
1830
07c0
ENDCHAR
STARTCHAR 213c
ENCODING 8508
SWIDTH 960 0
DWIDTH 14 0
BBX 14 14 0 -2
BITMAP
0000
0000
0000
0000
0000
0000
40f8
3f00
0000
0000
0000
0000
0000
0000
ENDCHAR
STARTCHAR 213d
ENCODING 8509
SWIDTH 960 0
DWIDTH 14 0
BBX 14 14 0 -2
BITMAP
0000
0000
0000
0000
0000
0000
fffc
0000
0000
0000
0000
0000
0000
0000
ENDCHAR
STARTCHAR 213e
ENCODING 8510
SWIDTH 960 0
DWIDTH 14 0
BBX 14 14 0 -2
BITMAP
0000
0000
0000
0000
0000
0000
07c0
0000
0000
0000
0000
0000
0000
0000
ENDCHAR
STARTCHAR 213f
ENCODING 8511
SWIDTH 960 0
DWIDTH 14 0
BBX 14 14 0 -2
BITMAP
0004
0008
0010
0020
0040
0080
0100
0200
0400
0800
1000
2000
4000
8000
ENDCHAR
STARTCHAR 2140
ENCODING 8512
SWIDTH 960 0
DWIDTH 14 0
BBX 14 14 0 -2
BITMAP
8000
4000
2000
1000
0800
0400
0200
0100
0080
0040
0020
0010
0008
0004
ENDCHAR
STARTCHAR 2141
ENCODING 8513
SWIDTH 960 0
DWIDTH 14 0
BBX 14 14 0 -2
BITMAP
0000
0000
0000
0000
0000
1c00
2208
4110
00e0
0000
0000
0000
0000
0000
ENDCHAR
STARTCHAR 2142
ENCODING 8514
SWIDTH 960 0
DWIDTH 14 0
BBX 14 14 0 -2
BITMAP
0480
0480
0480
0480
0480
0480
0480
0480
0480
0480
0480
0480
0480
0480
ENDCHAR
STARTCHAR 2143
ENCODING 8515
SWIDTH 960 0
DWIDTH 14 0
BBX 14 14 0 -2
BITMAP
0100
0100
0100
0100
0100
0100
0100
0100
0100
0100
0100
0100
0100
0100
ENDCHAR
STARTCHAR 2144
ENCODING 8516
SWIDTH 960 0
DWIDTH 14 0
BBX 14 14 0 -2
BITMAP
0000
0000
0000
0000
0000
0000
3330
3330
0000
0000
0000
0000
0000
0000
ENDCHAR
STARTCHAR 2145
ENCODING 8517
SWIDTH 960 0
DWIDTH 14 0
BBX 14 14 0 -2
BITMAP
0000
0000
0000
0000
0000
0000
1860
1860
0000
0000
0000
0000
0000
0000
ENDCHAR
STARTCHAR 2146
ENCODING 8518
SWIDTH 960 0
DWIDTH 14 0
BBX 14 14 0 -2
BITMAP
0018
0020
0030
0038
0010
0000
0000
0000
0000
0000
0000
0000
0000
0000
ENDCHAR
STARTCHAR 2147
ENCODING 8519
SWIDTH 960 0
DWIDTH 14 0
BBX 14 14 0 -2
BITMAP
2000
7000
3000
1000
6000
0000
0000
0000
0000
0000
0000
0000
0000
0000
ENDCHAR
STARTCHAR 2148
ENCODING 8520
SWIDTH 960 0
DWIDTH 14 0
BBX 14 14 0 -2
BITMAP
0198
0220
0330
03b8
0110
0000
0000
0000
0000
0000
0000
0000
0000
0000
ENDCHAR
STARTCHAR 2149
ENCODING 8521
SWIDTH 960 0
DWIDTH 14 0
BBX 14 14 0 -2
BITMAP
2200
7700
3300
1100
6600
0000
0000
0000
0000
0000
0000
0000
0000
0000
ENDCHAR
STARTCHAR 214a
ENCODING 8522
SWIDTH 960 0
DWIDTH 14 0
BBX 14 14 0 -2
BITMAP
0008
0010
0020
0040
0040
0080
0080
0080
0080
0040
0040
0020
0010
0008
ENDCHAR
STARTCHAR 214b
ENCODING 8523
SWIDTH 960 0
DWIDTH 14 0
BBX 14 14 0 -2
BITMAP
4000
2000
1000
0800
0800
0400
0400
0400
0400
0800
0800
1000
2000
4000
ENDCHAR
STARTCHAR 214c
ENCODING 8524
SWIDTH 960 0
DWIDTH 14 0
BBX 14 14 0 -2
BITMAP
0008
0010
0020
0040
0040
0040
0040
0040
0040
0040
0040
0020
0010
0008
ENDCHAR
STARTCHAR 214d
ENCODING 8525
SWIDTH 960 0
DWIDTH 14 0
BBX 14 14 0 -2
BITMAP
4000
2000
1000
0800
0800
0800
0800
0800
0800
0800
0800
1000
2000
4000
ENDCHAR
STARTCHAR 214e
ENCODING 8526
SWIDTH 960 0
DWIDTH 14 0
BBX 14 14 0 -2
BITMAP
00f8
00c0
00c0
00c0
00c0
00c0
00c0
00c0
00c0
00c0
00c0
00c0
00c0
00f8
ENDCHAR
STARTCHAR 214f
ENCODING 8527
SWIDTH 960 0
DWIDTH 14 0
BBX 14 14 0 -2
BITMAP
7c00
0c00
0c00
0c00
0c00
0c00
0c00
0c00
0c00
0c00
0c00
0c00
0c00
7c00
ENDCHAR
STARTCHAR 2150
ENCODING 8528
SWIDTH 960 0
DWIDTH 14 0
BBX 14 14 0 -2
BITMAP
0018
0020
0040
0040
0040
0040
0180
0040
0040
0040
0040
0040
0020
0018
ENDCHAR
STARTCHAR 2151
ENCODING 8529
SWIDTH 960 0
DWIDTH 14 0
BBX 14 14 0 -2
BITMAP
6000
1000
0800
0800
0800
0800
0600
0800
0800
0800
0800
0800
1000
6000
ENDCHAR
STARTCHAR 2152
ENCODING 8530
SWIDTH 960 0
DWIDTH 14 0
BBX 14 14 0 -2
BITMAP
0008
0010
0020
0040
0080
0100
0200
0200
0100
0080
0040
0020
0010
0008
ENDCHAR
STARTCHAR 2153
ENCODING 8531
SWIDTH 960 0
DWIDTH 14 0
BBX 14 14 0 -2
BITMAP
4000
2000
1000
0800
0400
0200
0100
0100
0200
0400
0800
1000
2000
4000
ENDCHAR
STARTCHAR 2154
ENCODING 8532
SWIDTH 960 0
DWIDTH 14 0
BBX 14 14 0 -2
BITMAP
0048
0048
0090
0090
0120
0120
0240
0240
0120
0120
0090
0090
0048
0048
ENDCHAR
STARTCHAR 2155
ENCODING 8533
SWIDTH 960 0
DWIDTH 14 0
BBX 14 14 0 -2
BITMAP
4800
4800
2400
2400
1200
1200
0900
0900
1200
1200
2400
2400
4800
4800
ENDCHAR
STARTCHAR 2156
ENCODING 8534
SWIDTH 960 0
DWIDTH 14 0
BBX 14 14 0 -2
BITMAP
01f8
0100
0100
0100
0100
0100
0100
0100
0100
0100
0100
0100
0100
0100
ENDCHAR
STARTCHAR 2157
ENCODING 8535
SWIDTH 960 0
DWIDTH 14 0
BBX 14 14 0 -2
BITMAP
0200
0200
0200
0200
0200
0200
0200
0200
0200
0200
0200
0200
0200
7e00
ENDCHAR
STARTCHAR 2158
ENCODING 8536
SWIDTH 960 0
DWIDTH 14 0
BBX 14 14 0 -2
BITMAP
03f8
0208
02f8
0280
0280
0280
0280
0280
0280
0280
0280
0280
0280
0380
ENDCHAR
STARTCHAR 2159
ENCODING 8537
SWIDTH 960 0
DWIDTH 14 0
BBX 14 14 0 -2
BITMAP
0700
0500
0500
0500
0500
0500
0500
0500
0500
0500
0500
7d00
4100
7f00
ENDCHAR
STARTCHAR 215a
ENCODING 8538
SWIDTH 960 0
DWIDTH 14 0
BBX 14 14 0 -2
BITMAP
00f8
00f0
00e0
00e0
00c0
00c0
00c0
00c0
00c0
00c0
00e0
00e0
00f0
00f8
ENDCHAR
STARTCHAR 215b
ENCODING 8539
SWIDTH 960 0
DWIDTH 14 0
BBX 14 14 0 -2
BITMAP
7c00
3c00
1c00
1c00
0c00
0c00
0c00
0c00
0c00
0c00
1c00
1c00
3c00
7c00
ENDCHAR
STARTCHAR 215c
ENCODING 8540
SWIDTH 960 0
DWIDTH 14 0
BBX 14 14 0 -2
BITMAP
0000
0100
0100
0100
0100
0100
3ff8
0100
0100
0100
0100
0100
0100
0000
ENDCHAR
STARTCHAR 215d
ENCODING 8541
SWIDTH 960 0
DWIDTH 14 0
BBX 14 14 0 -2
BITMAP
0000
0000
0000
0000
0000
0000
3ff8
0000
0000
0000
0000
0000
0000
0000
ENDCHAR
STARTCHAR 215e
ENCODING 8542
SWIDTH 960 0
DWIDTH 14 0
BBX 14 14 0 -2
BITMAP
0000
0100
0100
0100
0100
3ff8
0100
0100
0100
0100
0000
3ff8
0000
0000
ENDCHAR
STARTCHAR 215f
ENCODING 8543
SWIDTH 960 0
DWIDTH 14 0
BBX 14 14 0 -2
BITMAP
0000
2008
1010
0820
0440
0280
0100
0280
0440
0820
1010
2008
0000
0000
ENDCHAR
STARTCHAR 2160
ENCODING 8544
SWIDTH 960 0
DWIDTH 14 0
BBX 14 14 0 -2
BITMAP
0000
0100
0380
0100
0000
0000
3ff8
0000
0000
0100
0380
0100
0000
0000
ENDCHAR
STARTCHAR 2161
ENCODING 8545
SWIDTH 960 0
DWIDTH 14 0
BBX 14 14 0 -2
BITMAP
0000
0000
0000
0000
3ff8
0000
0000
0000
3ff8
0000
0000
0000
0000
0000
ENDCHAR
STARTCHAR 2162
ENCODING 8546
SWIDTH 960 0
DWIDTH 14 0
BBX 14 14 0 -2
BITMAP
0000
0080
0080
0080
3ff8
0100
0100
0100
3ff8
0200
0200
0200
0000
0000
ENDCHAR
STARTCHAR 2163
ENCODING 8547
SWIDTH 960 0
DWIDTH 14 0
BBX 14 14 0 -2
BITMAP
0010
0060
0080
0300
0400
1800
2000
1800
0400
0300
0080
0060
0010
0000
ENDCHAR
STARTCHAR 2164
ENCODING 8548
SWIDTH 960 0
DWIDTH 14 0
BBX 14 14 0 -2
BITMAP
2000
1800
0400
0300
0080
0060
0010
0060
0080
0300
0400
1800
2000
0000
ENDCHAR
STARTCHAR 2165
ENCODING 8549
SWIDTH 960 0
DWIDTH 14 0
BBX 14 14 0 -2
BITMAP
0030
00c0
0300
0c00
3000
0c00
0300
00c0
0030
0000
3ff8
0000
3ff8
0000
ENDCHAR
STARTCHAR 2166
ENCODING 8550
SWIDTH 960 0
DWIDTH 14 0
BBX 14 14 0 -2
BITMAP
3000
0c00
0300
00c0
0030
00c0
0300
0c00
3000
0000
3ff8
0000
3ff8
0000
ENDCHAR
STARTCHAR 2167
ENCODING 8551
SWIDTH 960 0
DWIDTH 14 0
BBX 14 14 0 -2
BITMAP
0000
0000
0000
0000
1c70
36d8
2388
2388
36d8
1c70
0000
0000
0000
0000
ENDCHAR
STARTCHAR 2168
ENCODING 8552
SWIDTH 960 0
DWIDTH 14 0
BBX 14 14 0 -2
BITMAP
0000
0000
0100
0380
0100
0000
0000
0000
0000
1010
3838
1010
0000
0000
ENDCHAR
STARTCHAR 2169
ENCODING 8553
SWIDTH 960 0
DWIDTH 14 0
BBX 14 14 0 -2
BITMAP
0000
03f8
0018
0028
0048
0088
1d08
2208
4100
4100
4100
2200
1c00
0000
ENDCHAR
STARTCHAR 216a
ENCODING 8554
SWIDTH 960 0
DWIDTH 14 0
BBX 14 14 0 -2
BITMAP
0000
0380
0440
0820
0820
0820
0440
0380
0100
0100
1ff0
0100
0100
0100
ENDCHAR
STARTCHAR 216b
ENCODING 8555
SWIDTH 960 0
DWIDTH 14 0
BBX 14 14 0 -2
BITMAP
0000
1800
2400
2400
1800
0000
0000
0000
0000
0000
0000
0000
0000
0000
ENDCHAR
STARTCHAR 216c
ENCODING 8556
SWIDTH 960 0
DWIDTH 14 0
BBX 14 14 0 -2
BITMAP
0000
1800
1800
3000
2000
4000
0000
0000
0000
0000
0000
0000
0000
0000
ENDCHAR
STARTCHAR 216d
ENCODING 8557
SWIDTH 960 0
DWIDTH 14 0
BBX 14 14 0 -2
BITMAP
0000
1b00
1b00
3600
2400
4800
0000
0000
0000
0000
0000
0000
0000
0000
ENDCHAR
STARTCHAR 216e
ENCODING 8558
SWIDTH 960 0
DWIDTH 14 0
BBX 14 14 0 -2
BITMAP
0000
3000
48e8
4918
3308
0608
0600
0600
0600
0600
0208
0110
00e0
0000
ENDCHAR
STARTCHAR 216f
ENCODING 8559
SWIDTH 960 0
DWIDTH 14 0
BBX 14 14 0 -2
BITMAP
0000
7838
3010
1820
0c40
3ff0
0680
0300
3ff0
0300
0300
0300
0fc0
0000
ENDCHAR
STARTCHAR 2170
ENCODING 8560
SWIDTH 960 0
DWIDTH 14 0
BBX 14 14 0 -2
BITMAP
0000
0100
07c0
0920
1110
1110
0d00
0380
0160
1110
1110
0920
07c0
0100
ENDCHAR
STARTCHAR 2171
ENCODING 8561
SWIDTH 960 0
DWIDTH 14 0
BBX 14 14 0 -2
BITMAP
0000
0080
0080
0380
0540
0920
1120
1100
1200
0a20
0640
0780
0400
0400
ENDCHAR
STARTCHAR 2172
ENCODING 8562
SWIDTH 960 0
DWIDTH 14 0
BBX 14 14 0 -2
BITMAP
0000
00c0
0120
0210
0200
0400
0400
3fe0
0400
3400
4c08
4b10
30e0
0000
ENDCHAR
STARTCHAR 2173
ENCODING 8563
SWIDTH 960 0
DWIDTH 14 0
BBX 14 14 0 -2
BITMAP
0000
1808
2410
4220
4240
2480
1900
0260
0490
0908
1108
2090
4060
0000
ENDCHAR
STARTCHAR 2174
ENCODING 8564
SWIDTH 960 0
DWIDTH 14 0
BBX 14 14 0 -2
BITMAP
0000
0220
0220
0220
1ff8
0440
0440
0440
0440
3ff0
0880
0880
0880
0880
ENDCHAR
STARTCHAR 2175
ENCODING 8565
SWIDTH 960 0
DWIDTH 14 0
BBX 14 14 0 -2
BITMAP
0000
0e00
1100
1100
1100
0a00
0438
0a10
1120
20c0
20c0
1120
0e18
0000
ENDCHAR
STARTCHAR 2176
ENCODING 8566
SWIDTH 960 0
DWIDTH 14 0
BBX 14 14 0 -2
BITMAP
0000
0000
0100
0380
1930
1d70
0380
0380
1d70
1930
0380
0100
0000
0000
ENDCHAR
STARTCHAR 2177
ENCODING 8567
SWIDTH 960 0
DWIDTH 14 0
BBX 14 14 0 -2
BITMAP
0000
0380
0c60
1010
23c8
24c8
44c8
4888
4990
2760
2008
1830
07c0
0000
ENDCHAR
STARTCHAR 2178
ENCODING 8568
SWIDTH 960 0
DWIDTH 14 0
BBX 14 14 0 -2
BITMAP
0380
0440
0440
0600
0300
0380
04c0
0640
0380
0180
00c0
0440
0440
0380
ENDCHAR
STARTCHAR 2179
ENCODING 8569
SWIDTH 960 0
DWIDTH 14 0
BBX 14 14 0 -2
BITMAP
0000
0100
0100
0280
0280
7c7c
3018
0c60
0440
0920
0aa0
1c70
1010
0000
ENDCHAR
STARTCHAR 217a
ENCODING 8570
SWIDTH 960 0
DWIDTH 14 0
BBX 14 14 0 -2
BITMAP
0000
0100
0100
0380
0380
7ffc
3ff8
0fe0
07c0
0fe0
0ee0
1c70
1010
0000
ENDCHAR
STARTCHAR 217b
ENCODING 8571
SWIDTH 960 0
DWIDTH 14 0
BBX 14 14 0 -2
BITMAP
0000
0000
0380
0c60
1010
1010
2008
2008
2008
1010
1010
0c60
0380
0000
ENDCHAR
STARTCHAR 217c
ENCODING 8572
SWIDTH 960 0
DWIDTH 14 0
BBX 14 14 0 -2
BITMAP
0000
0000
0380
0fe0
1ff0
1ff0
3ff8
3ff8
3ff8
1ff0
1ff0
0fe0
0380
0000
ENDCHAR
STARTCHAR 217d
ENCODING 8573
SWIDTH 960 0
DWIDTH 14 0
BBX 14 14 0 -2
BITMAP
0000
0000
0380
0c60
1390
1450
2828
2828
2828
1450
1390
0c60
0380
0000
ENDCHAR
STARTCHAR 217e
ENCODING 8574
SWIDTH 960 0
DWIDTH 14 0
BBX 14 14 0 -2
BITMAP
0000
0100
0280
0440
0820
1010
2008
4004
2008
1010
0820
0440
0280
0100
ENDCHAR
STARTCHAR 2221
ENCODING 8737
SWIDTH 960 0
DWIDTH 14 0
BBX 14 14 0 -2
BITMAP
0000
0100
0380
07c0
0fe0
1ff0
3ff8
7ffc
3ff8
1ff0
0fe0
07c0
0380
0100
ENDCHAR
STARTCHAR 2222
ENCODING 8738
SWIDTH 960 0
DWIDTH 14 0
BBX 14 14 0 -2
BITMAP
0000
7ff8
4008
4008
4008
4008
4008
4008
4008
4008
4008
4008
7ff8
0000
ENDCHAR
STARTCHAR 2223
ENCODING 8739
SWIDTH 960 0
DWIDTH 14 0
BBX 14 14 0 -2
BITMAP
0000
7ff8
7ff8
7ff8
7ff8
7ff8
7ff8
7ff8
7ff8
7ff8
7ff8
7ff8
7ff8
0000
ENDCHAR
STARTCHAR 2224
ENCODING 8740
SWIDTH 960 0
DWIDTH 14 0
BBX 14 14 0 -2
BITMAP
0000
0100
0100
0280
0280
0440
0440
0820
0820
1010
1010
3ff8
0000
0000
ENDCHAR
STARTCHAR 2225
ENCODING 8741
SWIDTH 960 0
DWIDTH 14 0
BBX 14 14 0 -2
BITMAP
0000
0100
0100
0380
0380
07c0
07c0
0fe0
0fe0
1ff0
1ff0
3ff8
0000
0000
ENDCHAR
STARTCHAR 2226
ENCODING 8742
SWIDTH 960 0
DWIDTH 14 0
BBX 14 14 0 -2
BITMAP
0000
3ff8
1010
1010
0820
0820
0440
0440
0280
0280
0100
0100
0000
0000
ENDCHAR
STARTCHAR 2227
ENCODING 8743
SWIDTH 960 0
DWIDTH 14 0
BBX 14 14 0 -2
BITMAP
0000
3ff8
1ff0
1ff0
0fe0
0fe0
07c0
07c0
0380
0380
0100
0100
0000
0000
ENDCHAR
STARTCHAR 2228
ENCODING 8744
SWIDTH 960 0
DWIDTH 14 0
BBX 14 14 0 -2
BITMAP
0000
0000
2108
1390
0920
0440
1290
3938
1290
0440
0920
1390
2108
0000
ENDCHAR
STARTCHAR 2229
ENCODING 8745
SWIDTH 960 0
DWIDTH 14 0
BBX 14 14 0 -2
BITMAP
0000
3ff0
3ff0
0000
0000
7ff8
7ff8
0300
0300
0300
0300
0300
0300
0000
ENDCHAR
STARTCHAR 222a
ENCODING 8746
SWIDTH 960 0
DWIDTH 14 0
BBX 14 14 0 -2
BITMAP
0000
0000
0000
0100
0080
0060
7ff8
0060
0080
0100
0000
0000
0000
0000
ENDCHAR
STARTCHAR 222b
ENCODING 8747
SWIDTH 960 0
DWIDTH 14 0
BBX 14 14 0 -2
BITMAP
0000
0000
0000
0200
0400
1800
7ff8
1800
0400
0200
0000
0000
0000
0000
ENDCHAR
STARTCHAR 222c
ENCODING 8748
SWIDTH 960 0
DWIDTH 14 0
BBX 14 14 0 -2
BITMAP
0000
0100
0100
0380
0380
0540
0920
0100
0100
0100
0100
0100
0100
0000
ENDCHAR
STARTCHAR 222d
ENCODING 8749
SWIDTH 960 0
DWIDTH 14 0
BBX 14 14 0 -2
BITMAP
0000
0100
0100
0100
0100
0100
0100
0920
0540
0380
0380
0100
0100
0000
ENDCHAR
STARTCHAR 222e
ENCODING 8750
SWIDTH 960 0
DWIDTH 14 0
BBX 14 14 0 -2
BITMAP
0000
0000
0000
0000
3ff0
3ff0
0000
0000
3ff0
3ff0
0000
0000
0000
0000
ENDCHAR
STARTCHAR 223a
ENCODING 8762
SWIDTH 960 0
DWIDTH 14 0
BBX 14 14 0 -2
BITMAP
0000
0000
03f0
0c00
1000
2000
3ff0
2000
1000
0c00
03f0
0000
0000
0000
ENDCHAR
STARTCHAR 223b
ENCODING 8763
SWIDTH 960 0
DWIDTH 14 0
BBX 14 14 0 -2
BITMAP
0000
0000
3f00
00c0
0020
0010
3ff0
0010
0020
00c0
3f00
0000
0000
0000
ENDCHAR
STARTCHAR 223c
ENCODING 8764
SWIDTH 960 0
DWIDTH 14 0
BBX 14 14 0 -2
BITMAP
0000
0000
0ff0
1000
2000
2000
2000
1000
0ff0
0000
0000
3ff0
0000
0000
ENDCHAR
STARTCHAR 223d
ENCODING 8765
SWIDTH 960 0
DWIDTH 14 0
BBX 14 14 0 -2
BITMAP
0000
0000
3fc0
0020
0010
0010
0010
0020
3fc0
0000
0000
3ff0
0000
0000
ENDCHAR
STARTCHAR 223e
ENCODING 8766
SWIDTH 960 0
DWIDTH 14 0
BBX 14 14 0 -2
BITMAP
0000
0000
03f0
0c00
1000
2000
2000
2000
2000
1000
0c00
03f0
0000
0000
ENDCHAR
STARTCHAR 223f
ENCODING 8767
SWIDTH 960 0
DWIDTH 14 0
BBX 14 14 0 -2
BITMAP
0000
0000
3f00
00c0
0020
0010
0010
0010
0010
0020
00c0
3f00
0000
0000
ENDCHAR
STARTCHAR 2240
ENCODING 8768
SWIDTH 960 0
DWIDTH 14 0
BBX 14 14 0 -2
BITMAP
0000
0000
2010
2010
2010
2010
2010
2010
1020
1020
0840
0780
0000
0000
ENDCHAR
STARTCHAR 2241
ENCODING 8769
SWIDTH 960 0
DWIDTH 14 0
BBX 14 14 0 -2
BITMAP
0000
0000
0780
0840
1020
1020
2010
2010
2010
2010
2010
2010
0000
0000
ENDCHAR
STARTCHAR 224a
ENCODING 8778
SWIDTH 960 0
DWIDTH 14 0
BBX 14 14 0 -2
BITMAP
0000
0000
0100
0100
0280
0280
0440
0440
0820
0820
1010
1010
0000
0000
ENDCHAR
STARTCHAR 224b
ENCODING 8779
SWIDTH 960 0
DWIDTH 14 0
BBX 14 14 0 -2
BITMAP
0000
0000
1010
1010
0820
0820
0440
0440
0280
0280
0100
0100
0000
0000
ENDCHAR
STARTCHAR 224c
ENCODING 8780
SWIDTH 960 0
DWIDTH 14 0
BBX 14 14 0 -2
BITMAP
0000
0000
0000
0000
0000
0000
3ff0
0010
0010
0010
0010
0010
0000
0000
ENDCHAR
STARTCHAR 224d
ENCODING 8781
SWIDTH 960 0
DWIDTH 14 0
BBX 14 14 0 -2
BITMAP
0000
0000
0000
0040
0020
7ff0
0008
7ff0
0020
0040
0000
0000
0000
0000
ENDCHAR
STARTCHAR 224e
ENCODING 8782
SWIDTH 960 0
DWIDTH 14 0
BBX 14 14 0 -2
BITMAP
0000
0000
0000
0840
1020
3ff0
4008
3ff0
1020
0840
0000
0000
0000
0000
ENDCHAR
STARTCHAR 224f
ENCODING 8783
SWIDTH 960 0
DWIDTH 14 0
BBX 14 14 0 -2
BITMAP
0000
2008
2008
1010
1ff0
0820
0820
0440
0440
0280
0280
0100
0100
0000
ENDCHAR
STARTCHAR 2250
ENCODING 8784
SWIDTH 960 0
DWIDTH 14 0
BBX 14 14 0 -2
BITMAP
0000
1fe0
0020
0020
0020
0020
1fe0
0020
0020
0020
0020
1fe0
0000
0000
ENDCHAR
STARTCHAR 225c
ENCODING 8796
SWIDTH 960 0
DWIDTH 14 0
BBX 14 14 0 -2
BITMAP
0000
0000
0010
0020
0040
0080
0100
0200
0400
0800
1000
3ff0
0000
0000
ENDCHAR
STARTCHAR 225d
ENCODING 8797
SWIDTH 960 0
DWIDTH 14 0
BBX 14 14 0 -2
BITMAP
0000
0000
0100
0100
0100
0100
0100
0100
0100
0100
0100
3ff8
0000
0000
ENDCHAR
STARTCHAR 225e
ENCODING 8798
SWIDTH 960 0
DWIDTH 14 0
BBX 14 14 0 -2
BITMAP
0000
0fe0
3018
4004
0000
0000
0000
0000
0000
0000
0000
0000
0000
0000
ENDCHAR
STARTCHAR 225f
ENCODING 8799
SWIDTH 960 0
DWIDTH 14 0
BBX 14 14 0 -2
BITMAP
0000
01c0
0260
0020
0020
03a0
0660
0460
0c60
0c40
0cc0
0580
0300
0000
ENDCHAR
STARTCHAR 2260
ENCODING 8800
SWIDTH 960 0
DWIDTH 14 0
BBX 14 14 0 -2
BITMAP
0000
0000
3ff8
1ff0
1810
0820
0c20
0440
0640
0280
0380
0100
0100
0000
ENDCHAR
STARTCHAR 2261
ENCODING 8801
SWIDTH 960 0
DWIDTH 14 0
BBX 14 14 0 -2
BITMAP
0000
0000
0000
3ff0
0000
0000
3ff0
0000
0000
3ff0
0000
0000
0000
0000
ENDCHAR
STARTCHAR 2262
ENCODING 8802
SWIDTH 960 0
DWIDTH 14 0
BBX 14 14 0 -2
BITMAP
0000
0000
0800
1c00
0800
3ff0
0000
0000
3ff0
0040
00e0
0040
0000
0000
ENDCHAR
STARTCHAR 2263
ENCODING 8803
SWIDTH 960 0
DWIDTH 14 0
BBX 14 14 0 -2
BITMAP
0000
0110
0220
0440
0880
1100
2200
1100
0880
0440
0220
0110
0000
0000
ENDCHAR
STARTCHAR 2264
ENCODING 8804
SWIDTH 960 0
DWIDTH 14 0
BBX 14 14 0 -2
BITMAP
0000
2200
1100
0880
0440
0220
0110
0220
0440
0880
1100
2200
0000
0000
ENDCHAR
STARTCHAR 2265
ENCODING 8805
SWIDTH 960 0
DWIDTH 14 0
BBX 14 14 0 -2
BITMAP
0000
01f8
0100
0100
0100
0200
0200
0200
2200
7400
1c00
0c00
0400
0000
ENDCHAR
STARTCHAR 2266
ENCODING 8806
SWIDTH 960 0
DWIDTH 14 0
BBX 14 14 0 -2
BITMAP
0000
0000
0000
0000
0c60
1090
2108
2108
1210
0c60
0000
0000
0000
0000
ENDCHAR
STARTCHAR 2267
ENCODING 8807
SWIDTH 960 0
DWIDTH 14 0
BBX 14 14 0 -2
BITMAP
0000
0000
0000
0000
0630
0940
1080
1080
0940
0630
0000
0000
0000
0000
ENDCHAR
STARTCHAR 2268
ENCODING 8808
SWIDTH 960 0
DWIDTH 14 0
BBX 14 14 0 -2
BITMAP
0000
0000
1010
3838
1010
0000
0000
0000
0000
0100
0380
0100
0000
0000
ENDCHAR
STARTCHAR 2269
ENCODING 8809
SWIDTH 960 0
DWIDTH 14 0
BBX 14 14 0 -2
BITMAP
00c0
01c0
0200
0200
0300
0300
0180
0180
00c0
00c0
0040
0040
0380
0300
ENDCHAR
STARTCHAR 226a
ENCODING 8810
SWIDTH 960 0
DWIDTH 14 0
BBX 14 14 0 -2
BITMAP
0660
0ee0
1100
1100
1980
1980
0cc0
0cc0
0660
0660
0220
0220
1dc0
1980
ENDCHAR
STARTCHAR 2272
ENCODING 8818
SWIDTH 960 0
DWIDTH 14 0
BBX 14 14 0 -2
BITMAP
0300
0480
0480
0300
0100
0380
0380
04c0
04c0
0860
0fe0
1030
3878
0000
ENDCHAR
STARTCHAR 2273
ENCODING 8819
SWIDTH 960 0
DWIDTH 14 0
BBX 14 14 0 -2
BITMAP
0000
1820
2440
6680
6680
2500
1a00
0310
06a8
0eec
16ec
12a8
2110
0000
ENDCHAR
STARTCHAR 2274
ENCODING 8820
SWIDTH 960 0
DWIDTH 14 0
BBX 14 14 0 -2
BITMAP
0080
0480
04e0
07e0
1f80
1c80
0480
04e0
07e0
1f80
1c80
0480
0400
0000
ENDCHAR
STARTCHAR 2275
ENCODING 8821
SWIDTH 960 0
DWIDTH 14 0
BBX 14 14 0 -2
BITMAP
0000
0400
0400
0400
0400
0400
05c0
0660
0460
0440
0480
0500
0600
0000
ENDCHAR
STARTCHAR 2276
ENCODING 8822
SWIDTH 960 0
DWIDTH 14 0
BBX 14 14 0 -2
BITMAP
0100
0180
01c0
0160
0120
0130
0110
0110
0110
0720
0f00
0f00
0600
0000
ENDCHAR
STARTCHAR 2277
ENCODING 8823
SWIDTH 960 0
DWIDTH 14 0
BBX 14 14 0 -2
BITMAP
0100
0380
0100
0920
1ff0
0920
0380
0380
0100
0100
0100
0100
0100
0100
ENDCHAR
STARTCHAR 2278
ENCODING 8824
SWIDTH 960 0
DWIDTH 14 0
BBX 14 14 0 -2
BITMAP
0100
0380
0920
1ff0
0920
0380
0100
0100
0380
0920
1ff0
0920
0380
0100
ENDCHAR
STARTCHAR 2279
ENCODING 8825
SWIDTH 960 0
DWIDTH 14 0
BBX 14 14 0 -2
BITMAP
0000
03c0
0740
0740
0740
0340
0140
0140
0140
0140
0140
0140
0140
0000
ENDCHAR
STARTCHAR 227e
ENCODING 8830
SWIDTH 960 0
DWIDTH 14 0
BBX 14 14 0 -2
BITMAP
0000
07c0
1830
2008
2008
4004
4004
4004
4004
4004
2008
2008
1830
07c0
ENDCHAR
STARTCHAR 2330
ENCODING 9008
SWIDTH 960 0
DWIDTH 14 0
BBX 14 14 0 -2
BITMAP
0000
0380
0440
0820
0820
0820
0820
0820
0820
0820
0440
0380
0000
0000
ENDCHAR
STARTCHAR 2331
ENCODING 9009
SWIDTH 960 0
DWIDTH 14 0
BBX 14 14 0 -2
BITMAP
0000
0100
0100
0700
0100
0100
0100
0100
0100
0100
0100
0380
0000
0000
ENDCHAR
STARTCHAR 2332
ENCODING 9010
SWIDTH 960 0
DWIDTH 14 0
BBX 14 14 0 -2
BITMAP
0000
0780
0840
1020
1020
0040
0080
0300
0400
0800
1000
1fe0
0000
0000
ENDCHAR
STARTCHAR 2333
ENCODING 9011
SWIDTH 960 0
DWIDTH 14 0
BBX 14 14 0 -2
BITMAP
0000
0780
0840
1020
1020
0040
0380
0040
1020
1020
0840
0780
0000
0000
ENDCHAR
STARTCHAR 2334
ENCODING 9012
SWIDTH 960 0
DWIDTH 14 0
BBX 14 14 0 -2
BITMAP
0000
0040
00c0
0140
0240
0440
0840
1040
1ff0
0040
0040
00e0
0000
0000
ENDCHAR
STARTCHAR 2335
ENCODING 9013
SWIDTH 960 0
DWIDTH 14 0
BBX 14 14 0 -2
BITMAP
0000
0fe0
0800
0800
0800
0b80
0c40
0020
0020
0020
0840
0780
0000
0000
ENDCHAR
STARTCHAR 2336
ENCODING 9014
SWIDTH 960 0
DWIDTH 14 0
BBX 14 14 0 -2
BITMAP
0000
03c0
0420
0800
0800
13c0
1420
1810
1010
0810
0420
03c0
0000
0000
ENDCHAR
STARTCHAR 2337
ENCODING 9015
SWIDTH 960 0
DWIDTH 14 0
BBX 14 14 0 -2
BITMAP
0000
0ff0
0820
1040
0080
0080
0100
0100
0100
0100
0100
0100
0000
0000
ENDCHAR
STARTCHAR 2338
ENCODING 9016
SWIDTH 960 0
DWIDTH 14 0
BBX 14 14 0 -2
BITMAP
0000
0780
0840
1020
1040
0880
0780
0840
1020
1020
0840
0780
0000
0000
ENDCHAR
STARTCHAR 2339
ENCODING 9017
SWIDTH 960 0
DWIDTH 14 0
BBX 14 14 0 -2
BITMAP
0000
0780
0840
1020
1020
1020
0860
07a0
0020
1020
0840
0780
0000
0000
ENDCHAR
STARTCHAR 2341
ENCODING 9025
SWIDTH 960 0
DWIDTH 14 0
BBX 14 14 0 -2
BITMAP
0000
0100
0100
0280
0280
0440
0440
0820
0fe0
1010
1010
3838
0000
0000
ENDCHAR
STARTCHAR 2342
ENCODING 9026
SWIDTH 960 0
DWIDTH 14 0
BBX 14 14 0 -2
BITMAP
0000
1f80
0860
0810
0810
0860
0fc0
0830
0808
0808
0830
1fc0
0000
0000
ENDCHAR
STARTCHAR 2343
ENCODING 9027
SWIDTH 960 0
DWIDTH 14 0
BBX 14 14 0 -2
BITMAP
0000
03d0
0c30
1010
2000
2000
2000
2000
2000
1010
0c20
03c0
0000
0000
ENDCHAR
STARTCHAR 2344
ENCODING 9028
SWIDTH 960 0
DWIDTH 14 0
BBX 14 14 0 -2
BITMAP
0000
3f00
10c0
1020
1010
1010
1010
1010
1010
1020
10c0
3f00
0000
0000
ENDCHAR
STARTCHAR 2345
ENCODING 9029
SWIDTH 960 0
DWIDTH 14 0
BBX 14 14 0 -2
BITMAP
0000
3fc0
1040
1020
1000
1040
1fc0
1040
1000
1000
1020
3fe0
0000
0000
ENDCHAR
STARTCHAR 2346
ENCODING 9030
SWIDTH 960 0
DWIDTH 14 0
BBX 14 14 0 -2
BITMAP
0000
3fc0
1040
1020
1000
1080
1f80
1080
1000
1000
1000
3800
0000
0000
ENDCHAR
STARTCHAR 2347
ENCODING 9031
SWIDTH 960 0
DWIDTH 14 0
BBX 14 14 0 -2
BITMAP
0000
03a0
0c60
1020
2000
2000
20f8
2020
2020
1020
0c60
03a0
0020
0000
ENDCHAR
STARTCHAR 2348
ENCODING 9032
SWIDTH 960 0
DWIDTH 14 0
BBX 14 14 0 -2
BITMAP
0000
3870
1020
1020
1020
1020
1fe0
1020
1020
1020
1020
3870
0000
0000
ENDCHAR
STARTCHAR 2349
ENCODING 9033
SWIDTH 960 0
DWIDTH 14 0
BBX 14 14 0 -2
BITMAP
0000
0700
0200
0200
0200
0200
0200
0200
0200
0200
0200
0700
0000
0000
ENDCHAR
STARTCHAR 234a
ENCODING 9034
SWIDTH 960 0
DWIDTH 14 0
BBX 14 14 0 -2
BITMAP
0000
00e0
0040
0040
0040
0040
0040
0040
0040
0840
0880
0700
0000
0000
ENDCHAR
STARTCHAR 234b
ENCODING 9035
SWIDTH 960 0
DWIDTH 14 0
BBX 14 14 0 -2
BITMAP
0000
38e0
1040
1080
1100
1600
1a00
1100
1080
1040
1020
3870
0000
0000
ENDCHAR
STARTCHAR 234c
ENCODING 9036
SWIDTH 960 0
DWIDTH 14 0
BBX 14 14 0 -2
BITMAP
0000
3800
1000
1000
1000
1000
1000
1000
1000
1020
1040
3fc0
0000
0000
ENDCHAR
STARTCHAR 234d
ENCODING 9037
SWIDTH 960 0
DWIDTH 14 0
BBX 14 14 0 -2
BITMAP
0000
6018
3030
3050
2850
2890
2490
2510
2210
2210
2010
7038
0000
0000
ENDCHAR
STARTCHAR 234e
ENCODING 9038
SWIDTH 960 0
DWIDTH 14 0
BBX 14 14 0 -2
BITMAP
0000
3070
1820
1820
1420
1220
1120
1120
10a0
1060
1060
3820
0000
0000
ENDCHAR
STARTCHAR 234f
ENCODING 9039
SWIDTH 960 0
DWIDTH 14 0
BBX 14 14 0 -2
BITMAP
0000
0380
0c60
1010
2008
2008
2008
2008
2008
1010
0c60
0380
0000
0000
ENDCHAR
STARTCHAR 2350
ENCODING 9040
SWIDTH 960 0
DWIDTH 14 0
BBX 14 14 0 -2
BITMAP
0000
3f00
10c0
1020
1020
10c0
1f00
1000
1000
1000
1000
3800
0000
0000
ENDCHAR
STARTCHAR 2351
ENCODING 9041
SWIDTH 960 0
DWIDTH 14 0
BBX 14 14 0 -2
BITMAP
0000
0380
0c60
1010
2008
2008
2008
2008
2708
1890
0c60
03e0
0018
0000
ENDCHAR
STARTCHAR 2352
ENCODING 9042
SWIDTH 960 0
DWIDTH 14 0
BBX 14 14 0 -2
BITMAP
0000
3f00
10c0
1020
1020
10c0
1f00
1080
1040
1040
1020
3870
0000
0000
ENDCHAR
STARTCHAR 2353
ENCODING 9043
SWIDTH 960 0
DWIDTH 14 0
BBX 14 14 0 -2
BITMAP
0000
07a0
0860
1020
0800
0600
0180
0060
1010
1010
1820
17c0
0000
0000
ENDCHAR
STARTCHAR 2354
ENCODING 9044
SWIDTH 960 0
DWIDTH 14 0
BBX 14 14 0 -2
BITMAP
0000
3fe0
2220
4210
0200
0200
0200
0200
0200
0200
0200
0700
0000
0000
ENDCHAR
STARTCHAR 2355
ENCODING 9045
SWIDTH 960 0
DWIDTH 14 0
BBX 14 14 0 -2
BITMAP
0000
3870
1020
1020
1020
1020
1020
1020
1020
1020
0840
0780
0000
0000
ENDCHAR
STARTCHAR 2356
ENCODING 9046
SWIDTH 960 0
DWIDTH 14 0
BBX 14 14 0 -2
BITMAP
0000
3838
1010
1010
0820
0820
0440
0440
0280
0280
0100
0100
0000
0000
ENDCHAR
STARTCHAR 2357
ENCODING 9047
SWIDTH 960 0
DWIDTH 14 0
BBX 14 14 0 -2
BITMAP
0000
711c
2108
2108
2110
1290
1290
1490
1460
0c60
0820
0820
0000
0000
ENDCHAR
STARTCHAR 2358
ENCODING 9048
SWIDTH 960 0
DWIDTH 14 0
BBX 14 14 0 -2
BITMAP
0000
3870
1020
0840
0480
0300
0100
0280
0440
0820
1010
3838
0000
0000
ENDCHAR
STARTCHAR 2359
ENCODING 9049
SWIDTH 960 0
DWIDTH 14 0
BBX 14 14 0 -2
BITMAP
0000
38e0
1040
0880
0500
0200
0200
0200
0200
0200
0200
0700
0000
0000
ENDCHAR
STARTCHAR 235a
ENCODING 9050
SWIDTH 960 0
DWIDTH 14 0
BBX 14 14 0 -2
BITMAP
0000
1ff0
1020
2040
0080
0100
0100
0200
0400
0808
1010
3ff0
0000
0000
ENDCHAR
STARTCHAR 2361
ENCODING 9057
SWIDTH 960 0
DWIDTH 14 0
BBX 14 14 0 -2
BITMAP
0000
0000
0000
0000
0780
0840
0840
03c0
0c40
1040
10c0
0f20
0000
0000
ENDCHAR
STARTCHAR 2362
ENCODING 9058
SWIDTH 960 0
DWIDTH 14 0
BBX 14 14 0 -2
BITMAP
0000
1800
0800
0800
09c0
0a20
0c20
0820
0820
0820
0c40
1b80
0000
0000
ENDCHAR
STARTCHAR 2363
ENCODING 9059
SWIDTH 960 0
DWIDTH 14 0
BBX 14 14 0 -2
BITMAP
0000
0000
0000
0000
0780
0840
1020
1000
1000
1020
0840
0780
0000
0000
ENDCHAR
STARTCHAR 2364
ENCODING 9060
SWIDTH 960 0
DWIDTH 14 0
BBX 14 14 0 -2
BITMAP
0000
0060
0040
0040
0740
08c0
1040
1040
1040
1040
08c0
0760
0000
0000
ENDCHAR
STARTCHAR 2365
ENCODING 9061
SWIDTH 960 0
DWIDTH 14 0
BBX 14 14 0 -2
BITMAP
0000
0000
0000
0000
0780
0840
1020
1fe0
1000
1020
0c40
0380
0000
0000
ENDCHAR
STARTCHAR 2366
ENCODING 9062
SWIDTH 960 0
DWIDTH 14 0
BBX 14 14 0 -2
BITMAP
0000
0180
0240
0400
0400
1fc0
0400
0400
0400
0400
0400
0e00
0000
0000
ENDCHAR
STARTCHAR 2367
ENCODING 9063
SWIDTH 960 0
DWIDTH 14 0
BBX 14 14 0 -2
BITMAP
0000
0000
0000
0000
0720
08c0
0840
0880
0700
0800
0f80
1060
1020
0fc0
ENDCHAR
STARTCHAR 2368
ENCODING 9064
SWIDTH 960 0
DWIDTH 14 0
BBX 14 14 0 -2
BITMAP
0000
1800
0800
0800
0980
0a40
0c20
0820
0820
0820
0820
1c70
0000
0000
ENDCHAR
STARTCHAR 2369
ENCODING 9065
SWIDTH 960 0
DWIDTH 14 0
BBX 14 14 0 -2
BITMAP
0000
0200
0200
0000
0600
0200
0200
0200
0200
0200
0200
0700
0000
0000
ENDCHAR
STARTCHAR 236a
ENCODING 9066
SWIDTH 960 0
DWIDTH 14 0
BBX 14 14 0 -2
BITMAP
0000
0100
0100
0000
0300
0100
0100
0100
0100
0100
0100
0100
1100
0e00
ENDCHAR
STARTCHAR 236b
ENCODING 9067
SWIDTH 960 0
DWIDTH 14 0
BBX 14 14 0 -2
BITMAP
0000
1c00
0800
0870
0840
0880
0900
0b00
0c80
0840
0820
1c70
0000
0000
ENDCHAR
STARTCHAR 236c
ENCODING 9068
SWIDTH 960 0
DWIDTH 14 0
BBX 14 14 0 -2
BITMAP
0000
0600
0200
0200
0200
0200
0200
0200
0200
0200
0200
0700
0000
0000
ENDCHAR
STARTCHAR 236d
ENCODING 9069
SWIDTH 960 0
DWIDTH 14 0
BBX 14 14 0 -2
BITMAP
0000
0000
0000
0000
6cc0
3320
2220
2220
2220
2220
2220
7770
0000
0000
ENDCHAR
STARTCHAR 236e
ENCODING 9070
SWIDTH 960 0
DWIDTH 14 0
BBX 14 14 0 -2
BITMAP
0000
0000
0000
0000
19c0
0a20
0c20
0820
0820
0820
0820
1c70
0000
0000
ENDCHAR
STARTCHAR 236f
ENCODING 9071
SWIDTH 960 0
DWIDTH 14 0
BBX 14 14 0 -2
BITMAP
0000
0000
0000
0000
0780
0840
1020
1020
1020
1020
0840
0780
0000
0000
ENDCHAR
STARTCHAR 2370
ENCODING 9072
SWIDTH 960 0
DWIDTH 14 0
BBX 14 14 0 -2
BITMAP
0000
0000
0000
0000
0b80
0c40
0820
0820
0820
0820
0c40
0b80
0800
1c00
ENDCHAR
STARTCHAR 2371
ENCODING 9073
SWIDTH 960 0
DWIDTH 14 0
BBX 14 14 0 -2
BITMAP
0000
0000
0000
0000
0740
08c0
1040
1040
1040
1040
08c0
0740
0040
00e0
ENDCHAR
STARTCHAR 2372
ENCODING 9074
SWIDTH 960 0
DWIDTH 14 0
BBX 14 14 0 -2
BITMAP
0000
0000
0000
0000
0980
0a40
0c40
0800
0800
0800
0800
1c00
0000
0000
ENDCHAR
STARTCHAR 2373
ENCODING 9075
SWIDTH 960 0
DWIDTH 14 0
BBX 14 14 0 -2
BITMAP
0000
0000
0000
0000
0f40
10c0
1000
0c00
0380
0040
3040
0f80
0000
0000
ENDCHAR
STARTCHAR 2374
ENCODING 9076
SWIDTH 960 0
DWIDTH 14 0
BBX 14 14 0 -2
BITMAP
0000
0000
0400
0400
0400
1fc0
0400
0400
0400
0400
0440
0380
0000
0000
ENDCHAR
STARTCHAR 2375
ENCODING 9077
SWIDTH 960 0
DWIDTH 14 0
BBX 14 14 0 -2
BITMAP
0000
0000
0000
0000
1c70
0820
0820
0820
0820
0820
0460
03b0
0000
0000
ENDCHAR
STARTCHAR 2376
ENCODING 9078
SWIDTH 960 0
DWIDTH 14 0
BBX 14 14 0 -2
BITMAP
0000
0000
0000
0000
3870
1020
0840
0840
0480
0480
0300
0300
0000
0000
ENDCHAR
STARTCHAR 2377
ENCODING 9079
SWIDTH 960 0
DWIDTH 14 0
BBX 14 14 0 -2
BITMAP
0000
0000
0000
0000
3838
1110
1110
0a90
0aa0
0aa0
0440
0440
0000
0000
ENDCHAR
STARTCHAR 2378
ENCODING 9080
SWIDTH 960 0
DWIDTH 14 0
BBX 14 14 0 -2
BITMAP
0000
0000
0000
0000
1860
0840
0480
0300
0300
0480
0840
1860
0000
0000
ENDCHAR
STARTCHAR 2379
ENCODING 9081
SWIDTH 960 0
DWIDTH 14 0
BBX 14 14 0 -2
BITMAP
0000
0000
0000
0000
1c70
0820
0420
0440
0240
0280
0180
0100
0200
0c00
ENDCHAR
STARTCHAR 237a
ENCODING 9082
SWIDTH 960 0
DWIDTH 14 0
BBX 14 14 0 -2
BITMAP
0000
0000
0000
0000
0fc0
1080
0100
0200
0400
0820
1040
1fc0
0000
0000
ENDCHAR
STARTCHAR 2421
ENCODING 9249
SWIDTH 960 0
DWIDTH 14 0
BBX 14 14 0 -2
BITMAP
0000
0000
0000
0400
0200
1380
0e00
0480
07e0
0d10
1610
2610
2a20
10c0
ENDCHAR
STARTCHAR 2422
ENCODING 9250
SWIDTH 960 0
DWIDTH 14 0
BBX 14 14 0 -2
BITMAP
0400
0200
02c0
1f00
0480
0480
07e0
0d10
1508
2208
2608
2a10
1060
0000
ENDCHAR
STARTCHAR 2423
ENCODING 9251
SWIDTH 960 0
DWIDTH 14 0
BBX 14 14 0 -2
BITMAP
0000
0000
0000
0000
0000
0000
1040
1020
1010
1030
0a00
0c00
0400
0000
ENDCHAR
STARTCHAR 2424
ENCODING 9252
SWIDTH 960 0
DWIDTH 14 0
BBX 14 14 0 -2
BITMAP
0000
0000
0000
4000
2060
2010
2008
2208
2418
1408
1800
0800
0000
0000
ENDCHAR
STARTCHAR 2425
ENCODING 9253
SWIDTH 960 0
DWIDTH 14 0
BBX 14 14 0 -2
BITMAP
0000
0000
0000
0000
0200
0180
0000
1380
0c40
0040
0040
0040
0080
0300
ENDCHAR
STARTCHAR 2426
ENCODING 9254
SWIDTH 960 0
DWIDTH 14 0
BBX 14 14 0 -2
BITMAP
0200
01c0
0000
0000
03c0
1c20
0020
0020
0020
0020
0040
0040
0080
0100
ENDCHAR
STARTCHAR 2427
ENCODING 9255
SWIDTH 960 0
DWIDTH 14 0
BBX 14 14 0 -2
BITMAP
0000
0000
0000
0000
0200
0180
0000
01c0
0e80
0100
0200
0700
0900
10f0
ENDCHAR
STARTCHAR 2428
ENCODING 9256
SWIDTH 960 0
DWIDTH 14 0
BBX 14 14 0 -2
BITMAP
0400
0380
0000
0000
11c0
0e80
0100
0200
0400
0e00
1100
2100
20f8
0000
ENDCHAR
STARTCHAR 2429
ENCODING 9257
SWIDTH 960 0
DWIDTH 14 0
BBX 14 14 0 -2
BITMAP
0000
0000
0000
0000
1040
0830
0c20
3800
0bc0
0c20
1820
2820
18c0
0800
ENDCHAR
STARTCHAR 242a
ENCODING 9258
SWIDTH 960 0
DWIDTH 14 0
BBX 14 14 0 -2
BITMAP
0000
0800
0430
0508
060c
1c00
0460
0590
0608
0c08
3488
0c70
0400
0000
ENDCHAR
STARTCHAR 242b
ENCODING 9259
SWIDTH 960 0
DWIDTH 14 0
BBX 14 14 0 -2
BITMAP
0000
0800
0400
0460
4710
3c88
0898
0880
0880
1080
1100
2500
2200
0000
ENDCHAR
STARTCHAR 242c
ENCODING 9260
SWIDTH 960 0
DWIDTH 14 0
BBX 14 14 0 -2
BITMAP
0008
0824
0410
0440
4720
3c90
0888
0898
0880
1080
1100
2500
2200
0000
ENDCHAR
STARTCHAR 242d
ENCODING 9261
SWIDTH 960 0
DWIDTH 14 0
BBX 14 14 0 -2
BITMAP
0200
0100
0160
0f80
0080
00f0
1f40
0020
0020
07f0
0810
0800
0600
01c0
ENDCHAR
STARTCHAR 242e
ENCODING 9262
SWIDTH 960 0
DWIDTH 14 0
BBX 14 14 0 -2
BITMAP
0408
0224
02d0
1f00
0100
01e0
3e80
0040
0040
0fe0
1020
1000
0c00
0380
ENDCHAR
STARTCHAR 242f
ENCODING 9263
SWIDTH 960 0
DWIDTH 14 0
BBX 14 14 0 -2
BITMAP
0080
0040
0040
0080
0100
0600
0800
0800
0400
0200
0100
0080
0040
0040
ENDCHAR
STARTCHAR 2430
ENCODING 9264
SWIDTH 960 0
DWIDTH 14 0
BBX 14 14 0 -2
BITMAP
0080
0040
0040
0088
0124
0610
0800
0800
0400
0200
0100
0080
0040
0040
ENDCHAR
STARTCHAR 2431
ENCODING 9265
SWIDTH 960 0
DWIDTH 14 0
BBX 14 14 0 -2
BITMAP
0080
2040
1020
1020
103c
23e0
2020
2020
2020
2020
1820
1040
1040
0080
ENDCHAR
STARTCHAR 2432
ENCODING 9266
SWIDTH 960 0
DWIDTH 14 0
BBX 14 14 0 -2
BITMAP
0108
40a4
2050
2040
2078
47c0
4040
4040
4040
4040
3040
2080
2080
0100
ENDCHAR
STARTCHAR 2433
ENCODING 9267
SWIDTH 960 0
DWIDTH 14 0
BBX 14 14 0 -2
BITMAP
0000
0800
07e0
0080
0100
0000
0000
0000
0000
2000
2000
1010
0fe0
0000
ENDCHAR
STARTCHAR 2434
ENCODING 9268
SWIDTH 960 0
DWIDTH 14 0
BBX 14 14 0 -2
BITMAP
0008
0804
07f0
0088
0100
0000
0000
0000
0000
2000
2000
1010
0fe0
0000
ENDCHAR
STARTCHAR 2435
ENCODING 9269
SWIDTH 960 0
DWIDTH 14 0
BBX 14 14 0 -2
BITMAP
0400
0200
0130
21c0
1e80
0040
0040
07e0
0820
1000
1000
0c00
03c0
0000
ENDCHAR
STARTCHAR 2436
ENCODING 9270
SWIDTH 960 0
DWIDTH 14 0
BBX 14 14 0 -2
BITMAP
0408
0204
0130
21c8
1e80
0040
0040
07e0
0820
1000
1000
0c00
03c0
0000
ENDCHAR
STARTCHAR 2437
ENCODING 9271
SWIDTH 960 0
DWIDTH 14 0
BBX 14 14 0 -2
BITMAP
0000
1000
0800
0800
0800
0800
0800
0800
0800
0808
0810
0460
0380
0000
ENDCHAR
STARTCHAR 2438
ENCODING 9272
SWIDTH 960 0
DWIDTH 14 0
BBX 14 14 0 -2
BITMAP
0000
1020
0890
0840
0800
0800
0800
0800
0800
0808
0810
0460
0380
0000
ENDCHAR
STARTCHAR 2439
ENCODING 9273
SWIDTH 960 0
DWIDTH 14 0
BBX 14 14 0 -2
BITMAP
0100
0080
40f8
3f80
0080
0380
04c0
0440
03c0
0040
0080
0080
0100
0200
ENDCHAR
STARTCHAR 243a
ENCODING 9274
SWIDTH 960 0
DWIDTH 14 0
BBX 14 14 0 -2
BITMAP
0128
0094
40f8
3f80
0080
0380
04c0
0440
03c0
0040
0080
0080
0100
0200
ENDCHAR
STARTCHAR 243b
ENCODING 9275
SWIDTH 960 0
DWIDTH 14 0
BBX 14 14 0 -2
BITMAP
0000
0080
1040
0840
0878
4bc0
3c40
0840
0840
08c0
0840
0400
03e0
0000
ENDCHAR
STARTCHAR 243c
ENCODING 9276
SWIDTH 960 0
DWIDTH 14 0
BBX 14 14 0 -2
BITMAP
0008
0084
1050
0848
0878
4bc0
3c40
0840
0840
08c0
0840
0400
03e0
0000
ENDCHAR
STARTCHAR 243d
ENCODING 9277
SWIDTH 960 0
DWIDTH 14 0
BBX 14 14 0 -2
BITMAP
0000
09c0
0640
0080
0100
0238
07c0
3880
0100
0200
0200
0200
0100
00e0
ENDCHAR
STARTCHAR 243e
ENCODING 9278
SWIDTH 960 0
DWIDTH 14 0
BBX 14 14 0 -2
BITMAP
0000
09c8
0664
0090
0100
0238
07c0
3880
0100
0200
0200
0200
0100
00e0
ENDCHAR
STARTCHAR 243f
ENCODING 9279
SWIDTH 960 0
DWIDTH 14 0
BBX 14 14 0 -2
BITMAP
0000
0800
0480
0700
3c00
08f0
0818
0820
1000
1000
1100
2100
20f8
0000
ENDCHAR
STARTCHAR 2440
ENCODING 9280
SWIDTH 960 0
DWIDTH 14 0
BBX 14 14 0 -2
BITMAP
0008
0824
0490
0700
3c00
08f0
0818
0820
1000
1000
1100
2100
20f8
0000
ENDCHAR
STARTCHAR 2441
ENCODING 9281
SWIDTH 960 0
DWIDTH 14 0
BBX 14 14 0 -2
BITMAP
0800
0400
04c0
4700
3c00
0800
08c0
0b20
1c10
1010
0010
0020
00c0
0700
ENDCHAR
STARTCHAR 2442
ENCODING 9282
SWIDTH 960 0
DWIDTH 14 0
BBX 14 14 0 -2
BITMAP
0800
0408
04c4
4710
3c08
0800
08c0
0b20
1c10
1010
0010
0020
00c0
0700
ENDCHAR
STARTCHAR 2443
ENCODING 9283
SWIDTH 960 0
DWIDTH 14 0
BBX 14 14 0 -2
BITMAP
0000
0000
0000
0000
0000
0000
01c0
0620
3810
0010
0010
0020
00c0
0700
ENDCHAR
STARTCHAR 2444
ENCODING 9284
SWIDTH 960 0
DWIDTH 14 0
BBX 14 14 0 -2
BITMAP
0000
0000
0000
03e0
4c10
3008
0008
0008
0008
0010
0060
0380
0000
0000
ENDCHAR
STARTCHAR 2445
ENCODING 9285
SWIDTH 960 0
DWIDTH 14 0
BBX 14 14 0 -2
BITMAP
0008
0024
0010
03e0
4c10
3008
0008
0008
0008
0010
0060
0380
0000
0000
ENDCHAR
STARTCHAR 2446
ENCODING 9286
SWIDTH 960 0
DWIDTH 14 0
BBX 14 14 0 -2
BITMAP
0000
0038
43c0
3c80
0100
0100
0200
0200
0200
0200
0200
0100
00e0
0000
ENDCHAR
STARTCHAR 2447
ENCODING 9287
SWIDTH 960 0
DWIDTH 14 0
BBX 14 14 0 -2
BITMAP
0000
0038
43c0
3c88
0124
0110
0200
0200
0200
0200
0200
0100
00e0
0000
ENDCHAR
STARTCHAR 2448
ENCODING 9288
SWIDTH 960 0
DWIDTH 14 0
BBX 14 14 0 -2
BITMAP
0000
0400
0200
0200
0200
0270
0380
0600
0800
1000
1000
0800
07f0
0000
ENDCHAR
STARTCHAR 2449
ENCODING 9289
SWIDTH 960 0
DWIDTH 14 0
BBX 14 14 0 -2
BITMAP
0000
0408
0224
0210
0200
0270
0380
0600
0800
1000
1000
0800
07f0
0000
ENDCHAR
STARTCHAR 244a
ENCODING 9290
SWIDTH 960 0
DWIDTH 14 0
BBX 14 14 0 -2
BITMAP
0400
0200
0280
3f00
0470
0818
0820
1040
1040
2040
03c0
0460
0450
0380
ENDCHAR
STARTCHAR 244b
ENCODING 9291
SWIDTH 960 0
DWIDTH 14 0
BBX 14 14 0 -2
BITMAP
0000
2000
1000
10f0
1318
2020
2000
2000
2000
2200
2a00
11f8
1000
1000
ENDCHAR
STARTCHAR 244c
ENCODING 9292
SWIDTH 960 0
DWIDTH 14 0
BBX 14 14 0 -2
BITMAP
0000
0100
0080
0080
13e0
1510
1908
1208
2a08
4c08
4c68
5490
2068
0000
ENDCHAR
STARTCHAR 244d
ENCODING 9293
SWIDTH 960 0
DWIDTH 14 0
BBX 14 14 0 -2
BITMAP
1000
0800
0800
0800
4ce0
3f10
0c10
0810
1810
1810
28f0
5918
08e0
0000
ENDCHAR
STARTCHAR 244e
ENCODING 9294
SWIDTH 960 0
DWIDTH 14 0
BBX 14 14 0 -2
BITMAP
0000
0000
03c0
0d20
1110
1108
2208
2208
2408
2410
2810
1060
0180
0000
ENDCHAR
STARTCHAR 244f
ENCODING 9295
SWIDTH 960 0
DWIDTH 14 0
BBX 14 14 0 -2
BITMAP
0040
2020
1020
1438
13e0
2020
2020
2020
2020
29e0
1230
1228
11c0
0000
ENDCHAR
STARTCHAR 2450
ENCODING 9296
SWIDTH 960 0
DWIDTH 14 0
BBX 14 14 0 -2
BITMAP
0088
4044
2050
2878
27c0
4040
4040
4040
4040
53c0
2460
2450
2380
0000
ENDCHAR
STARTCHAR 2451
ENCODING 9297
SWIDTH 960 0
DWIDTH 14 0
BBX 14 14 0 -2
BITMAP
0098
4064
2064
2878
27c0
4040
4040
4040
4040
53c0
2460
2450
2380
0000
ENDCHAR
STARTCHAR 2452
ENCODING 9298
SWIDTH 960 0
DWIDTH 14 0
BBX 14 14 0 -2
BITMAP
0000
0040
0440
3c20
0820
0830
1028
1020
1020
1040
1040
0880
0700
0000
ENDCHAR
STARTCHAR 2453
ENCODING 9299
SWIDTH 960 0
DWIDTH 14 0
BBX 14 14 0 -2
BITMAP
0008
0044
0450
3c28
0820
0830
1028
1020
1020
1040
1040
0880
0700
0000
ENDCHAR
STARTCHAR 2454
ENCODING 9300
SWIDTH 960 0
DWIDTH 14 0
BBX 14 14 0 -2
BITMAP
0030
0048
0448
3c30
0820
0830
1028
1020
1020
1040
1040
0880
0700
0000
ENDCHAR
STARTCHAR 2455
ENCODING 9301
SWIDTH 960 0
DWIDTH 14 0
BBX 14 14 0 -2
BITMAP
0000
0400
0380
0080
0100
0200
0200
0100
02b0
4c88
389c
2480
0300
0000
ENDCHAR
STARTCHAR 2456
ENCODING 9302
SWIDTH 960 0
DWIDTH 14 0
BBX 14 14 0 -2
BITMAP
0000
0400
0388
00a4
0110
0200
0200
0100
02b0
4c88
389c
2480
0300
0000
ENDCHAR
STARTCHAR 2457
ENCODING 9303
SWIDTH 960 0
DWIDTH 14 0
BBX 14 14 0 -2
BITMAP
0000
0400
0398
00a4
0124
0218
0200
0100
02b0
4c88
389c
2480
0300
0000
ENDCHAR
STARTCHAR 2458
ENCODING 9304
SWIDTH 960 0
DWIDTH 14 0
BBX 14 14 0 -2
BITMAP
0000
0000
0000
0000
0600
0900
5080
2040
0030
000c
0000
0000
0000
0000
ENDCHAR
STARTCHAR 2459
ENCODING 9305
SWIDTH 960 0
DWIDTH 14 0
BBX 14 14 0 -2
BITMAP
0000
0000
0010
0048
0620
0900
5080
2040
0030
000c
0000
0000
0000
0000
ENDCHAR
STARTCHAR 245a
ENCODING 9306
SWIDTH 960 0
DWIDTH 14 0
BBX 14 14 0 -2
BITMAP
0000
0030
0048
0048
0630
0900
5080
2040
0030
000c
0000
0000
0000
0000
ENDCHAR
STARTCHAR 245b
ENCODING 9307
SWIDTH 960 0
DWIDTH 14 0
BBX 14 14 0 -2
BITMAP
0000
2230
11c0
1040
1038
23e0
2020
2020
2020
29e0
1230
1228
11c0
0000
ENDCHAR
STARTCHAR 245c
ENCODING 9308
SWIDTH 960 0
DWIDTH 14 0
BBX 14 14 0 -2
BITMAP
0000
4468
2384
2090
2078
47c0
4040
4040
4040
53c0
2460
2450
2380
0000
ENDCHAR
STARTCHAR 245d
ENCODING 9309
SWIDTH 960 0
DWIDTH 14 0
BBX 14 14 0 -2
BITMAP
0018
4464
23a4
2098
2070
47c0
4040
4040
4040
53c0
2460
2450
2380
0000
ENDCHAR
STARTCHAR 245e
ENCODING 9310
SWIDTH 960 0
DWIDTH 14 0
BBX 14 14 0 -2
BITMAP
0100
0080
10f0
0f80
0080
10e0
0f80
0080
0080
0f80
10e0
1090
0f00
0000
ENDCHAR
STARTCHAR 245f
ENCODING 9311
SWIDTH 960 0
DWIDTH 14 0
BBX 14 14 0 -2
BITMAP
0000
0880
0780
0100
0100
0220
0210
0ff0
3418
4424
4820
3040
0080
0000
ENDCHAR
STARTCHAR 2460
ENCODING 9312
SWIDTH 960 0
DWIDTH 14 0
BBX 14 14 0 -2
BITMAP
0800
0400
2700
1c30
0408
1c0c
2400
2400
2c20
1810
0810
0810
07e0
0000
ENDCHAR
STARTCHAR 2461
ENCODING 9313
SWIDTH 960 0
DWIDTH 14 0
BBX 14 14 0 -2
BITMAP
0000
0100
0080
1080
13c0
1ca0
1110
2908
2a08
4608
4408
4a10
3060
0000
ENDCHAR
STARTCHAR 2462
ENCODING 9314
SWIDTH 960 0
DWIDTH 14 0
BBX 14 14 0 -2
BITMAP
0200
0100
1100
0e00
0380
1200
2420
1c20
0710
0410
0410
0410
0220
01c0
ENDCHAR
STARTCHAR 2463
ENCODING 9315
SWIDTH 960 0
DWIDTH 14 0
BBX 14 14 0 -2
BITMAP
0000
0000
0000
0000
0100
0880
09e0
0e10
3c10
0460
0200
0200
0100
0100
ENDCHAR
STARTCHAR 2464
ENCODING 9316
SWIDTH 960 0
DWIDTH 14 0
BBX 14 14 0 -2
BITMAP
0100
0080
01c0
1800
10f0
0b08
4c08
3408
0270
0200
0100
0100
0080
0080
ENDCHAR
STARTCHAR 2465
ENCODING 9317
SWIDTH 960 0
DWIDTH 14 0
BBX 14 14 0 -2
BITMAP
0000
0000
0000
0000
0200
0100
21e0
2710
2910
3110
2320
21c0
0100
0200
ENDCHAR
STARTCHAR 2466
ENCODING 9318
SWIDTH 960 0
DWIDTH 14 0
BBX 14 14 0 -2
BITMAP
0000
0300
4080
21e0
2290
2488
2888
3088
3488
2290
21e0
0080
0100
0200
ENDCHAR
STARTCHAR 2467
ENCODING 9319
SWIDTH 960 0
DWIDTH 14 0
BBX 14 14 0 -2
BITMAP
0000
0000
0000
0200
0100
0120
01c0
0100
0100
0100
0f00
11c0
1120
0e00
ENDCHAR
STARTCHAR 2468
ENCODING 9320
SWIDTH 960 0
DWIDTH 14 0
BBX 14 14 0 -2
BITMAP
0200
0100
0100
0130
01c0
0100
0100
0100
0100
1f80
2160
2110
1e00
0000
ENDCHAR
STARTCHAR 2469
ENCODING 9321
SWIDTH 960 0
DWIDTH 14 0
BBX 14 14 0 -2
BITMAP
0200
0100
01c0
0600
0800
0800
0800
09e0
0e10
0810
0810
0020
00c0
0300
ENDCHAR
STARTCHAR 246a
ENCODING 9322
SWIDTH 960 0
DWIDTH 14 0
BBX 14 14 0 -2
BITMAP
1000
0980
0a40
0c20
0c20
0820
0820
0820
0820
0040
0040
0080
0100
0200
ENDCHAR
STARTCHAR 246b
ENCODING 9323
SWIDTH 960 0
DWIDTH 14 0
BBX 14 14 0 -2
BITMAP
0000
08c0
0740
0080
0100
0200
07c0
0c20
1010
2010
0390
0460
0440
0380
ENDCHAR
STARTCHAR 246c
ENCODING 9324
SWIDTH 960 0
DWIDTH 14 0
BBX 14 14 0 -2
BITMAP
0000
1000
0800
09c0
0a20
1c20
6c20
0820
1820
1820
2820
4824
1818
0800
ENDCHAR
STARTCHAR 246d
ENCODING 9325
SWIDTH 960 0
DWIDTH 14 0
BBX 14 14 0 -2
BITMAP
0000
1180
0e80
0100
0200
0400
0fc0
0820
1010
2010
0010
0020
00c0
0700
ENDCHAR
STARTCHAR 246e
ENCODING 9326
SWIDTH 960 0
DWIDTH 14 0
BBX 14 14 0 -2
BITMAP
0000
0000
0000
0000
0800
0400
0400
06e0
1d10
0610
0c10
0c10
1420
0440
ENDCHAR
STARTCHAR 246f
ENCODING 9327
SWIDTH 960 0
DWIDTH 14 0
BBX 14 14 0 -2
BITMAP
1000
0800
0800
0800
4ce0
3f10
0c08
0808
1808
1808
2810
4820
18c0
0800
ENDCHAR
STARTCHAR 2470
ENCODING 9328
SWIDTH 960 0
DWIDTH 14 0
BBX 14 14 0 -2
BITMAP
0000
0980
0680
0100
0100
03e0
0e10
1208
2408
2408
28c8
1930
10e0
0000
ENDCHAR
STARTCHAR 2471
ENCODING 9329
SWIDTH 960 0
DWIDTH 14 0
BBX 14 14 0 -2
BITMAP
0000
0980
0700
0200
07c0
0820
1020
0620
09c0
0700
0800
1ce0
2310
4038
ENDCHAR
STARTCHAR 2472
ENCODING 9330
SWIDTH 960 0
DWIDTH 14 0
BBX 14 14 0 -2
BITMAP
0400
0200
12c0
0f00
0400
0420
0f38
18c0
2180
0280
0480
0800
0800
07e0
ENDCHAR
STARTCHAR 2473
ENCODING 9331
SWIDTH 960 0
DWIDTH 14 0
BBX 14 14 0 -2
BITMAP
0200
0100
0100
0200
0200
0400
0400
0f00
0880
1080
1088
2090
2060
0000
ENDCHAR
STARTCHAR 2521
ENCODING 9505
SWIDTH 960 0
DWIDTH 14 0
BBX 14 14 0 -2
BITMAP
0000
0000
0000
0000
0000
0000
21e0
1e20
0240
0180
0100
0100
0200
0400
ENDCHAR
STARTCHAR 2522
ENCODING 9506
SWIDTH 960 0
DWIDTH 14 0
BBX 14 14 0 -2
BITMAP
0000
0000
21f0
1e10
0020
0240
0180
0100
0100
0100
0200
0200
0400
0800
ENDCHAR
STARTCHAR 2523
ENCODING 9507
SWIDTH 960 0
DWIDTH 14 0
BBX 14 14 0 -2
BITMAP
0000
0000
0000
0000
0020
0040
0080
0380
1c80
0080
0080
0080
0080
0080
ENDCHAR
STARTCHAR 2524
ENCODING 9508
SWIDTH 960 0
DWIDTH 14 0
BBX 14 14 0 -2
BITMAP
0000
0020
0020
0040
0080
0300
0d00
3080
0080
0080
0080
0080
0080
0080
ENDCHAR
STARTCHAR 2525
ENCODING 9509
SWIDTH 960 0
DWIDTH 14 0
BBX 14 14 0 -2
BITMAP
0000
0000
0000
0000
0200
0100
01e0
1e20
0820
0840
0040
0080
0100
0200
ENDCHAR
STARTCHAR 2526
ENCODING 9510
SWIDTH 960 0
DWIDTH 14 0
BBX 14 14 0 -2
BITMAP
0000
0200
0100
0100
01f0
3e10
1010
1020
0820
0840
0040
0080
0100
0200
ENDCHAR
STARTCHAR 2527
ENCODING 9511
SWIDTH 960 0
DWIDTH 14 0
BBX 14 14 0 -2
BITMAP
0000
0000
0000
0000
0000
0000
00e0
0f00
0100
0100
0100
01e0
1e10
0000
ENDCHAR
STARTCHAR 2528
ENCODING 9512
SWIDTH 960 0
DWIDTH 14 0
BBX 14 14 0 -2
BITMAP
0000
0000
0000
0070
1f80
0200
0100
0100
0100
0100
03f0
3c08
0000
0000
ENDCHAR
STARTCHAR 2529
ENCODING 9513
SWIDTH 960 0
DWIDTH 14 0
BBX 14 14 0 -2
BITMAP
0000
0000
0000
0000
0100
0080
10e0
0f80
0180
0280
0480
0880
1180
0080
ENDCHAR
STARTCHAR 252a
ENCODING 9514
SWIDTH 960 0
DWIDTH 14 0
BBX 14 14 0 -2
BITMAP
0000
0080
0040
0040
2078
1fc0
00c0
0140
0240
0440
0840
1040
00c0
0040
ENDCHAR
STARTCHAR 252b
ENCODING 9515
SWIDTH 960 0
DWIDTH 14 0
BBX 14 14 0 -2
BITMAP
0000
0200
0100
0100
21f0
1f10
0210
0210
0420
0420
0820
1140
20c0
0080
ENDCHAR
STARTCHAR 252c
ENCODING 9516
SWIDTH 960 0
DWIDTH 14 0
BBX 14 14 0 -2
BITMAP
0008
0224
0114
0110
21f0
1f10
0210
0210
0420
0420
0820
1140
20c0
0080
ENDCHAR
STARTCHAR 252d
ENCODING 9517
SWIDTH 960 0
DWIDTH 14 0
BBX 14 14 0 -2
BITMAP
0000
0400
0200
0270
0380
1d00
0100
0178
0380
3c80
0080
0040
0040
0040
ENDCHAR
STARTCHAR 252e
ENCODING 9518
SWIDTH 960 0
DWIDTH 14 0
BBX 14 14 0 -2
BITMAP
0008
0424
0214
0270
0380
1d00
0100
0178
0380
3c80
0080
0040
0040
0040
ENDCHAR
STARTCHAR 252f
ENCODING 9519
SWIDTH 960 0
DWIDTH 14 0
BBX 14 14 0 -2
BITMAP
0000
0400
0270
0390
0220
0420
0440
0840
1080
0080
0100
0200
0400
0800
ENDCHAR
STARTCHAR 2530
ENCODING 9520
SWIDTH 960 0
DWIDTH 14 0
BBX 14 14 0 -2
BITMAP
0008
0824
04d4
0750
0440
0840
0880
1080
2100
0100
0200
0400
0800
1000
ENDCHAR
STARTCHAR 2531
ENCODING 9521
SWIDTH 960 0
DWIDTH 14 0
BBX 14 14 0 -2
BITMAP
0000
0800
0400
0400
0438
0fc0
0900
1080
2080
0080
0100
0100
0200
0400
ENDCHAR
STARTCHAR 2532
ENCODING 9522
SWIDTH 960 0
DWIDTH 14 0
BBX 14 14 0 -2
BITMAP
0008
0824
0414
0410
0438
0fc0
0900
1080
2080
0080
0100
0100
0200
0400
ENDCHAR
STARTCHAR 2533
ENCODING 9523
SWIDTH 960 0
DWIDTH 14 0
BBX 14 14 0 -2
BITMAP
0000
0000
0000
21f0
1e10
0010
0010
0010
0020
0020
03e0
1c20
0000
0000
ENDCHAR
STARTCHAR 2534
ENCODING 9524
SWIDTH 960 0
DWIDTH 14 0
BBX 14 14 0 -2
BITMAP
0008
0024
0014
43d0
3c40
0040
0040
0040
0080
0080
0780
3880
0000
0000
ENDCHAR
STARTCHAR 2535
ENCODING 9525
SWIDTH 960 0
DWIDTH 14 0
BBX 14 14 0 -2
BITMAP
0000
0080
0840
0440
0440
24f8
1f40
0440
0440
0440
0080
0080
0100
0200
ENDCHAR
STARTCHAR 2536
ENCODING 9526
SWIDTH 960 0
DWIDTH 14 0
BBX 14 14 0 -2
BITMAP
0008
00a4
0854
0450
0440
24f8
1f40
0440
0440
0440
0080
0080
0100
0200
ENDCHAR
STARTCHAR 2537
ENCODING 9527
SWIDTH 960 0
DWIDTH 14 0
BBX 14 14 0 -2
BITMAP
0000
0000
0c00
0200
0000
1800
0408
0010
0020
0040
0080
1300
0c00
0000
ENDCHAR
STARTCHAR 2538
ENCODING 9528
SWIDTH 960 0
DWIDTH 14 0
BBX 14 14 0 -2
BITMAP
0000
0008
0c24
0214
0010
1800
0408
0010
0020
0040
0080
1300
0c00
0000
ENDCHAR
STARTCHAR 2539
ENCODING 9529
SWIDTH 960 0
DWIDTH 14 0
BBX 14 14 0 -2
BITMAP
0000
0000
10e0
0f20
0040
0040
0080
0080
0140
0220
0c10
3010
0000
0000
ENDCHAR
STARTCHAR 253a
ENCODING 9530
SWIDTH 960 0
DWIDTH 14 0
BBX 14 14 0 -2
BITMAP
0008
0024
21d4
1e50
0080
0080
0100
0100
0280
0440
1820
6020
0000
0000
ENDCHAR
STARTCHAR 253b
ENCODING 9531
SWIDTH 960 0
DWIDTH 14 0
BBX 14 14 0 -2
BITMAP
0000
0800
0400
0400
0478
0588
2610
1c20
0440
0400
0400
0200
01f0
0000
ENDCHAR
STARTCHAR 253c
ENCODING 9532
SWIDTH 960 0
DWIDTH 14 0
BBX 14 14 0 -2
BITMAP
0008
0824
0414
0410
0478
0588
2610
1c20
0440
0400
0400
0200
01f8
0000
ENDCHAR
STARTCHAR 253d
ENCODING 9533
SWIDTH 960 0
DWIDTH 14 0
BBX 14 14 0 -2
BITMAP
0000
0020
1010
0810
0410
0420
0420
0040
0040
0080
0080
0100
0200
0400
ENDCHAR
STARTCHAR 253e
ENCODING 9534
SWIDTH 960 0
DWIDTH 14 0
BBX 14 14 0 -2
BITMAP
0008
00a4
2054
1050
0840
0840
0840
0080
0080
0100
0100
0200
0400
0800
ENDCHAR
STARTCHAR 253f
ENCODING 9535
SWIDTH 960 0
DWIDTH 14 0
BBX 14 14 0 -2
BITMAP
0000
0200
0100
01f0
0210
0220
0520
08c0
1040
0080
0100
0200
0c00
3000
ENDCHAR
STARTCHAR 2540
ENCODING 9536
SWIDTH 960 0
DWIDTH 14 0
BBX 14 14 0 -2
BITMAP
0008
0424
0214
03f0
0420
0420
0a40
1140
2080
0100
0200
0400
1800
6000
ENDCHAR
STARTCHAR 2541
ENCODING 9537
SWIDTH 960 0
DWIDTH 14 0
BBX 14 14 0 -2
BITMAP
0000
0040
0180
1e00
0100
00f8
2380
1c80
0080
0080
0100
0100
0200
0400
ENDCHAR
STARTCHAR 2542
ENCODING 9538
SWIDTH 960 0
DWIDTH 14 0
BBX 14 14 0 -2
BITMAP
0008
0064
0194
1e10
0100
00f8
2380
1c80
0080
0080
0100
0100
0200
0400
ENDCHAR
STARTCHAR 2543
ENCODING 9539
SWIDTH 960 0
DWIDTH 14 0
BBX 14 14 0 -2
BITMAP
0000
0000
0000
0000
0000
0000
0440
1220
0a20
0840
0040
0080
0100
0200
ENDCHAR
STARTCHAR 2544
ENCODING 9540
SWIDTH 960 0
DWIDTH 14 0
BBX 14 14 0 -2
BITMAP
0000
0000
0410
2208
1108
0910
0810
0020
0020
0040
0080
0100
0200
0000
ENDCHAR
STARTCHAR 2545
ENCODING 9541
SWIDTH 960 0
DWIDTH 14 0
BBX 14 14 0 -2
BITMAP
0008
0024
1094
0850
4440
2440
1040
1080
0080
0100
0200
0400
0800
0000
ENDCHAR
STARTCHAR 2546
ENCODING 9542
SWIDTH 960 0
DWIDTH 14 0
BBX 14 14 0 -2
BITMAP
0000
0000
11e0
0e00
0000
0078
2380
1c80
0080
0100
0100
0200
0400
0800
ENDCHAR
STARTCHAR 2547
ENCODING 9543
SWIDTH 960 0
DWIDTH 14 0
BBX 14 14 0 -2
BITMAP
0008
0024
11d4
0e10
0000
20f0
1f00
0080
0080
0100
0100
0200
0400
0800
ENDCHAR
STARTCHAR 2548
ENCODING 9544
SWIDTH 960 0
DWIDTH 14 0
BBX 14 14 0 -2
BITMAP
0000
0800
0400
0400
0400
0400
0700
04c0
0420
0400
0400
0400
0400
0400
ENDCHAR
STARTCHAR 2549
ENCODING 9545
SWIDTH 960 0
DWIDTH 14 0
BBX 14 14 0 -2
BITMAP
0020
1090
0850
0840
0800
0800
0e00
0980
0840
0800
0800
0800
0800
0800
ENDCHAR
STARTCHAR 254a
ENCODING 9546
SWIDTH 960 0
DWIDTH 14 0
BBX 14 14 0 -2
BITMAP
0000
0100
0080
0080
20f8
1f80
0080
0080
0080
0100
0100
0200
0400
0800
ENDCHAR
STARTCHAR 254b
ENCODING 9547
SWIDTH 960 0
DWIDTH 14 0
BBX 14 14 0 -2
BITMAP
0000
0000
0000
00e0
1f00
0000
0000
0000
0000
01f0
3e08
0000
0000
0000
ENDCHAR
STARTCHAR 254c
ENCODING 9548
SWIDTH 960 0
DWIDTH 14 0
BBX 14 14 0 -2
BITMAP
0000
0000
10f0
0f10
0020
0020
0e40
01c0
00c0
0120
0210
0c10
3000
0000
ENDCHAR
STARTCHAR 254d
ENCODING 9549
SWIDTH 960 0
DWIDTH 14 0
BBX 14 14 0 -2
BITMAP
0000
0200
0100
01e0
1e20
0040
0080
0100
0340
0d30
3108
0100
0100
0100
ENDCHAR
STARTCHAR 254e
ENCODING 9550
SWIDTH 960 0
DWIDTH 14 0
BBX 14 14 0 -2
BITMAP
0000
0040
0020
0020
0020
0040
0040
0080
0080
0100
0200
0400
0800
1000
ENDCHAR
STARTCHAR 254f
ENCODING 9551
SWIDTH 960 0
DWIDTH 14 0
BBX 14 14 0 -2
BITMAP
0000
0000
0000
0000
0880
0440
0420
0810
0810
1008
2008
4008
0000
0000
ENDCHAR
STARTCHAR 2550
ENCODING 9552
SWIDTH 960 0
DWIDTH 14 0
BBX 14 14 0 -2
BITMAP
0000
0008
0024
0014
0890
0440
0420
0810
0810
1008
2008
4008
0000
0000
ENDCHAR
STARTCHAR 2551
ENCODING 9553
SWIDTH 960 0
DWIDTH 14 0
BBX 14 14 0 -2
BITMAP
0018
0024
0024
0018
0880
0440
0420
0810
0810
1008
2008
4008
0000
0000
ENDCHAR
STARTCHAR 2552
ENCODING 9554
SWIDTH 960 0
DWIDTH 14 0
BBX 14 14 0 -2
BITMAP
0000
0000
1000
0800
0800
08e0
0f00
0800
0800
0800
0800
0400
03f0
0000
ENDCHAR
STARTCHAR 2553
ENCODING 9555
SWIDTH 960 0
DWIDTH 14 0
BBX 14 14 0 -2
BITMAP
0000
0010
1048
0828
0820
0800
08e0
0f00
0800
0800
0800
0400
03f0
0000
ENDCHAR
STARTCHAR 2554
ENCODING 9556
SWIDTH 960 0
DWIDTH 14 0
BBX 14 14 0 -2
BITMAP
0000
0030
1048
0848
0830
0800
08e0
0f00
0800
0800
0800
0400
03f0
0000
ENDCHAR
STARTCHAR 2555
ENCODING 9557
SWIDTH 960 0
DWIDTH 14 0
BBX 14 14 0 -2
BITMAP
0000
0000
10f0
0f10
0010
0020
0020
0040
0040
0080
0100
0200
0400
0000
ENDCHAR
STARTCHAR 2556
ENCODING 9558
SWIDTH 960 0
DWIDTH 14 0
BBX 14 14 0 -2
BITMAP
0008
0024
23d4
1c50
0040
0080
0080
0100
0100
0200
0400
0800
1000
0000
ENDCHAR
STARTCHAR 2557
ENCODING 9559
SWIDTH 960 0
DWIDTH 14 0
BBX 14 14 0 -2
BITMAP
0018
0024
23e4
1c58
0040
0080
0080
0100
0100
0200
0400
0800
1000
0000
ENDCHAR
STARTCHAR 2558
ENCODING 9560
SWIDTH 960 0
DWIDTH 14 0
BBX 14 14 0 -2
BITMAP
0000
0000
0000
0000
0200
0500
4880
3040
0030
000c
0000
0000
0000
0000
ENDCHAR
STARTCHAR 2559
ENCODING 9561
SWIDTH 960 0
DWIDTH 14 0
BBX 14 14 0 -2
BITMAP
0000
0020
0090
0050
0240
0500
4880
3040
0030
000c
0000
0000
0000
0000
ENDCHAR
STARTCHAR 255a
ENCODING 9562
SWIDTH 960 0
DWIDTH 14 0
BBX 14 14 0 -2
BITMAP
0000
0060
0090
0090
0260
0500
4880
3040
0030
000c
0000
0000
0000
0000
ENDCHAR
STARTCHAR 255b
ENCODING 9563
SWIDTH 960 0
DWIDTH 14 0
BBX 14 14 0 -2
BITMAP
0000
0200
0100
0100
21f0
1f00
0100
0140
0920
0910
1110
2100
0300
0100
ENDCHAR
STARTCHAR 255c
ENCODING 9564
SWIDTH 960 0
DWIDTH 14 0
BBX 14 14 0 -2
BITMAP
0008
0224
0114
0110
21f0
1f00
0100
0140
0920
0910
1110
2100
0300
0100
ENDCHAR
STARTCHAR 255d
ENCODING 9565
SWIDTH 960 0
DWIDTH 14 0
BBX 14 14 0 -2
BITMAP
0018
0224
0124
0118
21f0
1f00
0100
0140
0920
0910
1110
2100
0300
0100
ENDCHAR
STARTCHAR 255e
ENCODING 9566
SWIDTH 960 0
DWIDTH 14 0
BBX 14 14 0 -2
BITMAP
0000
0000
0000
20f0
1f08
0010
0020
0040
0c80
0300
0080
0040
0000
0000
ENDCHAR
STARTCHAR 255f
ENCODING 9567
SWIDTH 960 0
DWIDTH 14 0
BBX 14 14 0 -2
BITMAP
0000
0400
0300
00c0
0020
0800
0600
0180
0040
1000
0c00
0300
00c0
0020
ENDCHAR
STARTCHAR 2560
ENCODING 9568
SWIDTH 960 0
DWIDTH 14 0
BBX 14 14 0 -2
BITMAP
0000
0200
0100
0100
0100
0200
0200
0240
0420
0430
29c8
1e08
0000
0000
ENDCHAR
STARTCHAR 2561
ENCODING 9569
SWIDTH 960 0
DWIDTH 14 0
BBX 14 14 0 -2
BITMAP
0000
0040
0020
0020
0020
0620
01c0
0040
00a0
0090
0100
0200
0c00
3000
ENDCHAR
STARTCHAR 2562
ENCODING 9570
SWIDTH 960 0
DWIDTH 14 0
BBX 14 14 0 -2
BITMAP
0000
0000
10e0
0f00
0200
0200
23f8
1e00
0200
0200
0200
01f0
0000
0000
ENDCHAR
STARTCHAR 2563
ENCODING 9571
SWIDTH 960 0
DWIDTH 14 0
BBX 14 14 0 -2
BITMAP
0000
0000
0000
0000
0000
0400
0270
0390
1e20
0140
0100
0080
0080
0080
ENDCHAR
STARTCHAR 2564
ENCODING 9572
SWIDTH 960 0
DWIDTH 14 0
BBX 14 14 0 -2
BITMAP
0000
0800
0400
0478
0388
2610
1a20
0140
0100
0100
0080
0080
0080
0000
ENDCHAR
STARTCHAR 2565
ENCODING 9573
SWIDTH 960 0
DWIDTH 14 0
BBX 14 14 0 -2
BITMAP
0000
0000
0000
0000
0000
0000
01c0
0e40
0040
0080
01e0
1e10
0000
0000
ENDCHAR
STARTCHAR 2566
ENCODING 9574
SWIDTH 960 0
DWIDTH 14 0
BBX 14 14 0 -2
BITMAP
0000
0000
0000
0000
11c0
0e40
0040
0080
0080
01f0
3e08
0000
0000
0000
ENDCHAR
STARTCHAR 2567
ENCODING 9575
SWIDTH 960 0
DWIDTH 14 0
BBX 14 14 0 -2
BITMAP
0000
0000
0000
0000
0000
01e0
0e20
0020
01e0
0e40
0040
01c0
0e20
0000
ENDCHAR
STARTCHAR 2568
ENCODING 9576
SWIDTH 960 0
DWIDTH 14 0
BBX 14 14 0 -2
BITMAP
0000
0000
01f0
1e10
0010
0010
01e0
0e20
0020
0020
0020
01e0
0e10
0000
ENDCHAR
STARTCHAR 2569
ENCODING 9577
SWIDTH 960 0
DWIDTH 14 0
BBX 14 14 0 -2
BITMAP
0000
0000
11c0
0e00
0070
2390
1c10
0010
0020
0020
0040
0080
0300
0c00
ENDCHAR
STARTCHAR 256a
ENCODING 9578
SWIDTH 960 0
DWIDTH 14 0
BBX 14 14 0 -2
BITMAP
0000
0040
0820
0420
0420
0420
0420
0420
0420
0040
0040
0080
0100
0200
ENDCHAR
STARTCHAR 256b
ENCODING 9579
SWIDTH 960 0
DWIDTH 14 0
BBX 14 14 0 -2
BITMAP
0000
0000
0100
0880
0480
0480
0488
0488
0490
0890
08a0
10c0
2080
0000
ENDCHAR
STARTCHAR 256c
ENCODING 9580
SWIDTH 960 0
DWIDTH 14 0
BBX 14 14 0 -2
BITMAP
0000
1000
0800
0800
0800
0800
0800
0810
0820
0840
0880
0b00
0c00
0000
ENDCHAR
STARTCHAR 256d
ENCODING 9581
SWIDTH 960 0
DWIDTH 14 0
BBX 14 14 0 -2
BITMAP
0000
0000
0000
21f0
1e10
1010
1010
0820
0820
09e0
0e10
0800
0000
0000
ENDCHAR
STARTCHAR 256e
ENCODING 9582
SWIDTH 960 0
DWIDTH 14 0
BBX 14 14 0 -2
BITMAP
0000
0000
0000
0000
0000
0000
10f0
0f10
0820
0420
0440
0040
0080
0100
ENDCHAR
STARTCHAR 256f
ENCODING 9583
SWIDTH 960 0
DWIDTH 14 0
BBX 14 14 0 -2
BITMAP
0000
0000
21f0
1e10
1010
0810
0820
0820
0040
0040
0080
0100
0200
0400
ENDCHAR
STARTCHAR 2570
ENCODING 9584
SWIDTH 960 0
DWIDTH 14 0
BBX 14 14 0 -2
BITMAP
0000
0100
0080
0080
01f0
1e80
0880
0480
05f0
3e88
0080
0080
0080
0080
ENDCHAR
STARTCHAR 2571
ENCODING 9585
SWIDTH 960 0
DWIDTH 14 0
BBX 14 14 0 -2
BITMAP
0000
0000
0000
01e0
1e20
0240
0180
0100
0100
01f0
3e08
0000
0000
0000
ENDCHAR
STARTCHAR 2572
ENCODING 9586
SWIDTH 960 0
DWIDTH 14 0
BBX 14 14 0 -2
BITMAP
0000
0000
01f0
1e10
0010
0020
01e0
0e20
0040
0040
0080
0100
0600
1800
ENDCHAR
STARTCHAR 2573
ENCODING 9587
SWIDTH 960 0
DWIDTH 14 0
BBX 14 14 0 -2
BITMAP
0000
0000
0000
1800
0408
0208
0010
0010
0020
0040
0080
1300
0c00
0000
ENDCHAR
STARTCHAR 2574
ENCODING 9588
SWIDTH 960 0
DWIDTH 14 0
BBX 14 14 0 -2
BITMAP
0008
0424
0214
0210
43e0
3c20
2020
1040
1040
0080
0080
0100
0200
0400
ENDCHAR
STARTCHAR 2575
ENCODING 9589
SWIDTH 960 0
DWIDTH 14 0
BBX 14 14 0 -2
BITMAP
0000
0000
0000
0000
0000
0200
0100
11e0
0e20
0220
0220
0420
08c0
1040
ENDCHAR
STARTCHAR 2576
ENCODING 9590
SWIDTH 960 0
DWIDTH 14 0
BBX 14 14 0 -2
BITMAP
0000
0000
0000
0000
0000
0800
0400
0460
0780
0880
1080
0100
0200
0400
ENDCHAR
STARTCHAR 2621
ENCODING 9761
SWIDTH 960 0
DWIDTH 14 0
BBX 14 14 0 -2
BITMAP
0000
0100
0100
0280
0280
0440
0440
0820
0fe0
1010
1010
3838
0000
0000
ENDCHAR
STARTCHAR 2622
ENCODING 9762
SWIDTH 960 0
DWIDTH 14 0
BBX 14 14 0 -2
BITMAP
0000
1f80
0860
0810
0810
0860
0fc0
0830
0808
0808
0830
1fc0
0000
0000
ENDCHAR
STARTCHAR 2623
ENCODING 9763
SWIDTH 960 0
DWIDTH 14 0
BBX 14 14 0 -2
BITMAP
0000
1fe0
0820
0810
0800
0800
0800
0800
0800
0800
0800
1c00
0000
0000
ENDCHAR
STARTCHAR 2624
ENCODING 9764
SWIDTH 960 0
DWIDTH 14 0
BBX 14 14 0 -2
BITMAP
0000
0100
0100
0280
0280
0440
0440
0820
0820
1010
1010
3ff8
0000
0000
ENDCHAR
STARTCHAR 2625
ENCODING 9765
SWIDTH 960 0
DWIDTH 14 0
BBX 14 14 0 -2
BITMAP
0000
3fc0
1040
1020
1000
1040
1fc0
1040
1000
1000
1020
3fe0
0000
0000
ENDCHAR
STARTCHAR 2626
ENCODING 9766
SWIDTH 960 0
DWIDTH 14 0
BBX 14 14 0 -2
BITMAP
0000
1ff0
1020
2040
0080
0100
0100
0200
0400
0808
1010
3ff0
0000
0000
ENDCHAR
STARTCHAR 2627
ENCODING 9767
SWIDTH 960 0
DWIDTH 14 0
BBX 14 14 0 -2
BITMAP
0000
3870
1020
1020
1020
1020
1fe0
1020
1020
1020
1020
3870
0000
0000
ENDCHAR
STARTCHAR 2628
ENCODING 9768
SWIDTH 960 0
DWIDTH 14 0
BBX 14 14 0 -2
BITMAP
0000
0380
0c60
1010
2008
2448
27c8
2448
2008
1010
0c60
0380
0000
0000
ENDCHAR
STARTCHAR 2629
ENCODING 9769
SWIDTH 960 0
DWIDTH 14 0
BBX 14 14 0 -2
BITMAP
0000
0700
0200
0200
0200
0200
0200
0200
0200
0200
0200
0700
0000
0000
ENDCHAR
STARTCHAR 262a
ENCODING 9770
SWIDTH 960 0
DWIDTH 14 0
BBX 14 14 0 -2
BITMAP
0000
38e0
1040
1080
1100
1600
1a00
1100
1080
1040
1020
3870
0000
0000
ENDCHAR
STARTCHAR 262b
ENCODING 9771
SWIDTH 960 0
DWIDTH 14 0
BBX 14 14 0 -2
BITMAP
0000
0100
0100
0280
0280
0440
0440
0820
0820
1010
1010
3838
0000
0000
ENDCHAR
STARTCHAR 262c
ENCODING 9772
SWIDTH 960 0
DWIDTH 14 0
BBX 14 14 0 -2
BITMAP
0000
6018
3030
3050
2850
2890
2490
2510
2210
2210
2010
7038
0000
0000
ENDCHAR
STARTCHAR 262d
ENCODING 9773
SWIDTH 960 0
DWIDTH 14 0
BBX 14 14 0 -2
BITMAP
0000
3070
1820
1820
1420
1220
1120
1120
10a0
1060
1060
3820
0000
0000
ENDCHAR
STARTCHAR 262e
ENCODING 9774
SWIDTH 960 0
DWIDTH 14 0
BBX 14 14 0 -2
BITMAP
0000
1ff0
1020
2020
0000
1020
1fe0
1020
0000
0000
1010
1020
3fe0
0000
ENDCHAR
STARTCHAR 262f
ENCODING 9775
SWIDTH 960 0
DWIDTH 14 0
BBX 14 14 0 -2
BITMAP
0000
0380
0c60
1010
2008
2008
2008
2008
2008
1010
0c60
0380
0000
0000
ENDCHAR
STARTCHAR 2630
ENCODING 9776
SWIDTH 960 0
DWIDTH 14 0
BBX 14 14 0 -2
BITMAP
0000
3ff0
1020
1020
1020
1020
1020
1020
1020
1020
1020
3870
0000
0000
ENDCHAR
STARTCHAR 2631
ENCODING 9777
SWIDTH 960 0
DWIDTH 14 0
BBX 14 14 0 -2
BITMAP
0000
3f00
10c0
1020
1020
10c0
1f00
1000
1000
1000
1000
3800
0000
0000
ENDCHAR
STARTCHAR 2632
ENCODING 9778
SWIDTH 960 0
DWIDTH 14 0
BBX 14 14 0 -2
BITMAP
0000
3fc0
1040
0820
0400
0200
0100
0100
0200
0410
0820
3fe0
0000
0000
ENDCHAR
STARTCHAR 2633
ENCODING 9779
SWIDTH 960 0
DWIDTH 14 0
BBX 14 14 0 -2
BITMAP
0000
3fe0
2220
4210
0200
0200
0200
0200
0200
0200
0200
0700
0000
0000
ENDCHAR
STARTCHAR 2634
ENCODING 9780
SWIDTH 960 0
DWIDTH 14 0
BBX 14 14 0 -2
BITMAP
0000
38e0
4510
4210
0200
0200
0200
0200
0200
0200
0200
0700
0000
0000
ENDCHAR
STARTCHAR 2635
ENCODING 9781
SWIDTH 960 0
DWIDTH 14 0
BBX 14 14 0 -2
BITMAP
0000
0380
0100
07c0
1930
2108
2108
2108
1930
07c0
0100
0380
0000
0000
ENDCHAR
STARTCHAR 2636
ENCODING 9782
SWIDTH 960 0
DWIDTH 14 0
BBX 14 14 0 -2
BITMAP
0000
3870
1020
0840
0480
0300
0100
0280
0440
0820
1010
3838
0000
0000
ENDCHAR
STARTCHAR 2637
ENCODING 9783
SWIDTH 960 0
DWIDTH 14 0
BBX 14 14 0 -2
BITMAP
0000
0700
4210
2220
1240
1240
1240
0a80
0700
0200
0200
0700
0000
0000
ENDCHAR
STARTCHAR 2638
ENCODING 9784
SWIDTH 960 0
DWIDTH 14 0
BBX 14 14 0 -2
BITMAP
0000
0300
0cc0
1020
2010
2010
2010
1020
0840
0480
2490
3cf0
0000
0000
ENDCHAR
STARTCHAR 2641
ENCODING 9793
SWIDTH 960 0
DWIDTH 14 0
BBX 14 14 0 -2
BITMAP
0000
0000
0000
0020
0320
04a0
0840
1040
1040
10c0
0940
0630
0000
0000
ENDCHAR
STARTCHAR 2642
ENCODING 9794
SWIDTH 960 0
DWIDTH 14 0
BBX 14 14 0 -2
BITMAP
0000
00e0
0110
0210
0210
0420
05c0
0420
0420
0820
0c40
0b80
1000
1000
ENDCHAR
STARTCHAR 2643
ENCODING 9795
SWIDTH 960 0
DWIDTH 14 0
BBX 14 14 0 -2
BITMAP
0000
0000
0000
0000
0630
0940
0180
0100
0100
0200
0200
0200
0200
0000
ENDCHAR
STARTCHAR 2644
ENCODING 9796
SWIDTH 960 0
DWIDTH 14 0
BBX 14 14 0 -2
BITMAP
0000
0380
0460
0410
0200
0380
0440
0840
0840
0880
0900
0600
0000
0000
ENDCHAR
STARTCHAR 2645
ENCODING 9797
SWIDTH 960 0
DWIDTH 14 0
BBX 14 14 0 -2
BITMAP
0000
0000
0000
0000
0380
0440
0400
0380
0400
0800
0840
0780
0000
0000
ENDCHAR
STARTCHAR 2646
ENCODING 9798
SWIDTH 960 0
DWIDTH 14 0
BBX 14 14 0 -2
BITMAP
0000
0400
08c0
0700
0200
0400
0400
0800
0800
0600
0180
0040
0640
0380
ENDCHAR
STARTCHAR 2647
ENCODING 9799
SWIDTH 960 0
DWIDTH 14 0
BBX 14 14 0 -2
BITMAP
0000
0000
0000
0000
0cc0
1320
0220
0420
0420
0440
0840
0880
0080
0080
ENDCHAR
STARTCHAR 2648
ENCODING 9800
SWIDTH 960 0
DWIDTH 14 0
BBX 14 14 0 -2
BITMAP
0000
00e0
0110
0210
0410
0420
0fe0
0820
0840
0840
0880
0700
0000
0000
ENDCHAR
STARTCHAR 2649
ENCODING 9801
SWIDTH 960 0
DWIDTH 14 0
BBX 14 14 0 -2
BITMAP
0000
0000
0000
0000
0100
0200
0200
0400
0400
0400
0480
0300
0000
0000
ENDCHAR
STARTCHAR 264a
ENCODING 9802
SWIDTH 960 0
DWIDTH 14 0
BBX 14 14 0 -2
BITMAP
0000
0000
0000
0000
0430
04c0
0500
0e00
0900
0900
1120
10c0
0000
0000
ENDCHAR
STARTCHAR 264b
ENCODING 9803
SWIDTH 960 0
DWIDTH 14 0
BBX 14 14 0 -2
BITMAP
0000
0380
0040
0040
00c0
0140
0140
0240
0440
0440
0840
0830
0000
0000
ENDCHAR
STARTCHAR 264c
ENCODING 9804
SWIDTH 960 0
DWIDTH 14 0
BBX 14 14 0 -2
BITMAP
0000
0000
0000
0000
0420
0420
0440
0440
0840
0840
0cc8
0b30
1000
1000
ENDCHAR
STARTCHAR 264d
ENCODING 9805
SWIDTH 960 0
DWIDTH 14 0
BBX 14 14 0 -2
BITMAP
0000
0000
0000
0000
0820
0420
0440
0440
0480
0500
0600
0800
0000
0000
ENDCHAR
STARTCHAR 264e
ENCODING 9806
SWIDTH 960 0
DWIDTH 14 0
BBX 14 14 0 -2
BITMAP
0300
0460
0380
0200
0400
0400
0380
0440
0800
0800
0600
0180
0040
0780
ENDCHAR
STARTCHAR 264f
ENCODING 9807
SWIDTH 960 0
DWIDTH 14 0
BBX 14 14 0 -2
BITMAP
0000
0000
0000
0000
00c0
0320
0410
0810
0820
0820
04c0
0300
0000
0000
ENDCHAR
STARTCHAR 2650
ENCODING 9808
SWIDTH 960 0
DWIDTH 14 0
BBX 14 14 0 -2
BITMAP
0000
0000
0000
0c08
13f0
2240
0440
0480
0880
0880
0880
3060
0000
0000
ENDCHAR
STARTCHAR 2651
ENCODING 9809
SWIDTH 960 0
DWIDTH 14 0
BBX 14 14 0 -2
BITMAP
0000
0000
0000
0000
00e0
0110
0210
0410
0420
0c20
0c40
0b80
1000
1000
ENDCHAR
STARTCHAR 2652
ENCODING 9810
SWIDTH 960 0
DWIDTH 14 0
BBX 14 14 0 -2
BITMAP
0000
0000
0000
0000
01f0
0680
0840
1040
1040
1080
1100
0e00
0000
0000
ENDCHAR
STARTCHAR 2653
ENCODING 9811
SWIDTH 960 0
DWIDTH 14 0
BBX 14 14 0 -2
BITMAP
0000
0000
0000
0000
0630
09c0
1100
0200
0200
0400
0480
0300
0000
0000
ENDCHAR
STARTCHAR 2654
ENCODING 9812
SWIDTH 960 0
DWIDTH 14 0
BBX 14 14 0 -2
BITMAP
0000
0000
0000
0000
0440
0420
0820
0820
0840
0840
0880
0700
0000
0000
ENDCHAR
STARTCHAR 2655
ENCODING 9813
SWIDTH 960 0
DWIDTH 14 0
BBX 14 14 0 -2
BITMAP
0000
0080
0080
0080
0380
0d40
1120
1120
1220
1240
0a80
0700
0400
0400
ENDCHAR
STARTCHAR 2656
ENCODING 9814
SWIDTH 960 0
DWIDTH 14 0
BBX 14 14 0 -2
BITMAP
0000
0610
0910
0120
0140
0180
0100
0300
0500
0500
0900
1100
2120
20c0
ENDCHAR
STARTCHAR 2657
ENCODING 9815
SWIDTH 960 0
DWIDTH 14 0
BBX 14 14 0 -2
BITMAP
0000
0080
0080
0080
30a0
4910
0910
0910
1220
1240
1380
0e00
0400
0400
ENDCHAR
STARTCHAR 2658
ENCODING 9816
SWIDTH 960 0
DWIDTH 14 0
BBX 14 14 0 -2
BITMAP
0000
0000
0000
0000
0820
1010
1110
2210
2220
2220
2640
1980
0000
0000
ENDCHAR
STARTCHAR 2721
ENCODING 10017
SWIDTH 960 0
DWIDTH 14 0
BBX 14 14 0 -2
BITMAP
0000
0100
0100
0280
0280
0440
0440
0820
0fe0
1010
1010
3838
0000
0000
ENDCHAR
STARTCHAR 2722
ENCODING 10018
SWIDTH 960 0
DWIDTH 14 0
BBX 14 14 0 -2
BITMAP
0000
1fe0
0820
0810
0800
0800
0fc0
0830
0808
0808
0830
1fc0
0000
0000
ENDCHAR
STARTCHAR 2723
ENCODING 10019
SWIDTH 960 0
DWIDTH 14 0
BBX 14 14 0 -2
BITMAP
0000
1f80
0860
0810
0810
0860
0fc0
0830
0808
0808
0830
1fc0
0000
0000
ENDCHAR
STARTCHAR 2724
ENCODING 10020
SWIDTH 960 0
DWIDTH 14 0
BBX 14 14 0 -2
BITMAP
0000
1fe0
0820
0810
0800
0800
0800
0800
0800
0800
0800
1c00
0000
0000
ENDCHAR
STARTCHAR 2725
ENCODING 10021
SWIDTH 960 0
DWIDTH 14 0
BBX 14 14 0 -2
BITMAP
0000
0ff0
0420
0420
0420
0420
0420
0420
0420
0820
0820
3ff8
2008
2008
ENDCHAR
STARTCHAR 2726
ENCODING 10022
SWIDTH 960 0
DWIDTH 14 0
BBX 14 14 0 -2
BITMAP
0000
3fc0
1040
1020
1000
1040
1fc0
1040
1000
1000
1020
3fe0
0000
0000
ENDCHAR
STARTCHAR 2727
ENCODING 10023
SWIDTH 960 0
DWIDTH 14 0
BBX 14 14 0 -2
BITMAP
0900
0900
3fc0
1020
1000
1080
1f80
1080
1000
1000
1020
3fe0
0000
0000
ENDCHAR
STARTCHAR 2728
ENCODING 10024
SWIDTH 960 0
DWIDTH 14 0
BBX 14 14 0 -2
BITMAP
0000
3398
2928
0920
0920
0920
07c0
0540
0920
1110
1110
3398
0000
0000
ENDCHAR
STARTCHAR 2729
ENCODING 10025
SWIDTH 960 0
DWIDTH 14 0
BBX 14 14 0 -2
BITMAP
0000
0380
0c60
1010
0010
0060
03c0
0060
0010
1010
0c60
0380
0000
0000
ENDCHAR
STARTCHAR 272a
ENCODING 10026
SWIDTH 960 0
DWIDTH 14 0
BBX 14 14 0 -2
BITMAP
0000
3830
1060
1060
10a0
1120
1220
1220
1420
1820
1820
1070
0000
0000
ENDCHAR
STARTCHAR 272b
ENCODING 10027
SWIDTH 960 0
DWIDTH 14 0
BBX 14 14 0 -2
BITMAP
0480
0300
3830
1060
10a0
10a0
1120
1220
1420
1820
1820
1070
0000
0000
ENDCHAR
STARTCHAR 272c
ENCODING 10028
SWIDTH 960 0
DWIDTH 14 0
BBX 14 14 0 -2
BITMAP
0000
3860
1090
1100
1200
1600
1a00
1100
1080
1040
1020
3870
0000
0000
ENDCHAR
STARTCHAR 272d
ENCODING 10029
SWIDTH 960 0
DWIDTH 14 0
BBX 14 14 0 -2
BITMAP
0000
03f8
0210
0210
0210
0210
0210
0210
0210
2410
2410
1838
0000
0000
ENDCHAR
STARTCHAR 272e
ENCODING 10030
SWIDTH 960 0
DWIDTH 14 0
BBX 14 14 0 -2
BITMAP
0000
3030
1020
1860
18a0
14a0
1520
2310
2210
2210
2010
7038
0000
0000
ENDCHAR
STARTCHAR 272f
ENCODING 10031
SWIDTH 960 0
DWIDTH 14 0
BBX 14 14 0 -2
BITMAP
0000
3870
1020
1020
1020
1020
1fe0
1020
1020
1020
1020
3870
0000
0000
ENDCHAR
STARTCHAR 2730
ENCODING 10032
SWIDTH 960 0
DWIDTH 14 0
BBX 14 14 0 -2
BITMAP
0000
0380
0c60
1010
2008
2008
2008
2008
2008
1010
0c60
0380
0000
0000
ENDCHAR
STARTCHAR 2731
ENCODING 10033
SWIDTH 960 0
DWIDTH 14 0
BBX 14 14 0 -2
BITMAP
0000
3ff0
1020
1020
1020
1020
1020
1020
1020
1020
1020
3870
0000
0000
ENDCHAR
STARTCHAR 2732
ENCODING 10034
SWIDTH 960 0
DWIDTH 14 0
BBX 14 14 0 -2
BITMAP
0000
3f00
10c0
1020
1020
10c0
1f00
1000
1000
1000
1000
3800
0000
0000
ENDCHAR
STARTCHAR 2733
ENCODING 10035
SWIDTH 960 0
DWIDTH 14 0
BBX 14 14 0 -2
BITMAP
0000
03d0
0c30
1010
2000
2000
2000
2000
2000
1010
0c20
03c0
0000
0000
ENDCHAR
STARTCHAR 2734
ENCODING 10036
SWIDTH 960 0
DWIDTH 14 0
BBX 14 14 0 -2
BITMAP
0000
3fe0
2220
4210
0200
0200
0200
0200
0200
0200
0200
0700
0000
0000
ENDCHAR
STARTCHAR 2735
ENCODING 10037
SWIDTH 960 0
DWIDTH 14 0
BBX 14 14 0 -2
BITMAP
0000
3838
1010
0810
0820
0420
0240
0240
0180
0080
0100
0100
0200
0c00
ENDCHAR
STARTCHAR 2736
ENCODING 10038
SWIDTH 960 0
DWIDTH 14 0
BBX 14 14 0 -2
BITMAP
0000
0380
0100
07c0
1930
2108
2108
2108
1930
07c0
0100
0380
0000
0000
ENDCHAR
STARTCHAR 2737
ENCODING 10039
SWIDTH 960 0
DWIDTH 14 0
BBX 14 14 0 -2
BITMAP
0000
3870
1020
0840
0480
0300
0100
0280
0440
0820
1010
3838
0000
0000
ENDCHAR
STARTCHAR 2738
ENCODING 10040
SWIDTH 960 0
DWIDTH 14 0
BBX 14 14 0 -2
BITMAP
0000
3870
1020
1020
1020
1020
1020
1020
1020
1020
1020
3ff8
0008
0008
ENDCHAR
STARTCHAR 2739
ENCODING 10041
SWIDTH 960 0
DWIDTH 14 0
BBX 14 14 0 -2
BITMAP
0000
3870
1020
1020
1020
1020
1060
08a0
0720
0020
0020
0070
0000
0000
ENDCHAR
STARTCHAR 273a
ENCODING 10042
SWIDTH 960 0
DWIDTH 14 0
BBX 14 14 0 -2
BITMAP
0000
3bb8
1110
1110
1110
1110
1110
1110
1110
1110
1110
3ff8
0000
0000
ENDCHAR
STARTCHAR 273b
ENCODING 10043
SWIDTH 960 0
DWIDTH 14 0
BBX 14 14 0 -2
BITMAP
0000
3bb8
1110
1110
1110
1110
1110
1110
1110
1110
1110
3ff8
0008
0008
ENDCHAR
STARTCHAR 273c
ENCODING 10044
SWIDTH 960 0
DWIDTH 14 0
BBX 14 14 0 -2
BITMAP
0000
1f00
1200
2200
0200
03c0
0230
0208
0208
0208
0230
07c0
0000
0000
ENDCHAR
STARTCHAR 273d
ENCODING 10045
SWIDTH 960 0
DWIDTH 14 0
BBX 14 14 0 -2
BITMAP
0000
3870
1020
1020
1020
1e20
1120
10a0
10a0
10a0
1320
3c70
0000
0000
ENDCHAR
STARTCHAR 273e
ENCODING 10046
SWIDTH 960 0
DWIDTH 14 0
BBX 14 14 0 -2
BITMAP
0000
0e00
0400
0400
0400
0780
0460
0410
0410
0410
0460
0f80
0000
0000
ENDCHAR
STARTCHAR 273f
ENCODING 10047
SWIDTH 960 0
DWIDTH 14 0
BBX 14 14 0 -2
BITMAP
0000
0380
0c60
1010
0010
0608
0938
00c8
0010
1010
0c60
0380
0000
0000
ENDCHAR
STARTCHAR 2740
ENCODING 10048
SWIDTH 960 0
DWIDTH 14 0
BBX 14 14 0 -2
BITMAP
0000
38e0
1110
1110
1208
1208
1e08
1208
1208
1110
1110
38e0
0000
0000
ENDCHAR
STARTCHAR 2741
ENCODING 10049
SWIDTH 960 0
DWIDTH 14 0
BBX 14 14 0 -2
BITMAP
0000
03f0
0c20
1020
1020
0c20
03e0
0420
0820
0820
1020
3870
0000
0000
ENDCHAR
STARTCHAR 2751
ENCODING 10065
SWIDTH 960 0
DWIDTH 14 0
BBX 14 14 0 -2
BITMAP
0000
0000
0000
0000
0780
0840
0840
03c0
0c40
1040
10c0
0f20
0000
0000
ENDCHAR
STARTCHAR 2752
ENCODING 10066
SWIDTH 960 0
DWIDTH 14 0
BBX 14 14 0 -2
BITMAP
0010
00e0
0300
0400
0580
0e60
0810
0810
0810
0810
0660
0180
0000
0000
ENDCHAR
STARTCHAR 2753
ENCODING 10067
SWIDTH 960 0
DWIDTH 14 0
BBX 14 14 0 -2
BITMAP
0000
0000
0000
0000
0fc0
0420
0420
07c0
0420
0410
0410
0fe0
0000
0000
ENDCHAR
STARTCHAR 2754
ENCODING 10068
SWIDTH 960 0
DWIDTH 14 0
BBX 14 14 0 -2
BITMAP
0000
0000
0000
0000
1fc0
0840
0820
0800
0800
0800
0800
1c00
0000
0000
ENDCHAR
STARTCHAR 2755
ENCODING 10069
SWIDTH 960 0
DWIDTH 14 0
BBX 14 14 0 -2
BITMAP
0000
0000
0000
0000
07f0
0420
0420
0420
0420
0420
0820
3fe0
2020
2020
ENDCHAR
STARTCHAR 2756
ENCODING 10070
SWIDTH 960 0
DWIDTH 14 0
BBX 14 14 0 -2
BITMAP
0000
0000
0000
0000
0780
0840
1020
1fe0
1000
1020
0c40
0380
0000
0000
ENDCHAR
STARTCHAR 2757
ENCODING 10071
SWIDTH 960 0
DWIDTH 14 0
BBX 14 14 0 -2
BITMAP
0000
0480
0480
0000
0780
0840
1020
1fe0
1000
1020
0c40
0380
0000
0000
ENDCHAR
STARTCHAR 2758
ENCODING 10072
SWIDTH 960 0
DWIDTH 14 0
BBX 14 14 0 -2
BITMAP
0000
0000
0000
0000
3398
0920
0540
0380
0540
0920
0920
3398
0000
0000
ENDCHAR
STARTCHAR 2759
ENCODING 10073
SWIDTH 960 0
DWIDTH 14 0
BBX 14 14 0 -2
BITMAP
0000
0000
0000
0000
0780
0860
1020
03c0
0060
1020
0840
0780
0000
0000
ENDCHAR
STARTCHAR 275a
ENCODING 10074
SWIDTH 960 0
DWIDTH 14 0
BBX 14 14 0 -2
BITMAP
0000
0000
0000
0000
3870
1060
10a0
1120
1220
1420
1820
3870
0000
0000
ENDCHAR
STARTCHAR 275b
ENCODING 10075
SWIDTH 960 0
DWIDTH 14 0
BBX 14 14 0 -2
BITMAP
0000
0000
0480
0300
3870
1060
10a0
1120
1220
1420
1820
3870
0000
0000
ENDCHAR
STARTCHAR 275c
ENCODING 10076
SWIDTH 960 0
DWIDTH 14 0
BBX 14 14 0 -2
BITMAP
0000
0000
0000
0000
1c60
08a0
0900
0f00
0880
0840
0820
1c70
0000
0000
ENDCHAR
STARTCHAR 275d
ENCODING 10077
SWIDTH 960 0
DWIDTH 14 0
BBX 14 14 0 -2
BITMAP
0000
0000
0000
0000
07f0
0220
0220
0220
0220
2420
2420
1870
0000
0000
ENDCHAR
STARTCHAR 275e
ENCODING 10078
SWIDTH 960 0
DWIDTH 14 0
BBX 14 14 0 -2
BITMAP
0000
0000
0000
0000
3838
1830
1450
1450
1290
1290
1110
3838
0000
0000
ENDCHAR
STARTCHAR 275f
ENCODING 10079
SWIDTH 960 0
DWIDTH 14 0
BBX 14 14 0 -2
BITMAP
0000
0000
0000
0000
1c70
0820
0820
0fe0
0820
0820
0820
1c70
0000
0000
ENDCHAR
STARTCHAR 2760
ENCODING 10080
SWIDTH 960 0
DWIDTH 14 0
BBX 14 14 0 -2
BITMAP
0000
0000
0000
0000
0780
0840
1020
1020
1020
1020
0840
0780
0000
0000
ENDCHAR
STARTCHAR 2761
ENCODING 10081
SWIDTH 960 0
DWIDTH 14 0
BBX 14 14 0 -2
BITMAP
0000
0000
0000
0000
1ff0
0820
0820
0820
0820
0820
0820
1c70
0000
0000
ENDCHAR
STARTCHAR 2762
ENCODING 10082
SWIDTH 960 0
DWIDTH 14 0
BBX 14 14 0 -2
BITMAP
0000
0000
0000
0000
0b80
0c40
0820
0820
0820
0820
0c40
0b80
0800
1c00
ENDCHAR
STARTCHAR 2763
ENCODING 10083
SWIDTH 960 0
DWIDTH 14 0
BBX 14 14 0 -2
BITMAP
0000
0000
0000
0000
0780
0840
1020
1000
1000
1020
0840
0780
0000
0000
ENDCHAR
STARTCHAR 2764
ENCODING 10084
SWIDTH 960 0
DWIDTH 14 0
BBX 14 14 0 -2
BITMAP
0000
0000
0000
0000
0fe0
0920
1110
0100
0100
0100
0100
0380
0000
0000
ENDCHAR
STARTCHAR 2765
ENCODING 10085
SWIDTH 960 0
DWIDTH 14 0
BBX 14 14 0 -2
BITMAP
0000
0000
0000
0000
1c70
0820
0420
0440
0240
0280
0180
0100
0200
0c00
ENDCHAR
STARTCHAR 2766
ENCODING 10086
SWIDTH 960 0
DWIDTH 14 0
BBX 14 14 0 -2
BITMAP
0000
0380
0100
0100
0d60
1390
2108
2108
2108
2108
1390
0d60
0100
0380
ENDCHAR
STARTCHAR 2767
ENCODING 10087
SWIDTH 960 0
DWIDTH 14 0
BBX 14 14 0 -2
BITMAP
0000
0000
0000
0000
1860
0840
0480
0300
0300
0480
0840
1860
0000
0000
ENDCHAR
STARTCHAR 2768
ENCODING 10088
SWIDTH 960 0
DWIDTH 14 0
BBX 14 14 0 -2
BITMAP
0000
0000
0000
0000
1c70
0820
0820
0820
0820
0820
0820
1ff0
0010
0010
ENDCHAR
STARTCHAR 2769
ENCODING 10089
SWIDTH 960 0
DWIDTH 14 0
BBX 14 14 0 -2
BITMAP
0000
0000
0000
0000
1c70
0820
0820
0860
07a0
0020
0020
0070
0000
0000
ENDCHAR
STARTCHAR 276a
ENCODING 10090
SWIDTH 960 0
DWIDTH 14 0
BBX 14 14 0 -2
BITMAP
0000
0000
0000
0000
3bb8
1110
1110
1110
1110
1110
1110
1ff8
0000
0000
ENDCHAR
STARTCHAR 276b
ENCODING 10091
SWIDTH 960 0
DWIDTH 14 0
BBX 14 14 0 -2
BITMAP
0000
0000
0000
0000
3bb8
1110
1110
1110
1110
1110
1110
1ff8
0008
0008
ENDCHAR
STARTCHAR 276c
ENCODING 10092
SWIDTH 960 0
DWIDTH 14 0
BBX 14 14 0 -2
BITMAP
0000
0000
0000
0000
1f00
1200
2200
03c0
0230
0210
0230
07c0
0000
0000
ENDCHAR
STARTCHAR 276d
ENCODING 10093
SWIDTH 960 0
DWIDTH 14 0
BBX 14 14 0 -2
BITMAP
0000
0000
0000
0000
1c70
0820
0820
0e20
09a0
08a0
09a0
1e70
0000
0000
ENDCHAR
STARTCHAR 276e
ENCODING 10094
SWIDTH 960 0
DWIDTH 14 0
BBX 14 14 0 -2
BITMAP
0000
0000
0000
0000
0e00
0400
0400
0780
0460
0420
0460
0f80
0000
0000
ENDCHAR
STARTCHAR 276f
ENCODING 10095
SWIDTH 960 0
DWIDTH 14 0
BBX 14 14 0 -2
BITMAP
0000
0000
0000
0000
0780
0860
1020
0370
0490
1020
0840
0780
0000
0000
ENDCHAR
STARTCHAR 2770
ENCODING 10096
SWIDTH 960 0
DWIDTH 14 0
BBX 14 14 0 -2
BITMAP
0000
0000
0000
0000
38c0
1120
1210
1e10
1210
1210
1120
38c0
0000
0000
ENDCHAR
STARTCHAR 2771
ENCODING 10097
SWIDTH 960 0
DWIDTH 14 0
BBX 14 14 0 -2
BITMAP
0000
0000
0000
0000
07e0
0840
0840
0840
07c0
0440
0840
1ce0
0000
0000
ENDCHAR
STARTCHAR 2821
ENCODING 10273
SWIDTH 960 0
DWIDTH 14 0
BBX 14 14 0 -2
BITMAP
0000
0000
0000
0000
0000
0000
0000
fffc
0000
0000
0000
0000
0000
0000
ENDCHAR
STARTCHAR 2822
ENCODING 10274
SWIDTH 960 0
DWIDTH 14 0
BBX 14 14 0 -2
BITMAP
0100
0100
0100
0100
0100
0100
0100
0100
0100
0100
0100
0100
0100
0100
ENDCHAR
STARTCHAR 2823
ENCODING 10275
SWIDTH 960 0
DWIDTH 14 0
BBX 14 14 0 -2
BITMAP
0000
0000
0000
0000
0000
0000
0000
01fc
0100
0100
0100
0100
0100
0100
ENDCHAR
STARTCHAR 2824
ENCODING 10276
SWIDTH 960 0
DWIDTH 14 0
BBX 14 14 0 -2
BITMAP
0000
0000
0000
0000
0000
0000
0000
ff00
0100
0100
0100
0100
0100
0100
ENDCHAR
STARTCHAR 2825
ENCODING 10277
SWIDTH 960 0
DWIDTH 14 0
BBX 14 14 0 -2
BITMAP
0100
0100
0100
0100
0100
0100
0100
ff00
0000
0000
0000
0000
0000
0000
ENDCHAR
STARTCHAR 2826
ENCODING 10278
SWIDTH 960 0
DWIDTH 14 0
BBX 14 14 0 -2
BITMAP
0100
0100
0100
0100
0100
0100
0100
01fc
0000
0000
0000
0000
0000
0000
ENDCHAR
STARTCHAR 2827
ENCODING 10279
SWIDTH 960 0
DWIDTH 14 0
BBX 14 14 0 -2
BITMAP
0100
0100
0100
0100
0100
0100
0100
01fc
0100
0100
0100
0100
0100
0100
ENDCHAR
STARTCHAR 2828
ENCODING 10280
SWIDTH 960 0
DWIDTH 14 0
BBX 14 14 0 -2
BITMAP
0000
0000
0000
0000
0000
0000
0000
fffc
0100
0100
0100
0100
0100
0100
ENDCHAR
STARTCHAR 2829
ENCODING 10281
SWIDTH 960 0
DWIDTH 14 0
BBX 14 14 0 -2
BITMAP
0100
0100
0100
0100
0100
0100
0100
ff00
0100
0100
0100
0100
0100
0100
ENDCHAR
STARTCHAR 282a
ENCODING 10282
SWIDTH 960 0
DWIDTH 14 0
BBX 14 14 0 -2
BITMAP
0100
0100
0100
0100
0100
0100
0100
fffc
0000
0000
0000
0000
0000
0000
ENDCHAR
STARTCHAR 282b
ENCODING 10283
SWIDTH 960 0
DWIDTH 14 0
BBX 14 14 0 -2
BITMAP
0100
0100
0100
0100
0100
0100
0100
fffc
0100
0100
0100
0100
0100
0100
ENDCHAR
STARTCHAR 282c
ENCODING 10284
SWIDTH 960 0
DWIDTH 14 0
BBX 14 14 0 -2
BITMAP
0000
0000
0000
0000
0000
0000
fffc
fffc
0000
0000
0000
0000
0000
0000
ENDCHAR
STARTCHAR 282d
ENCODING 10285
SWIDTH 960 0
DWIDTH 14 0
BBX 14 14 0 -2
BITMAP
0300
0300
0300
0300
0300
0300
0300
0300
0300
0300
0300
0300
0300
0300
ENDCHAR
STARTCHAR 282e
ENCODING 10286
SWIDTH 960 0
DWIDTH 14 0
BBX 14 14 0 -2
BITMAP
0000
0000
0000
0000
0000
0000
03fc
03fc
0300
0300
0300
0300
0300
0300
ENDCHAR
STARTCHAR 282f
ENCODING 10287
SWIDTH 960 0
DWIDTH 14 0
BBX 14 14 0 -2
BITMAP
0000
0000
0000
0000
0000
0000
ff00
ff00
0300
0300
0300
0300
0300
0300
ENDCHAR
STARTCHAR 2830
ENCODING 10288
SWIDTH 960 0
DWIDTH 14 0
BBX 14 14 0 -2
BITMAP
0300
0300
0300
0300
0300
0300
ff00
ff00
0000
0000
0000
0000
0000
0000
ENDCHAR
STARTCHAR 2831
ENCODING 10289
SWIDTH 960 0
DWIDTH 14 0
BBX 14 14 0 -2
BITMAP
0300
0300
0300
0300
0300
0300
03fc
03fc
0000
0000
0000
0000
0000
0000
ENDCHAR
STARTCHAR 2832
ENCODING 10290
SWIDTH 960 0
DWIDTH 14 0
BBX 14 14 0 -2
BITMAP
0300
0300
0300
0300
0300
0300
03fc
03fc
0300
0300
0300
0300
0300
0300
ENDCHAR
STARTCHAR 2833
ENCODING 10291
SWIDTH 960 0
DWIDTH 14 0
BBX 14 14 0 -2
BITMAP
0000
0000
0000
0000
0000
0000
fffc
fffc
0300
0300
0300
0300
0300
0300
ENDCHAR
STARTCHAR 2834
ENCODING 10292
SWIDTH 960 0
DWIDTH 14 0
BBX 14 14 0 -2
BITMAP
0300
0300
0300
0300
0300
0300
ff00
ff00
0300
0300
0300
0300
0300
0300
ENDCHAR
STARTCHAR 2835
ENCODING 10293
SWIDTH 960 0
DWIDTH 14 0
BBX 14 14 0 -2
BITMAP
0300
0300
0300
0300
0300
0300
fffc
fffc
0000
0000
0000
0000
0000
0000
ENDCHAR
STARTCHAR 2836
ENCODING 10294
SWIDTH 960 0
DWIDTH 14 0
BBX 14 14 0 -2
BITMAP
0300
0300
0300
0300
0300
0300
fffc
fffc
0300
0300
0300
0300
0300
0300
ENDCHAR
STARTCHAR 2837
ENCODING 10295
SWIDTH 960 0
DWIDTH 14 0
BBX 14 14 0 -2
BITMAP
0300
0300
0300
0300
0300
0300
0300
03fc
0300
0300
0300
0300
0300
0300
ENDCHAR
STARTCHAR 2838
ENCODING 10296
SWIDTH 960 0
DWIDTH 14 0
BBX 14 14 0 -2
BITMAP
0000
0000
0000
0000
0000
0000
fffc
fffc
0100
0100
0100
0100
0100
0100
ENDCHAR
STARTCHAR 2839
ENCODING 10297
SWIDTH 960 0
DWIDTH 14 0
BBX 14 14 0 -2
BITMAP
0300
0300
0300
0300
0300
0300
0300
ff00
0300
0300
0300
0300
0300
0300
ENDCHAR
STARTCHAR 283a
ENCODING 10298
SWIDTH 960 0
DWIDTH 14 0
BBX 14 14 0 -2
BITMAP
0100
0100
0100
0100
0100
0100
fffc
fffc
0000
0000
0000
0000
0000
0000
ENDCHAR
STARTCHAR 283b
ENCODING 10299
SWIDTH 960 0
DWIDTH 14 0
BBX 14 14 0 -2
BITMAP
0100
0100
0100
0100
0100
0100
fffc
fffc
0100
0100
0100
0100
0100
0100
ENDCHAR
STARTCHAR 283c
ENCODING 10300
SWIDTH 960 0
DWIDTH 14 0
BBX 14 14 0 -2
BITMAP
0100
0100
0100
0100
0100
0100
01fc
01fc
0100
0100
0100
0100
0100
0100
ENDCHAR
STARTCHAR 283d
ENCODING 10301
SWIDTH 960 0
DWIDTH 14 0
BBX 14 14 0 -2
BITMAP
0000
0000
0000
0000
0000
0000
0000
fffc
0300
0300
0300
0300
0300
0300
ENDCHAR
STARTCHAR 283e
ENCODING 10302
SWIDTH 960 0
DWIDTH 14 0
BBX 14 14 0 -2
BITMAP
0100
0100
0100
0100
0100
0100
ff00
ff00
0100
0100
0100
0100
0100
0100
ENDCHAR
STARTCHAR 283f
ENCODING 10303
SWIDTH 960 0
DWIDTH 14 0
BBX 14 14 0 -2
BITMAP
0300
0300
0300
0300
0300
0300
0300
fffc
0000
0000
0000
0000
0000
0000
ENDCHAR
STARTCHAR 2840
ENCODING 10304
SWIDTH 960 0
DWIDTH 14 0
BBX 14 14 0 -2
BITMAP
0300
0300
0300
0300
0300
0300
0300
fffc
0300
0300
0300
0300
0300
0300
ENDCHAR
STARTCHAR 3021
ENCODING 12321
SWIDTH 960 0
DWIDTH 14 0
BBX 14 14 0 -2
BITMAP
0000
7ff8
0480
0480
3ff0
2490
2490
2490
3ff0
2490
0480
0480
7ff8
0000
ENDCHAR
STARTCHAR 3022
ENCODING 12322
SWIDTH 960 0
DWIDTH 14 0
BBX 14 14 0 -2
BITMAP
0000
07fc
78a0
48a0
4bf8
4aa8
4aa8
4aa8
4bf8
7aa8
48a0
40a0
0ffc
0000
ENDCHAR
STARTCHAR 3023
ENCODING 12323
SWIDTH 960 0
DWIDTH 14 0
BBX 14 14 0 -2
BITMAP
0820
0820
0820
08f8
7e20
1220
13fc
1220
3c20
24f8
0620
0a20
11fc
2000
ENDCHAR
STARTCHAR 3024
ENCODING 12324
SWIDTH 960 0
DWIDTH 14 0
BBX 14 14 0 -2
BITMAP
0000
3ffc
2408
2808
31e8
2928
2528
2528
25e8
2528
3808
2008
2008
2018
ENDCHAR
STARTCHAR 3025
ENCODING 12325
SWIDTH 960 0
DWIDTH 14 0
BBX 14 14 0 -2
BITMAP
0100
0100
7ffc
0000
0fe0
0820
0820
0fe8
0308
0c90
74a0
0440
0730
380c
ENDCHAR
STARTCHAR 3026
ENCODING 12326
SWIDTH 960 0
DWIDTH 14 0
BBX 14 14 0 -2
BITMAP
0030
3fd0
1210
0920
3ffc
2588
5450
13c8
2208
07e0
3a40
0180
06e0
781c
ENDCHAR
STARTCHAR 3027
ENCODING 12327
SWIDTH 960 0
DWIDTH 14 0
BBX 14 14 0 -2
BITMAP
1080
10a0
1090
7938
17c8
1100
11f8
1a40
7440
17fc
1040
10a0
1310
3c0c
ENDCHAR
STARTCHAR 3028
ENCODING 12328
SWIDTH 960 0
DWIDTH 14 0
BBX 14 14 0 -2
BITMAP
0820
0820
0820
0850
7e50
1288
13fc
1200
32f8
2c88
0488
0a88
10f8
6088
ENDCHAR
STARTCHAR 3029
ENCODING 12329
SWIDTH 960 0
DWIDTH 14 0
BBX 14 14 0 -2
BITMAP
0080
21f8
1690
1060
01f0
0e4c
73f8
1040
13f8
1040
17fc
1840
2640
41fc
ENDCHAR
STARTCHAR 302a
ENCODING 12330
SWIDTH 960 0
DWIDTH 14 0
BBX 14 14 0 -2
BITMAP
0440
7ffc
0440
0720
1128
0ac8
0450
1ff0
610c
1ff0
0100
0280
0c60
3018
ENDCHAR
STARTCHAR 302b
ENCODING 12331
SWIDTH 960 0
DWIDTH 14 0
BBX 14 14 0 -2
BITMAP
0440
0440
7ffc
0440
7ffc
0480
3ff8
2488
2498
2878
3008
2008
3ff8
2008
ENDCHAR
STARTCHAR 302c
ENCODING 12332
SWIDTH 960 0
DWIDTH 14 0
BBX 14 14 0 -2
BITMAP
0440
19f0
7620
11f0
1150
7df0
1150
1bf8
3648
37f8
5248
13fc
1244
103c
ENDCHAR
STARTCHAR 302d
ENCODING 12333
SWIDTH 960 0
DWIDTH 14 0
BBX 14 14 0 -2
BITMAP
0000
3ff8
0280
1ff0
1290
1ff0
0280
7ffc
0100
1490
1488
2424
4424
03e0
ENDCHAR
STARTCHAR 302e
ENCODING 12334
SWIDTH 960 0
DWIDTH 14 0
BBX 14 14 0 -2
BITMAP
1000
13f8
1208
7ff8
1200
13f8
1260
1a90
73e8
1440
17f8
1840
17fc
3000
ENDCHAR
STARTCHAR 302f
ENCODING 12335
SWIDTH 960 0
DWIDTH 14 0
BBX 14 14 0 -2
BITMAP
1000
0bf8
0a08
43f8
2200
23fc
0250
0298
13e4
1240
25f8
2440
4ffc
4000
ENDCHAR
STARTCHAR 3030
ENCODING 12336
SWIDTH 960 0
DWIDTH 14 0
BBX 14 14 0 -2
BITMAP
0800
08f8
0888
0888
7e88
0af8
0a88
0a88
0a88
0af8
1288
1204
2204
41fc
ENDCHAR
STARTCHAR 3031
ENCODING 12337
SWIDTH 960 0
DWIDTH 14 0
BBX 14 14 0 -2
BITMAP
0440
7ffc
0540
0fe0
0220
7ffc
0820
0fe0
0040
0ff0
0840
7ffc
0040
0040
ENDCHAR
STARTCHAR 3032
ENCODING 12338
SWIDTH 960 0
DWIDTH 14 0
BBX 14 14 0 -2
BITMAP
0440
0440
7ffc
0440
3ff8
0000
1ff0
1010
1010
1ff0
1010
1000
2000
4000
ENDCHAR
STARTCHAR 3033
ENCODING 12339
SWIDTH 960 0
DWIDTH 14 0
BBX 14 14 0 -2
BITMAP
0820
0830
1e48
25f4
7e20
2bfc
3e50
2a98
3f64
0410
3a64
2e08
2830
41c0
ENDCHAR
STARTCHAR 3034
ENCODING 12340
SWIDTH 960 0
DWIDTH 14 0
BBX 14 14 0 -2
BITMAP
0820
0820
09fc
7e88
0848
1c50
1bfc
1a20
2820
29fc
4820
0820
0820
0820
ENDCHAR
STARTCHAR 3035
ENCODING 12341
SWIDTH 960 0
DWIDTH 14 0
BBX 14 14 0 -2
BITMAP
0000
1ffc
1080
1080
1080
1080
17f8
1080
1080
1080
2080
2080
4ffc
0000
ENDCHAR
STARTCHAR 3036
ENCODING 12342
SWIDTH 960 0
DWIDTH 14 0
BBX 14 14 0 -2
BITMAP
0820
0820
7f50
0888
3f54
2230
3e90
2250
3e50
081c
7ff0
0810
0810
0810
ENDCHAR
STARTCHAR 3037
ENCODING 12343
SWIDTH 960 0
DWIDTH 14 0
BBX 14 14 0 -2
BITMAP
1000
13f0
1110
7d20
1120
11f8
1188
1d88
7250
1250
1220
1450
1588
3e04
ENDCHAR
STARTCHAR 3038
ENCODING 12344
SWIDTH 960 0
DWIDTH 14 0
BBX 14 14 0 -2
BITMAP
0100
0100
3ffc
2808
4800
0ef8
1288
1288
2a88
44b0
0480
0884
1084
607c
ENDCHAR
STARTCHAR 3039
ENCODING 12345
SWIDTH 960 0
DWIDTH 14 0
BBX 14 14 0 -2
BITMAP
0800
08f8
0888
0888
7e88
12f8
1288
1288
3cf8
2488
0688
0888
13fc
6000
ENDCHAR
STARTCHAR 303a
ENCODING 12346
SWIDTH 960 0
DWIDTH 14 0
BBX 14 14 0 -2
BITMAP
0820
0820
0820
3e20
2bfc
2a80
2a80
3e80
2880
0c80
0a80
0f80
7180
0078
ENDCHAR
STARTCHAR 303b
ENCODING 12347
SWIDTH 960 0
DWIDTH 14 0
BBX 14 14 0 -2
BITMAP
0820
0c20
1220
2a50
4848
3e9c
23e4
3e00
22f8
3e88
2488
2688
3af8
6088
ENDCHAR
STARTCHAR 303c
ENCODING 12348
SWIDTH 960 0
DWIDTH 14 0
BBX 14 14 0 -2
BITMAP
1100
1100
1500
65f8
1a08
13e8
2928
7de8
1528
19e8
3528
3408
5008
1030
ENDCHAR
STARTCHAR 303d
ENCODING 12349
SWIDTH 960 0
DWIDTH 14 0
BBX 14 14 0 -2
BITMAP
1040
1040
17f8
6440
1ffc
10a0
2924
7e9c
14f0
3990
36a0
3440
51b0
160c
ENDCHAR
STARTCHAR 303e
ENCODING 12350
SWIDTH 960 0
DWIDTH 14 0
BBX 14 14 0 -2
BITMAP
0820
0820
1e20
243c
7e20
2a20
3e20
2af8
3e88
0488
3288
2a88
28f8
4088
ENDCHAR
STARTCHAR 303f
ENCODING 12351
SWIDTH 960 0
DWIDTH 14 0
BBX 14 14 0 -2
BITMAP
0090
0088
0088
7ffc
0080
1e88
1288
1248
1e50
1030
0324
0c54
718c
0604
ENDCHAR
STARTCHAR 3040
ENCODING 12352
SWIDTH 960 0
DWIDTH 14 0
BBX 14 14 0 -2
BITMAP
0000
7ffc
0280
1ff0
1290
1290
1ff0
0920
0540
7ffc
0380
0d60
711c
0100
ENDCHAR
STARTCHAR 3041
ENCODING 12353
SWIDTH 960 0
DWIDTH 14 0
BBX 14 14 0 -2
BITMAP
1040
1040
10a0
7ca0
0910
0bf8
1204
3c00
55f0
1310
1110
1110
11f0
1110
ENDCHAR
STARTCHAR 3042
ENCODING 12354
SWIDTH 960 0
DWIDTH 14 0
BBX 14 14 0 -2
BITMAP
0100
0100
3ffc
2208
4200
0200
7ffc
0440
0440
0f40
08c0
0120
0610
3808
ENDCHAR
STARTCHAR 3043
ENCODING 12355
SWIDTH 960 0
DWIDTH 14 0
BBX 14 14 0 -2
BITMAP
0080
0080
1ffc
1100
1ffc
12a0
1490
1ffc
1490
17f0
2490
27f0
4484
007c
ENDCHAR
STARTCHAR 3044
ENCODING 12356
SWIDTH 960 0
DWIDTH 14 0
BBX 14 14 0 -2
BITMAP
1040
1040
13fc
7e08
1440
1040
17fc
1890
7090
1190
1160
1030
10c8
3704
ENDCHAR
STARTCHAR 3045
ENCODING 12357
SWIDTH 960 0
DWIDTH 14 0
BBX 14 14 0 -2
BITMAP
0040
0040
7bf8
4910
48a0
4ffc
7800
49f0
4910
49f0
7910
4910
41f0
0110
ENDCHAR
STARTCHAR 3046
ENCODING 12358
SWIDTH 960 0
DWIDTH 14 0
BBX 14 14 0 -2
BITMAP
0100
0100
3ffc
2208
7ff8
0440
0f80
0360
1d10
7ffc
0380
0d60
711c
0100
ENDCHAR
STARTCHAR 3047
ENCODING 12359
SWIDTH 960 0
DWIDTH 14 0
BBX 14 14 0 -2
BITMAP
0000
3ef8
2288
3ef8
3ef8
2108
2fe8
2288
3ff8
2448
27c8
2448
27c8
2458
ENDCHAR
STARTCHAR 3048
ENCODING 12360
SWIDTH 960 0
DWIDTH 14 0
BBX 14 14 0 -2
BITMAP
1420
1420
7ffc
1488
1d20
0820
3ffc
2a48
3e48
08f0
7e90
0828
0844
0984
ENDCHAR
STARTCHAR 3049
ENCODING 12361
SWIDTH 960 0
DWIDTH 14 0
BBX 14 14 0 -2
BITMAP
0100
0100
7ffc
0380
0540
1930
610c
0100
1ff0
1010
1010
1010
1ff0
1010
ENDCHAR
STARTCHAR 304a
ENCODING 12362
SWIDTH 960 0
DWIDTH 14 0
BBX 14 14 0 -2
BITMAP
1010
1010
1210
1110
1090
1090
1010
1010
1010
1030
1628
1848
6184
0604
ENDCHAR
STARTCHAR 304b
ENCODING 12363
SWIDTH 960 0
DWIDTH 14 0
BBX 14 14 0 -2
BITMAP
0800
0bf8
0848
1048
17fc
3048
5048
13f8
1048
1040
1080
1080
1100
1200
ENDCHAR
STARTCHAR 304c
ENCODING 12364
SWIDTH 960 0
DWIDTH 14 0
BBX 14 14 0 -2
BITMAP
0880
0880
0880
1080
1ffc
3010
5210
1110
1110
1120
1120
1040
1ffc
1000
ENDCHAR
STARTCHAR 304d
ENCODING 12365
SWIDTH 960 0
DWIDTH 14 0
BBX 14 14 0 -2
BITMAP
0840
0840
0840
17fc
1080
30c8
5148
1350
1520
1120
1110
1150
1188
1604
ENDCHAR
STARTCHAR 304e
ENCODING 12366
SWIDTH 960 0
DWIDTH 14 0
BBX 14 14 0 -2
BITMAP
0840
0bf0
0890
17fc
1000
33f0
5210
13f0
1020
13f8
1220
1ffc
1020
1020
ENDCHAR
STARTCHAR 304f
ENCODING 12367
SWIDTH 960 0
DWIDTH 14 0
BBX 14 14 0 -2
BITMAP
0000
3ff8
2008
2248
2248
2fe8
2248
2248
3ff8
2248
2448
2848
3ff8
2008
ENDCHAR
STARTCHAR 3050
ENCODING 12368
SWIDTH 960 0
DWIDTH 14 0
BBX 14 14 0 -2
BITMAP
0100
0100
7ffc
0100
3ff0
0110
3ff0
2100
3ffc
2304
0284
0458
1830
600c
ENDCHAR
STARTCHAR 3051
ENCODING 12369
SWIDTH 960 0
DWIDTH 14 0
BBX 14 14 0 -2
BITMAP
0030
1fc0
0100
7ffc
0380
0d60
711c
0200
7ffc
0440
0f40
10c0
0330
3c08
ENDCHAR
STARTCHAR 3052
ENCODING 12370
SWIDTH 960 0
DWIDTH 14 0
BBX 14 14 0 -2
BITMAP
0050
0048
1ffc
1040
1fc8
1248
1fc8
14d0
14b0
1f30
1124
22d4
2c8c
4004
ENDCHAR
STARTCHAR 3053
ENCODING 12371
SWIDTH 960 0
DWIDTH 14 0
BBX 14 14 0 -2
BITMAP
0008
3f08
2108
3f08
20fc
3e08
2048
3f28
2428
2e08
2d08
3508
4408
0c18
ENDCHAR
STARTCHAR 3054
ENCODING 12372
SWIDTH 960 0
DWIDTH 14 0
BBX 14 14 0 -2
BITMAP
1090
1090
1120
19fc
3720
3520
31f8
5120
1120
11f8
1120
1120
11fc
1100
ENDCHAR
STARTCHAR 3055
ENCODING 12373
SWIDTH 960 0
DWIDTH 14 0
BBX 14 14 0 -2
BITMAP
0100
3ff8
0440
7ffc
0000
0fe0
0820
0fe0
0820
0fe0
2508
2484
4424
03e0
ENDCHAR
STARTCHAR 3056
ENCODING 12374
SWIDTH 960 0
DWIDTH 14 0
BBX 14 14 0 -2
BITMAP
0010
3f10
2110
3ffc
2e90
2050
3f50
5610
2510
4d30
0488
24a4
2424
43e0
ENDCHAR
STARTCHAR 3057
ENCODING 12375
SWIDTH 960 0
DWIDTH 14 0
BBX 14 14 0 -2
BITMAP
0000
0fe0
0820
0fe0
0820
0fe0
0200
07f8
1928
6248
0c88
3108
0610
00e0
ENDCHAR
STARTCHAR 3058
ENCODING 12376
SWIDTH 960 0
DWIDTH 14 0
BBX 14 14 0 -2
BITMAP
0820
0820
09fc
7e60
0850
1c88
1bfc
1a08
29e8
2928
49e8
0928
0808
0818
ENDCHAR
STARTCHAR 3059
ENCODING 12377
SWIDTH 960 0
DWIDTH 14 0
BBX 14 14 0 -2
BITMAP
1100
0900
0900
3fe0
0220
0240
07f0
0410
0ffc
0804
1544
32a4
4aa4
0818
ENDCHAR
STARTCHAR 305a
ENCODING 12378
SWIDTH 960 0
DWIDTH 14 0
BBX 14 14 0 -2
BITMAP
0000
1ff0
1110
1ff0
1110
1ff0
0000
7ffc
0910
0890
08a0
0b40
0c30
700c
ENDCHAR
STARTCHAR 305b
ENCODING 12379
SWIDTH 960 0
DWIDTH 14 0
BBX 14 14 0 -2
BITMAP
0000
1ff0
1110
1ff0
1110
1ff0
0440
3ff8
0440
0440
7ffc
0240
0c30
3008
ENDCHAR
STARTCHAR 305c
ENCODING 12380
SWIDTH 960 0
DWIDTH 14 0
BBX 14 14 0 -2
BITMAP
0240
0c78
3888
0950
0820
7e40
09a0
1c3c
1a44
2aa8
4918
0810
0860
0b80
ENDCHAR
STARTCHAR 305d
ENCODING 12381
SWIDTH 960 0
DWIDTH 14 0
BBX 14 14 0 -2
BITMAP
0848
0848
0a90
72fc
1590
0890
14f8
7e90
0a90
2cf8
2a90
2a90
48fc
0880
ENDCHAR
STARTCHAR 305e
ENCODING 12382
SWIDTH 960 0
DWIDTH 14 0
BBX 14 14 0 -2
BITMAP
0820
09f8
0a48
73fc
1400
0cf8
1288
7ef8
0810
2cf8
2a90
2bfc
4810
0810
ENDCHAR
STARTCHAR 305f
ENCODING 12383
SWIDTH 960 0
DWIDTH 14 0
BBX 14 14 0 -2
BITMAP
0000
3ff8
2108
3ff8
2108
3ff8
0000
1ff0
1010
1ff0
1010
1ff0
1010
1030
ENDCHAR
STARTCHAR 3060
ENCODING 12384
SWIDTH 960 0
DWIDTH 14 0
BBX 14 14 0 -2
BITMAP
0440
7ffc
0460
1fc0
0100
7ffc
0540
1930
620c
3ff8
0440
0f80
0360
3c10
ENDCHAR
STARTCHAR 3061
ENCODING 12385
SWIDTH 960 0
DWIDTH 14 0
BBX 14 14 0 -2
BITMAP
0100
0100
0100
7ffc
0100
0308
0488
1c90
6460
0440
0420
0590
0608
3804
ENDCHAR
STARTCHAR 3062
ENCODING 12386
SWIDTH 960 0
DWIDTH 14 0
BBX 14 14 0 -2
BITMAP
0000
3dfc
0124
7ffc
0124
3dfc
0000
3cf8
0088
3cf8
2488
24f8
3c88
2498
ENDCHAR
STARTCHAR 3063
ENCODING 12387
SWIDTH 960 0
DWIDTH 14 0
BBX 14 14 0 -2
BITMAP
0040
23f0
1090
17fc
01f0
0110
71f0
1020
11f8
1120
17fc
1820
2620
41fc
ENDCHAR
STARTCHAR 3064
ENCODING 12388
SWIDTH 960 0
DWIDTH 14 0
BBX 14 14 0 -2
BITMAP
0040
21f0
1150
11f0
07fc
0110
71f0
1110
11f0
1110
11f0
1b10
2608
41fc
ENDCHAR
STARTCHAR 3065
ENCODING 12389
SWIDTH 960 0
DWIDTH 14 0
BBX 14 14 0 -2
BITMAP
0000
3ff8
2200
2200
27f0
2480
2880
3ff8
2140
2120
2210
2c10
3ffc
2000
ENDCHAR
STARTCHAR 3066
ENCODING 12390
SWIDTH 960 0
DWIDTH 14 0
BBX 14 14 0 -2
BITMAP
0440
0440
0440
0440
3ff8
0440
0440
0440
7ffc
0440
0840
0840
1040
2040
ENDCHAR
STARTCHAR 3067
ENCODING 12391
SWIDTH 960 0
DWIDTH 14 0
BBX 14 14 0 -2
BITMAP
0100
0100
7ffc
0100
0240
1a40
0490
0320
0240
0cc0
1120
0610
1808
6008
ENDCHAR
STARTCHAR 3068
ENCODING 12392
SWIDTH 960 0
DWIDTH 14 0
BBX 14 14 0 -2
BITMAP
0040
1050
1048
17fc
1040
7fc8
12c8
12a8
13a8
1630
1894
6334
0c4c
0084
ENDCHAR
STARTCHAR 3069
ENCODING 12393
SWIDTH 960 0
DWIDTH 14 0
BBX 14 14 0 -2
BITMAP
0100
0100
7ffc
0220
0470
3f88
0fe0
0820
0fe0
0820
0fe0
0820
0820
0860
ENDCHAR
STARTCHAR 306a
ENCODING 12394
SWIDTH 960 0
DWIDTH 14 0
BBX 14 14 0 -2
BITMAP
0400
0478
7fc8
0850
0850
1f60
1150
3f48
5144
1f44
1164
1158
1140
1340
ENDCHAR
STARTCHAR 306b
ENCODING 12395
SWIDTH 960 0
DWIDTH 14 0
BBX 14 14 0 -2
BITMAP
0150
7d50
1268
16d8
1150
3ae8
2ffc
6850
2bfc
2b28
3aa8
2a94
042c
08c4
ENDCHAR
STARTCHAR 306c
ENCODING 12396
SWIDTH 960 0
DWIDTH 14 0
BBX 14 14 0 -2
BITMAP
0000
0000
0000
0000
0000
0000
7ffc
0000
0000
0000
0000
0000
0000
0000
ENDCHAR
STARTCHAR 306d
ENCODING 12397
SWIDTH 960 0
DWIDTH 14 0
BBX 14 14 0 -2
BITMAP
0100
0100
7ffc
0100
1ff0
0000
3ffc
2408
4460
0780
0400
0408
0408
03f8
ENDCHAR
STARTCHAR 306e
ENCODING 12398
SWIDTH 960 0
DWIDTH 14 0
BBX 14 14 0 -2
BITMAP
2410
1210
1220
4ffc
2220
2220
0410
1ff8
1554
1550
2550
2550
5ffc
4000
ENDCHAR
STARTCHAR 306f
ENCODING 12399
SWIDTH 960 0
DWIDTH 14 0
BBX 14 14 0 -2
BITMAP
0080
20f0
1120
1240
07f8
0248
7248
13f8
12c8
10c0
1144
1a3c
2600
41fc
ENDCHAR
STARTCHAR 3070
ENCODING 12400
SWIDTH 960 0
DWIDTH 14 0
BBX 14 14 0 -2
BITMAP
0218
0fe4
3a44
0928
0930
7e00
1978
1d48
2b48
2b78
4948
0948
0978
0948
ENDCHAR
STARTCHAR 3071
ENCODING 12401
SWIDTH 960 0
DWIDTH 14 0
BBX 14 14 0 -2
BITMAP
0440
0440
7ffc
0440
0540
2100
11fc
1148
0250
0440
18a0
6110
0608
1804
ENDCHAR
STARTCHAR 3072
ENCODING 12402
SWIDTH 960 0
DWIDTH 14 0
BBX 14 14 0 -2
BITMAP
0440
0440
7ffc
0440
0000
1ff0
0100
0100
7ffc
0100
0100
0100
0100
0300
ENDCHAR
STARTCHAR 3073
ENCODING 12403
SWIDTH 960 0
DWIDTH 14 0
BBX 14 14 0 -2
BITMAP
0800
09f8
1e48
2448
7ff8
2b20
3ff8
2a48
3f68
04d8
32d8
2b68
2848
41b0
ENDCHAR
STARTCHAR 3074
ENCODING 12404
SWIDTH 960 0
DWIDTH 14 0
BBX 14 14 0 -2
BITMAP
0200
0240
0430
0868
7f84
0480
0480
0480
0880
0880
1080
1084
2084
407c
ENDCHAR
STARTCHAR 3075
ENCODING 12405
SWIDTH 960 0
DWIDTH 14 0
BBX 14 14 0 -2
BITMAP
0100
0600
38f8
2088
2088
3e88
2088
2088
2088
3e88
20f0
2080
0080
0080
ENDCHAR
STARTCHAR 3076
ENCODING 12406
SWIDTH 960 0
DWIDTH 14 0
BBX 14 14 0 -2
BITMAP
0000
03f8
7a48
4a48
4a48
4bf8
4a48
4a48
4aa8
7a98
4b18
4208
03f8
0208
ENDCHAR
STARTCHAR 3077
ENCODING 12407
SWIDTH 960 0
DWIDTH 14 0
BBX 14 14 0 -2
BITMAP
0000
0fe0
0820
0fe0
0000
1ff0
1010
1ff0
1010
1ff0
1010
1ff0
0660
3818
ENDCHAR
STARTCHAR 3078
ENCODING 12408
SWIDTH 960 0
DWIDTH 14 0
BBX 14 14 0 -2
BITMAP
0000
3ff8
2108
2108
2108
3ff8
2108
2308
2288
2448
2828
2008
3ff8
2008
ENDCHAR
STARTCHAR 3079
ENCODING 12409
SWIDTH 960 0
DWIDTH 14 0
BBX 14 14 0 -2
BITMAP
1000
11f8
1148
1148
7d48
25f8
2548
2548
7968
4998
0d98
1508
21f8
4108
ENDCHAR
STARTCHAR 307a
ENCODING 12410
SWIDTH 960 0
DWIDTH 14 0
BBX 14 14 0 -2
BITMAP
0010
7f10
0110
0110
3f10
2110
2010
3f10
2110
0110
0110
0110
0210
1c10
ENDCHAR
STARTCHAR 307b
ENCODING 12411
SWIDTH 960 0
DWIDTH 14 0
BBX 14 14 0 -2
BITMAP
0840
0840
1440
1a40
29fc
7ea8
2330
3e20
2220
3e60
2850
2490
3b08
6204
ENDCHAR
STARTCHAR 307c
ENCODING 12412
SWIDTH 960 0
DWIDTH 14 0
BBX 14 14 0 -2
BITMAP
100c
0874
0f84
4488
2250
2238
03c0
1040
1040
13f8
2040
2040
4ffc
4000
ENDCHAR
STARTCHAR 307d
ENCODING 12413
SWIDTH 960 0
DWIDTH 14 0
BBX 14 14 0 -2
BITMAP
1110
1150
1e50
1290
1150
1ff0
1030
17d0
1450
17d0
1450
27d4
2454
44cc
ENDCHAR
STARTCHAR 307e
ENCODING 12414
SWIDTH 960 0
DWIDTH 14 0
BBX 14 14 0 -2
BITMAP
0440
7ffc
0440
3ca0
27f0
2c0c
31f0
2820
25f8
2400
27fc
38a0
2130
23c8
ENDCHAR
STARTCHAR 3121
ENCODING 12577
SWIDTH 960 0
DWIDTH 14 0
BBX 14 14 0 -2
BITMAP
0040
3c40
27fc
2a08
3000
2bf8
2400
27fc
24a0
24a0
3920
2124
2224
241c
ENDCHAR
STARTCHAR 3122
ENCODING 12578
SWIDTH 960 0
DWIDTH 14 0
BBX 14 14 0 -2
BITMAP
0040
3c40
24a0
2910
32e8
2804
25f0
2420
25f0
2400
3ffc
20a0
2130
27c8
ENDCHAR
STARTCHAR 3123
ENCODING 12579
SWIDTH 960 0
DWIDTH 14 0
BBX 14 14 0 -2
BITMAP
0018
3fe4
2644
2928
31f8
2808
25f8
2408
25f8
2440
3aa8
22a4
2494
2070
ENDCHAR
STARTCHAR 3124
ENCODING 12580
SWIDTH 960 0
DWIDTH 14 0
BBX 14 14 0 -2
BITMAP
0800
08f8
7f88
22f8
1400
7ff8
0088
3cf8
2488
3cf8
2488
24f8
3cc8
2704
ENDCHAR
STARTCHAR 3125
ENCODING 12581
SWIDTH 960 0
DWIDTH 14 0
BBX 14 14 0 -2
BITMAP
0010
0010
7810
4810
4ffc
4810
4910
4890
4890
7810
4810
4010
0010
0030
ENDCHAR
STARTCHAR 3126
ENCODING 12582
SWIDTH 960 0
DWIDTH 14 0
BBX 14 14 0 -2
BITMAP
0200
0200
0200
7ffc
0400
0400
0800
0ff0
1810
1810
2810
4810
0ff0
0810
ENDCHAR
STARTCHAR 3127
ENCODING 12583
SWIDTH 960 0
DWIDTH 14 0
BBX 14 14 0 -2
BITMAP
0100
0100
3ffc
2008
4000
1ff0
0100
0100
7ffc
0100
0100
0100
0100
0300
ENDCHAR
STARTCHAR 3128
ENCODING 12584
SWIDTH 960 0
DWIDTH 14 0
BBX 14 14 0 -2
BITMAP
0100
0200
0fe0
0820
0820
0fe0
0800
0ffc
0800
0ff8
2948
24a8
2408
4030
ENDCHAR
STARTCHAR 3129
ENCODING 12585
SWIDTH 960 0
DWIDTH 14 0
BBX 14 14 0 -2
BITMAP
0000
7ff8
0208
0208
2288
1248
1248
0208
0618
1a68
6388
0208
0208
0618
ENDCHAR
STARTCHAR 312a
ENCODING 12586
SWIDTH 960 0
DWIDTH 14 0
BBX 14 14 0 -2
BITMAP
0000
23f8
1040
1040
0040
07fc
7040
1040
1040
1040
1040
18c0
2600
41fc
ENDCHAR
STARTCHAR 312b
ENCODING 12587
SWIDTH 960 0
DWIDTH 14 0
BBX 14 14 0 -2
BITMAP
0000
7ffc
0100
0100
3ff8
2948
2528
2528
2108
2948
2528
2528
2108
2118
ENDCHAR
STARTCHAR 312c
ENCODING 12588
SWIDTH 960 0
DWIDTH 14 0
BBX 14 14 0 -2
BITMAP
0200
0c00
30f8
2288
2288
2288
2288
2288
2288
3e88
64f0
0480
0880
1080
ENDCHAR
STARTCHAR 312d
ENCODING 12589
SWIDTH 960 0
DWIDTH 14 0
BBX 14 14 0 -2
BITMAP
2420
1440
18f8
7e88
0af8
3e88
28f8
3efc
3a80
1afc
2e54
49ac
0944
0a18
ENDCHAR
STARTCHAR 312e
ENCODING 12590
SWIDTH 960 0
DWIDTH 14 0
BBX 14 14 0 -2
BITMAP
0100
3ffc
2488
4878
19f0
0910
3ff0
0910
7ff0
0910
15f0
14a4
2124
461c
ENDCHAR
STARTCHAR 312f
ENCODING 12591
SWIDTH 960 0
DWIDTH 14 0
BBX 14 14 0 -2
BITMAP
0000
1fe0
0220
0220
0220
0220
3ff8
0420
0420
0420
0420
0420
7ffc
0000
ENDCHAR
STARTCHAR 3130
ENCODING 12592
SWIDTH 960 0
DWIDTH 14 0
BBX 14 14 0 -2
BITMAP
0090
7e90
10a0
11fc
1120
3f20
25f8
6520
2520
25f8
3d20
2520
21fc
0100
ENDCHAR
STARTCHAR 3131
ENCODING 12593
SWIDTH 960 0
DWIDTH 14 0
BBX 14 14 0 -2
BITMAP
0100
0600
38f8
2008
2008
2008
2008
3ef8
2008
2008
2008
2008
3ff8
2008
ENDCHAR
STARTCHAR 3132
ENCODING 12594
SWIDTH 960 0
DWIDTH 14 0
BBX 14 14 0 -2
BITMAP
1000
0bf0
0a10
42f0
2290
2290
07f8
1408
15e8
1528
25e8
2528
4408
4418
ENDCHAR
STARTCHAR 3133
ENCODING 12595
SWIDTH 960 0
DWIDTH 14 0
BBX 14 14 0 -2
BITMAP
0080
00f8
7080
57fc
54f8
5788
5478
54a0
56a8
75a8
49b0
08a0
17fc
0000
ENDCHAR
STARTCHAR 3134
ENCODING 12596
SWIDTH 960 0
DWIDTH 14 0
BBX 14 14 0 -2
BITMAP
0000
01f8
3d08
2508
25f8
2508
2508
25f8
2508
3d08
25f8
2090
0308
0c04
ENDCHAR
STARTCHAR 3135
ENCODING 12597
SWIDTH 960 0
DWIDTH 14 0
BBX 14 14 0 -2
BITMAP
1290
7dfc
3ab8
55d4
1ff0
1290
1ff0
3e10
23fc
3e90
3e50
2450
3e10
6030
ENDCHAR
STARTCHAR 3136
ENCODING 12598
SWIDTH 960 0
DWIDTH 14 0
BBX 14 14 0 -2
BITMAP
0440
7ffc
0440
3f08
2108
3ffc
2008
2e48
2028
3f28
2e08
2d08
5508
0c18
ENDCHAR
STARTCHAR 3137
ENCODING 12599
SWIDTH 960 0
DWIDTH 14 0
BBX 14 14 0 -2
BITMAP
0800
08f8
1e88
24f8
7e88
2bfc
3f54
2bfc
3e00
04f8
3250
2a20
28d0
430c
ENDCHAR
STARTCHAR 3138
ENCODING 12600
SWIDTH 960 0
DWIDTH 14 0
BBX 14 14 0 -2
BITMAP
1040
1048
11f8
1050
7c50
27fc
2420
24c0
7898
49e0
0e80
1484
2084
407c
ENDCHAR
STARTCHAR 3139
ENCODING 12601
SWIDTH 960 0
DWIDTH 14 0
BBX 14 14 0 -2
BITMAP
0000
3ffc
2000
2f78
2950
2f50
2950
2ffc
2830
2a30
2950
2b54
4c94
310c
ENDCHAR
STARTCHAR 313a
ENCODING 12602
SWIDTH 960 0
DWIDTH 14 0
BBX 14 14 0 -2
BITMAP
1050
0848
0ffc
4040
23f8
2248
0248
0bf8
0a48
0a48
13f8
1248
2248
2258
ENDCHAR
STARTCHAR 313b
ENCODING 12603
SWIDTH 960 0
DWIDTH 14 0
BBX 14 14 0 -2
BITMAP
0010
00e0
0f20
0920
0920
0920
0920
0920
0910
0990
1150
11e8
2e28
4004
ENDCHAR
STARTCHAR 313c
ENCODING 12604
SWIDTH 960 0
DWIDTH 14 0
BBX 14 14 0 -2
BITMAP
0000
3ef8
2288
3ef8
2288
3ef8
2008
2fe8
2108
27c8
2108
2fe8
2008
2018
ENDCHAR
STARTCHAR 313d
ENCODING 12605
SWIDTH 960 0
DWIDTH 14 0
BBX 14 14 0 -2
BITMAP
0110
00a0
7ffc
48a0
4bf8
4aa8
4b38
4bf8
4bf8
7810
4ffc
4110
0090
0030
ENDCHAR
STARTCHAR 313e
ENCODING 12606
SWIDTH 960 0
DWIDTH 14 0
BBX 14 14 0 -2
BITMAP
0000
1ff0
0000
0000
0000
7ffc
0100
0100
0140
0220
0210
0470
3f88
0008
ENDCHAR
STARTCHAR 313f
ENCODING 12607
SWIDTH 960 0
DWIDTH 14 0
BBX 14 14 0 -2
BITMAP
0000
27fc
1448
1ffc
0040
03f8
7248
13f8
1248
13f8
1040
17fc
2c40
43fc
ENDCHAR
STARTCHAR 3140
ENCODING 12608
SWIDTH 960 0
DWIDTH 14 0
BBX 14 14 0 -2
BITMAP
0000
1ff0
0100
3ffc
2104
3d78
4f38
0000
1ff0
0000
7ffc
0220
04f0
3f08
ENDCHAR
STARTCHAR 3141
ENCODING 12609
SWIDTH 960 0
DWIDTH 14 0
BBX 14 14 0 -2
BITMAP
0440
0440
7ffc
0440
0818
0be0
1040
1040
37fc
5040
1040
1040
13f8
1000
ENDCHAR
STARTCHAR 3142
ENCODING 12610
SWIDTH 960 0
DWIDTH 14 0
BBX 14 14 0 -2
BITMAP
0800
0dfc
1248
2a48
4878
3e48
2248
3e78
2248
3e4c
2478
2788
3a08
6008
ENDCHAR
STARTCHAR 3143
ENCODING 12611
SWIDTH 960 0
DWIDTH 14 0
BBX 14 14 0 -2
BITMAP
0e00
08f8
7f08
5d48
5a48
2d50
5250
1f30
3220
5e30
1250
1e48
1288
1f04
ENDCHAR
STARTCHAR 3144
ENCODING 12612
SWIDTH 960 0
DWIDTH 14 0
BBX 14 14 0 -2
BITMAP
1210
0920
3ffc
2008
4fe0
0820
0820
0fe0
0200
1ff0
1010
1010
1ff0
1010
ENDCHAR
STARTCHAR 3145
ENCODING 12613
SWIDTH 960 0
DWIDTH 14 0
BBX 14 14 0 -2
BITMAP
0000
3ef8
2288
3ef8
2288
3ef8
2288
3ef8
1550
7ffc
0420
0f40
01e0
3e18
ENDCHAR
STARTCHAR 3146
ENCODING 12614
SWIDTH 960 0
DWIDTH 14 0
BBX 14 14 0 -2
BITMAP
0010
1f10
1120
1f20
1148
1f08
0410
7f90
1f24
1104
1f08
1508
6490
0c20
ENDCHAR
STARTCHAR 3147
ENCODING 12615
SWIDTH 960 0
DWIDTH 14 0
BBX 14 14 0 -2
BITMAP
0040
0040
7840
4bf8
4a48
4a48
7a48
4ffc
4840
48a0
78a0
4910
0208
0c04
ENDCHAR
STARTCHAR 3148
ENCODING 12616
SWIDTH 960 0
DWIDTH 14 0
BBX 14 14 0 -2
BITMAP
0100
1ff0
1110
1110
1ff0
1110
1110
1ff8
1110
00a0
00c0
0344
3c34
000c
ENDCHAR
STARTCHAR 3149
ENCODING 12617
SWIDTH 960 0
DWIDTH 14 0
BBX 14 14 0 -2
BITMAP
1210
0910
0920
3ffc
2008
4100
0100
7ffc
0380
0540
1930
610c
0100
0100
ENDCHAR
STARTCHAR 314a
ENCODING 12618
SWIDTH 960 0
DWIDTH 14 0
BBX 14 14 0 -2
BITMAP
0300
0080
0000
0f00
0108
0188
7f90
0560
0540
0920
1110
610c
0100
0300
ENDCHAR
STARTCHAR 314b
ENCODING 12619
SWIDTH 960 0
DWIDTH 14 0
BBX 14 14 0 -2
BITMAP
10c0
0820
0800
43c0
2048
2048
07f0
10e0
1150
1150
2248
2444
4040
40c0
ENDCHAR
STARTCHAR 314c
ENCODING 12620
SWIDTH 960 0
DWIDTH 14 0
BBX 14 14 0 -2
BITMAP
1040
0840
0bf8
4248
2248
23f8
0248
0bf8
0a48
0830
1020
10d4
270c
2004
ENDCHAR
STARTCHAR 314d
ENCODING 12621
SWIDTH 960 0
DWIDTH 14 0
BBX 14 14 0 -2
BITMAP
0110
0110
7ffc
1110
1040
13f8
7e48
1248
17fc
1040
1c60
6090
0308
0c04
ENDCHAR
STARTCHAR 314e
ENCODING 12622
SWIDTH 960 0
DWIDTH 14 0
BBX 14 14 0 -2
BITMAP
0000
1fc0
0440
0440
0ff8
0c88
1308
2288
4c70
1ff0
1290
1290
7ffc
0000
ENDCHAR
STARTCHAR 314f
ENCODING 12623
SWIDTH 960 0
DWIDTH 14 0
BBX 14 14 0 -2
BITMAP
2000
25fc
3820
2240
1cf8
0288
3cf8
0888
7ef8
1888
1cf8
2a50
4888
0b04
ENDCHAR
STARTCHAR 3150
ENCODING 12624
SWIDTH 960 0
DWIDTH 14 0
BBX 14 14 0 -2
BITMAP
2000
25fc
3820
2240
1ef8
0088
3ef8
0088
7ff8
0c88
2af8
2a50
4888
1b04
ENDCHAR
STARTCHAR 3151
ENCODING 12625
SWIDTH 960 0
DWIDTH 14 0
BBX 14 14 0 -2
BITMAP
0440
0440
7ffc
0440
0100
1ff0
1110
1110
1110
7ffc
0280
0440
1830
600c
ENDCHAR
STARTCHAR 3152
ENCODING 12626
SWIDTH 960 0
DWIDTH 14 0
BBX 14 14 0 -2
BITMAP
1100
17b8
2280
4fc0
087c
1790
1490
3790
5110
1790
1510
1fd0
1110
1130
ENDCHAR
STARTCHAR 3153
ENCODING 12627
SWIDTH 960 0
DWIDTH 14 0
BBX 14 14 0 -2
BITMAP
0040
3c20
0020
7ee0
0028
3c28
01f0
3c70
00b0
3ca8
2528
2624
3c20
2060
ENDCHAR
STARTCHAR 3154
ENCODING 12628
SWIDTH 960 0
DWIDTH 14 0
BBX 14 14 0 -2
BITMAP
0888
0848
1450
12f8
2288
5c88
0888
7ef8
0850
2a50
1c90
1894
0f14
720c
ENDCHAR
STARTCHAR 3155
ENCODING 12629
SWIDTH 960 0
DWIDTH 14 0
BBX 14 14 0 -2
BITMAP
1040
0840
0ffc
4140
2178
2248
02a8
1698
1b50
1250
2220
2250
4288
4304
ENDCHAR
STARTCHAR 3156
ENCODING 12630
SWIDTH 960 0
DWIDTH 14 0
BBX 14 14 0 -2
BITMAP
0080
0080
0ffc
4800
29e0
2924
0924
1a1c
2ff0
4910
10a0
1040
21b0
4e0c
ENDCHAR
STARTCHAR 3157
ENCODING 12631
SWIDTH 960 0
DWIDTH 14 0
BBX 14 14 0 -2
BITMAP
0820
0420
0440
7ffc
0820
0820
1010
1ff0
2aa8
4aa4
0aa0
0aa0
7ffc
0000
ENDCHAR
STARTCHAR 3158
ENCODING 12632
SWIDTH 960 0
DWIDTH 14 0
BBX 14 14 0 -2
BITMAP
0000
3ff8
2888
3e88
2888
3ef8
28a8
3ea0
0aa0
3e90
3a90
3308
4508
1a04
ENDCHAR
STARTCHAR 3159
ENCODING 12633
SWIDTH 960 0
DWIDTH 14 0
BBX 14 14 0 -2
BITMAP
1110
1090
10a0
1bf8
3608
3608
33f8
52a8
10a0
1120
1120
1224
1424
181c
ENDCHAR
STARTCHAR 315a
ENCODING 12634
SWIDTH 960 0
DWIDTH 14 0
BBX 14 14 0 -2
BITMAP
0000
3df0
0110
7ff0
0110
3df0
0080
3df8
0328
3dc8
2528
24e8
3c08
2030
ENDCHAR
STARTCHAR 315b
ENCODING 12635
SWIDTH 960 0
DWIDTH 14 0
BBX 14 14 0 -2
BITMAP
0820
0828
3e24
09fc
0920
7f28
0928
2930
2f50
2994
3b2c
2844
4600
41fc
ENDCHAR
STARTCHAR 315c
ENCODING 12636
SWIDTH 960 0
DWIDTH 14 0
BBX 14 14 0 -2
BITMAP
0000
3ef8
2288
3ef8
2288
3ef8
2448
2288
27c8
2448
27c8
2288
24a8
2878
ENDCHAR
STARTCHAR 315d
ENCODING 12637
SWIDTH 960 0
DWIDTH 14 0
BBX 14 14 0 -2
BITMAP
0800
0bfc
0840
7ff8
0908
1df8
1b08
1bf8
2940
28f8
4b90
0860
09b0
0e0c
ENDCHAR
STARTCHAR 315e
ENCODING 12638
SWIDTH 960 0
DWIDTH 14 0
BBX 14 14 0 -2
BITMAP
0000
3ffc
2000
2f28
2924
2f20
20fc
2f20
2920
2f20
2970
2f50
2988
4b04
ENDCHAR
STARTCHAR 315f
ENCODING 12639
SWIDTH 960 0
DWIDTH 14 0
BBX 14 14 0 -2
BITMAP
0000
3ff8
2108
2108
2108
2108
2108
3ff8
2008
2008
2008
2008
2008
2018
ENDCHAR
STARTCHAR 3160
ENCODING 12640
SWIDTH 960 0
DWIDTH 14 0
BBX 14 14 0 -2
BITMAP
0000
3ff8
2108
2fe8
2108
3ff8
27c8
2448
27e8
23a8
2d48
2128
3ff8
2008
ENDCHAR
STARTCHAR 3161
ENCODING 12641
SWIDTH 960 0
DWIDTH 14 0
BBX 14 14 0 -2
BITMAP
0000
13fc
1200
12f8
7e88
12f8
1288
12f8
1620
1bfc
62d0
0230
02c8
03fc
ENDCHAR
STARTCHAR 3162
ENCODING 12642
SWIDTH 960 0
DWIDTH 14 0
BBX 14 14 0 -2
BITMAP
0100
0100
7ffc
0280
0d60
711c
1ff0
1110
1ff0
1110
1ff0
1114
1104
00fc
ENDCHAR
STARTCHAR 3163
ENCODING 12643
SWIDTH 960 0
DWIDTH 14 0
BBX 14 14 0 -2
BITMAP
0100
3ffc
2008
4fe0
0820
0fe0
0820
0fe0
0100
7ffc
0440
0e80
03c0
3c30
ENDCHAR
STARTCHAR 3164
ENCODING 12644
SWIDTH 960 0
DWIDTH 14 0
BBX 14 14 0 -2
BITMAP
0000
781c
0be0
1020
1020
3d20
0538
2520
2520
1520
1bfc
1800
2600
41fc
ENDCHAR
STARTCHAR 3165
ENCODING 12645
SWIDTH 960 0
DWIDTH 14 0
BBX 14 14 0 -2
BITMAP
0800
0800
1ff8
1188
2a88
46b0
0484
187c
6100
1490
1488
2424
4424
03e0
ENDCHAR
STARTCHAR 3166
ENCODING 12646
SWIDTH 960 0
DWIDTH 14 0
BBX 14 14 0 -2
BITMAP
1040
1040
13fc
7ca0
1150
1248
1ffc
1248
33f8
5248
13f8
1248
1044
303c
ENDCHAR
STARTCHAR 3167
ENCODING 12647
SWIDTH 960 0
DWIDTH 14 0
BBX 14 14 0 -2
BITMAP
1008
1030
13c8
7e48
1110
13f8
1080
1ffc
7100
11f8
1290
1460
18f0
330c
ENDCHAR
STARTCHAR 3168
ENCODING 12648
SWIDTH 960 0
DWIDTH 14 0
BBX 14 14 0 -2
BITMAP
10e0
0820
0920
4120
2110
2210
0208
17f4
1210
1210
2210
2210
43f0
4210
ENDCHAR
STARTCHAR 3169
ENCODING 12649
SWIDTH 960 0
DWIDTH 14 0
BBX 14 14 0 -2
BITMAP
1040
0840
0ffc
4408
2ffc
2040
03f8
1248
13f8
1248
23f8
2090
4308
4c04
ENDCHAR
STARTCHAR 316a
ENCODING 12650
SWIDTH 960 0
DWIDTH 14 0
BBX 14 14 0 -2
BITMAP
0110
0910
0920
1300
02c0
0c30
3108
0110
1110
1320
2280
0440
1830
600c
ENDCHAR
STARTCHAR 316b
ENCODING 12651
SWIDTH 960 0
DWIDTH 14 0
BBX 14 14 0 -2
BITMAP
0840
0840
0a78
0a88
2b10
2c20
2978
4948
0948
0d78
1348
1348
2178
4148
ENDCHAR
STARTCHAR 316c
ENCODING 12652
SWIDTH 960 0
DWIDTH 14 0
BBX 14 14 0 -2
BITMAP
1000
17fc
10a0
17f8
36a8
3aa8
33f8
5248
1840
17f8
2440
2040
47fc
0000
ENDCHAR
STARTCHAR 316d
ENCODING 12653
SWIDTH 960 0
DWIDTH 14 0
BBX 14 14 0 -2
BITMAP
0440
0440
7ffc
0440
0fe4
7828
0bb0
1aa0
6aa4
0b9c
1490
1248
2244
4004
ENDCHAR
STARTCHAR 316e
ENCODING 12654
SWIDTH 960 0
DWIDTH 14 0
BBX 14 14 0 -2
BITMAP
0840
4bf8
3040
17fc
3000
49f0
0910
19f0
28c8
4f48
0930
0910
31c8
1604
ENDCHAR
STARTCHAR 316f
ENCODING 12655
SWIDTH 960 0
DWIDTH 14 0
BBX 14 14 0 -2
BITMAP
1000
11f0
1410
65f0
1810
1bfc
2440
7ce4
1368
38b0
3770
34a8
5324
10c0
ENDCHAR
STARTCHAR 3170
ENCODING 12656
SWIDTH 960 0
DWIDTH 14 0
BBX 14 14 0 -2
BITMAP
1420
7f20
5578
7f90
5520
7ff8
00a8
7fa8
3ef8
2288
3e80
2484
1e84
607c
ENDCHAR
STARTCHAR 3171
ENCODING 12657
SWIDTH 960 0
DWIDTH 14 0
BBX 14 14 0 -2
BITMAP
0440
0440
7ffc
0440
0800
08f8
1e88
1288
2288
54b0
0c80
0884
1084
207c
ENDCHAR
STARTCHAR 3172
ENCODING 12658
SWIDTH 960 0
DWIDTH 14 0
BBX 14 14 0 -2
BITMAP
0440
7ffc
0440
3ff8
2108
27c8
3ff8
2448
27e8
23a8
2e48
2228
3ff8
2008
ENDCHAR
STARTCHAR 3173
ENCODING 12659
SWIDTH 960 0
DWIDTH 14 0
BBX 14 14 0 -2
BITMAP
0040
23f8
1040
17fc
0000
03f8
7208
13f8
1088
11d0
1eb0
1888
2680
41fc
ENDCHAR
STARTCHAR 3174
ENCODING 12660
SWIDTH 960 0
DWIDTH 14 0
BBX 14 14 0 -2
BITMAP
0870
0810
1490
1290
2288
5d08
0904
7ef8
0888
2a88
1c88
1888
0ef8
7088
ENDCHAR
STARTCHAR 3175
ENCODING 12661
SWIDTH 960 0
DWIDTH 14 0
BBX 14 14 0 -2
BITMAP
0800
1ff8
7288
0cb0
1884
627c
0fc0
0840
0ff8
0800
0ff8
1548
2528
4030
ENDCHAR
STARTCHAR 3176
ENCODING 12662
SWIDTH 960 0
DWIDTH 14 0
BBX 14 14 0 -2
BITMAP
0100
1100
11fc
1200
7ff0
1510
11f0
1000
17f8
1aa8
62a8
02a8
0ffc
0000
ENDCHAR
STARTCHAR 3177
ENCODING 12663
SWIDTH 960 0
DWIDTH 14 0
BBX 14 14 0 -2
BITMAP
0820
0820
0820
7f50
0850
0888
0f44
0a20
0a20
1200
1240
2220
4210
0c10
ENDCHAR
STARTCHAR 3178
ENCODING 12664
SWIDTH 960 0
DWIDTH 14 0
BBX 14 14 0 -2
BITMAP
1000
0bf8
0840
4040
27fc
2080
0080
09f8
0908
0808
1008
1008
2008
2070
ENDCHAR
STARTCHAR 3179
ENCODING 12665
SWIDTH 960 0
DWIDTH 14 0
BBX 14 14 0 -2
BITMAP
0800
2bf8
2a48
3e48
2bf8
4a48
0a48
3ff8
0840
0bf8
0c48
1888
6108
0630
ENDCHAR
STARTCHAR 317a
ENCODING 12666
SWIDTH 960 0
DWIDTH 14 0
BBX 14 14 0 -2
BITMAP
0000
3c78
2448
2448
2448
2448
2448
27c8
2448
2008
2008
2008
3ff8
2008
ENDCHAR
STARTCHAR 317b
ENCODING 12667
SWIDTH 960 0
DWIDTH 14 0
BBX 14 14 0 -2
BITMAP
0100
0100
0100
1ff0
1110
1110
1110
1110
7ffc
0300
0280
0440
1830
600c
ENDCHAR
STARTCHAR 317c
ENCODING 12668
SWIDTH 960 0
DWIDTH 14 0
BBX 14 14 0 -2
BITMAP
0100
0200
1ff0
1950
1550
1590
1ff0
1390
1550
1930
7ffc
0280
0c60
3018
ENDCHAR
STARTCHAR 317d
ENCODING 12669
SWIDTH 960 0
DWIDTH 14 0
BBX 14 14 0 -2
BITMAP
0880
0840
1040
27fc
4440
0840
0840
1bf8
2840
4840
0840
0840
0ffc
0800
ENDCHAR
STARTCHAR 317e
ENCODING 12670
SWIDTH 960 0
DWIDTH 14 0
BBX 14 14 0 -2
BITMAP
0080
0080
1ffc
1080
1040
1120
1120
1508
1504
1504
2904
2910
4110
00f0
ENDCHAR
STARTCHAR 3221
ENCODING 12833
SWIDTH 960 0
DWIDTH 14 0
BBX 14 14 0 -2
BITMAP
1000
13f8
1248
7e48
13f8
1248
1248
1ff8
7248
1040
1040
1040
1040
3040
ENDCHAR
STARTCHAR 3222
ENCODING 12834
SWIDTH 960 0
DWIDTH 14 0
BBX 14 14 0 -2
BITMAP
0000
7ffc
4440
4440
4440
7c40
47f8
4440
4440
7c40
4440
4040
07fc
0000
ENDCHAR
STARTCHAR 3223
ENCODING 12835
SWIDTH 960 0
DWIDTH 14 0
BBX 14 14 0 -2
BITMAP
10a0
10a0
13f8
7ca0
17fc
1040
3bf8
3648
37f8
5248
53f8
10a0
1110
1608
ENDCHAR
STARTCHAR 3224
ENCODING 12836
SWIDTH 960 0
DWIDTH 14 0
BBX 14 14 0 -2
BITMAP
0040
3f40
2240
22fc
32a4
2b28
2430
2620
2a20
2960
3150
2090
3f08
2204
ENDCHAR
STARTCHAR 3225
ENCODING 12837
SWIDTH 960 0
DWIDTH 14 0
BBX 14 14 0 -2
BITMAP
0000
3f70
2250
2250
3254
2a94
250c
24f8
2a48
2a50
3030
2030
3ec8
2304
ENDCHAR
STARTCHAR 3226
ENCODING 12838
SWIDTH 960 0
DWIDTH 14 0
BBX 14 14 0 -2
BITMAP
0000
3ff8
0100
0100
0100
0100
1ff0
0100
0100
0100
0100
0100
7ffc
0000
ENDCHAR
STARTCHAR 3227
ENCODING 12839
SWIDTH 960 0
DWIDTH 14 0
BBX 14 14 0 -2
BITMAP
05e0
0420
1910
61cc
0260
3f90
0000
7ff8
2288
1248
0618
1a68
6388
0618
ENDCHAR
STARTCHAR 3228
ENCODING 12840
SWIDTH 960 0
DWIDTH 14 0
BBX 14 14 0 -2
BITMAP
1040
1080
13f8
7f58
0ae8
0bf8
16e8
1b58
3648
57fc
1040
10a0
1310
1c0c
ENDCHAR
STARTCHAR 3229
ENCODING 12841
SWIDTH 960 0
DWIDTH 14 0
BBX 14 14 0 -2
BITMAP
1210
0920
3ffc
2208
4fe0
0820
0fe0
0820
0ffc
0800
0ff8
2948
24a8
4030
ENDCHAR
STARTCHAR 322a
ENCODING 12842
SWIDTH 960 0
DWIDTH 14 0
BBX 14 14 0 -2
BITMAP
0020
3f40
20f8
2288
22f8
3288
2cf8
24fc
2680
2afc
3054
21ac
3f44
2218
ENDCHAR
STARTCHAR 322b
ENCODING 12843
SWIDTH 960 0
DWIDTH 14 0
BBX 14 14 0 -2
BITMAP
0440
0440
3ff8
0440
7ffc
0100
1ff0
1110
1ff0
1110
1ff0
0440
1830
6008
ENDCHAR
STARTCHAR 322c
ENCODING 12844
SWIDTH 960 0
DWIDTH 14 0
BBX 14 14 0 -2
BITMAP
0000
3ff8
2848
2448
2488
3ff8
2108
2928
2928
2928
2fe8
2828
2008
2018
ENDCHAR
STARTCHAR 322d
ENCODING 12845
SWIDTH 960 0
DWIDTH 14 0
BBX 14 14 0 -2
BITMAP
1040
0840
0840
43f8
2248
2248
0248
0a48
0bf8
0a48
1040
1040
2040
2040
ENDCHAR
STARTCHAR 322e
ENCODING 12846
SWIDTH 960 0
DWIDTH 14 0
BBX 14 14 0 -2
BITMAP
0440
0440
7ffc
0440
0420
3428
08a8
18b0
6520
0d60
1450
6490
0508
1a04
ENDCHAR
STARTCHAR 322f
ENCODING 12847
SWIDTH 960 0
DWIDTH 14 0
BBX 14 14 0 -2
BITMAP
0840
0bf8
08a0
17fc
1000
31f0
5110
11f0
1110
11f0
1548
1524
1914
10f0
ENDCHAR
STARTCHAR 3230
ENCODING 12848
SWIDTH 960 0
DWIDTH 14 0
BBX 14 14 0 -2
BITMAP
0000
1ff8
1008
1ff8
1000
1ff8
1140
1230
1fc8
1080
27f0
2080
5ffc
0000
ENDCHAR
STARTCHAR 3231
ENCODING 12849
SWIDTH 960 0
DWIDTH 14 0
BBX 14 14 0 -2
BITMAP
1040
13f8
1110
17fc
3800
35f0
3510
51f0
1110
11f0
1548
1524
1914
10f0
ENDCHAR
STARTCHAR 3232
ENCODING 12850
SWIDTH 960 0
DWIDTH 14 0
BBX 14 14 0 -2
BITMAP
0020
3ffc
2490
27fc
3c00
25f8
2508
3df8
2508
25f8
24a8
25a4
2694
4c70
ENDCHAR
STARTCHAR 3233
ENCODING 12851
SWIDTH 960 0
DWIDTH 14 0
BBX 14 14 0 -2
BITMAP
1000
13f8
1090
7c60
13f8
1248
3a48
37f8
3648
5248
53f8
1248
1248
1258
ENDCHAR
STARTCHAR 3234
ENCODING 12852
SWIDTH 960 0
DWIDTH 14 0
BBX 14 14 0 -2
BITMAP
0840
0840
2840
2840
3e40
29f8
2840
4840
0e40
7840
0840
0840
0bfc
0800
ENDCHAR
STARTCHAR 3235
ENCODING 12853
SWIDTH 960 0
DWIDTH 14 0
BBX 14 14 0 -2
BITMAP
0000
3fe0
0040
0080
0100
0200
0400
0800
1000
2008
2008
2008
1ff8
0000
ENDCHAR
STARTCHAR 3236
ENCODING 12854
SWIDTH 960 0
DWIDTH 14 0
BBX 14 14 0 -2
BITMAP
0880
0880
0ff8
1140
12a0
3498
5ff4
1490
17f0
1490
17f0
1494
1084
107c
ENDCHAR
STARTCHAR 3237
ENCODING 12855
SWIDTH 960 0
DWIDTH 14 0
BBX 14 14 0 -2
BITMAP
1000
1078
1f48
2448
4448
7fc8
0448
2748
2448
2448
2770
3c40
6040
0040
ENDCHAR
STARTCHAR 3238
ENCODING 12856
SWIDTH 960 0
DWIDTH 14 0
BBX 14 14 0 -2
BITMAP
0000
1ff0
1110
1ff0
1110
12d0
1c30
1ff0
0100
1490
1488
2424
4424
03e0
ENDCHAR
STARTCHAR 3239
ENCODING 12857
SWIDTH 960 0
DWIDTH 14 0
BBX 14 14 0 -2
BITMAP
1000
0bf0
0a10
43f0
2210
23f0
0210
1000
17f8
1528
2528
2528
4ffc
4000
ENDCHAR
STARTCHAR 323a
ENCODING 12858
SWIDTH 960 0
DWIDTH 14 0
BBX 14 14 0 -2
BITMAP
0418
1be8
7248
1110
11f8
7c08
11f8
1808
35f8
3440
52a8
1284
1494
1070
ENDCHAR
STARTCHAR 323b
ENCODING 12859
SWIDTH 960 0
DWIDTH 14 0
BBX 14 14 0 -2
BITMAP
0100
0100
3ff8
0820
0440
7ffc
0000
0fe0
0820
0fe0
0820
0820
0fe0
0820
ENDCHAR
STARTCHAR 323c
ENCODING 12860
SWIDTH 960 0
DWIDTH 14 0
BBX 14 14 0 -2
BITMAP
0000
7ffc
0100
0100
0180
0140
0120
0110
0110
0100
0100
0100
0100
0100
ENDCHAR
STARTCHAR 323d
ENCODING 12861
SWIDTH 960 0
DWIDTH 14 0
BBX 14 14 0 -2
BITMAP
0480
0480
0488
0888
0890
18a0
28c0
4880
0880
0880
0880
0884
0884
087c
ENDCHAR
STARTCHAR 323e
ENCODING 12862
SWIDTH 960 0
DWIDTH 14 0
BBX 14 14 0 -2
BITMAP
0800
0bfc
0a00
1200
13f8
3288
5288
1250
1250
1220
1420
1450
1988
1604
ENDCHAR
STARTCHAR 323f
ENCODING 12863
SWIDTH 960 0
DWIDTH 14 0
BBX 14 14 0 -2
BITMAP
0800
0ffc
0808
1008
13c8
3248
5248
1248
13c8
1248
1008
1008
1008
1018
ENDCHAR
STARTCHAR 3240
ENCODING 12864
SWIDTH 960 0
DWIDTH 14 0
BBX 14 14 0 -2
BITMAP
0a00
0a00
0a38
1fa8
12a8
32a8
52a8
12a8
12a8
12a8
14a8
14b8
19a8
1000
ENDCHAR
STARTCHAR 3241
ENCODING 12865
SWIDTH 960 0
DWIDTH 14 0
BBX 14 14 0 -2
BITMAP
0800
0ffc
08a0
10a0
10a0
33f8
52a8
12a8
12a8
12a8
12a8
12a8
13f8
1208
ENDCHAR
STARTCHAR 3242
ENCODING 12866
SWIDTH 960 0
DWIDTH 14 0
BBX 14 14 0 -2
BITMAP
0840
0840
0840
13f8
1040
3040
57fc
1040
1040
13f8
1040
1040
17fc
1000
ENDCHAR
STARTCHAR 3243
ENCODING 12867
SWIDTH 960 0
DWIDTH 14 0
BBX 14 14 0 -2
BITMAP
0800
0800
0800
087c
7f44
0944
0944
0944
0944
0944
1144
117c
2144
4600
ENDCHAR
STARTCHAR 3244
ENCODING 12868
SWIDTH 960 0
DWIDTH 14 0
BBX 14 14 0 -2
BITMAP
0000
7ffc
0010
0010
1f10
1110
1110
1110
1f10
1110
0010
0010
0010
0030
ENDCHAR
STARTCHAR 3245
ENCODING 12869
SWIDTH 960 0
DWIDTH 14 0
BBX 14 14 0 -2
BITMAP
0100
3ff8
0100
1ff0
0000
0fe0
0820
0fe0
0440
7ffc
0400
3f78
0948
3378
ENDCHAR
STARTCHAR 3246
ENCODING 12870
SWIDTH 960 0
DWIDTH 14 0
BBX 14 14 0 -2
BITMAP
0000
7ffc
0100
0fe0
0820
0fe0
0820
0fe0
0820
0fe0
3c40
0380
06e0
781c
ENDCHAR
STARTCHAR 3247
ENCODING 12871
SWIDTH 960 0
DWIDTH 14 0
BBX 14 14 0 -2
BITMAP
1040
1040
13fc
1208
7ffc
2440
24e4
2768
78b0
4b70
0ca8
1724
2020
40c0
ENDCHAR
STARTCHAR 3248
ENCODING 12872
SWIDTH 960 0
DWIDTH 14 0
BBX 14 14 0 -2
BITMAP
0100
0100
3ffc
2008
7ff8
0200
0d48
33c8
0db0
32a0
0490
1888
6084
0300
ENDCHAR
STARTCHAR 3249
ENCODING 12873
SWIDTH 960 0
DWIDTH 14 0
BBX 14 14 0 -2
BITMAP
0100
3ffc
2008
5ff0
0200
0fe0
0820
0fe0
0820
7ffc
0fe0
725c
0440
1980
ENDCHAR
STARTCHAR 324a
ENCODING 12874
SWIDTH 960 0
DWIDTH 14 0
BBX 14 14 0 -2
BITMAP
0210
0c90
3850
0850
0910
7e90
0890
1c1c
1a70
2b90
4810
0810
0810
0810
ENDCHAR
STARTCHAR 324b
ENCODING 12875
SWIDTH 960 0
DWIDTH 14 0
BBX 14 14 0 -2
BITMAP
0000
07b8
7488
5488
57b8
5488
7400
5778
5448
5428
7730
5410
4428
04c4
ENDCHAR
STARTCHAR 324c
ENCODING 12876
SWIDTH 960 0
DWIDTH 14 0
BBX 14 14 0 -2
BITMAP
0000
1ff0
1110
1110
1ff0
1110
1ff0
0100
7ffc
0380
0540
1930
610c
0100
ENDCHAR
STARTCHAR 324d
ENCODING 12877
SWIDTH 960 0
DWIDTH 14 0
BBX 14 14 0 -2
BITMAP
1000
10f8
7e88
1288
1288
22f8
4d88
0100
7ffc
0380
0540
1930
610c
0100
ENDCHAR
STARTCHAR 324e
ENCODING 12878
SWIDTH 960 0
DWIDTH 14 0
BBX 14 14 0 -2
BITMAP
0040
7f40
0240
3a40
2afc
3aa8
0330
7f20
0220
3a60
2a50
3a90
2b08
0604
ENDCHAR
STARTCHAR 324f
ENCODING 12879
SWIDTH 960 0
DWIDTH 14 0
BBX 14 14 0 -2
BITMAP
1000
0ffc
0808
4008
23c8
2248
0248
0248
0bc8
0a48
1008
1008
2008
2018
ENDCHAR
STARTCHAR 3250
ENCODING 12880
SWIDTH 960 0
DWIDTH 14 0
BBX 14 14 0 -2
BITMAP
0100
0100
0108
1108
1110
1120
2180
2280
0240
0440
0420
0810
1008
6004
ENDCHAR
STARTCHAR 3251
ENCODING 12881
SWIDTH 960 0
DWIDTH 14 0
BBX 14 14 0 -2
BITMAP
0000
03fc
7c08
1008
11e8
1128
7d28
1128
11e8
1128
1c08
6008
0008
0018
ENDCHAR
STARTCHAR 3252
ENCODING 12882
SWIDTH 960 0
DWIDTH 14 0
BBX 14 14 0 -2
BITMAP
1000
11f0
1110
7d70
0950
0950
13f8
1a08
36e8
56a8
12e8
12a8
1208
1218
ENDCHAR
STARTCHAR 3253
ENCODING 12883
SWIDTH 960 0
DWIDTH 14 0
BBX 14 14 0 -2
BITMAP
0030
01c0
1f00
0100
0100
7ffc
0100
0380
0540
1930
610c
0100
0100
0100
ENDCHAR
STARTCHAR 3254
ENCODING 12884
SWIDTH 960 0
DWIDTH 14 0
BBX 14 14 0 -2
BITMAP
0440
1840
73fc
1208
17f8
7c40
10e4
3b68
34b0
5770
50a8
1324
1020
10c0
ENDCHAR
STARTCHAR 3255
ENCODING 12885
SWIDTH 960 0
DWIDTH 14 0
BBX 14 14 0 -2
BITMAP
1040
1ffc
28a0
4510
3ff8
2108
2fe8
2108
27c8
2448
27c8
2008
3ff8
2008
ENDCHAR
STARTCHAR 3256
ENCODING 12886
SWIDTH 960 0
DWIDTH 14 0
BBX 14 14 0 -2
BITMAP
0440
0440
7ffc
0440
0440
0480
0888
0890
18e0
2880
4880
0884
0884
087c
ENDCHAR
STARTCHAR 3257
ENCODING 12887
SWIDTH 960 0
DWIDTH 14 0
BBX 14 14 0 -2
BITMAP
0440
0440
7ffc
0440
0000
7ffc
0010
1f10
1110
1110
1f10
1110
0010
0030
ENDCHAR
STARTCHAR 3258
ENCODING 12888
SWIDTH 960 0
DWIDTH 14 0
BBX 14 14 0 -2
BITMAP
0440
0440
7ffc
0440
1440
1000
7ef8
1288
1288
1288
1288
2288
22f8
4c88
ENDCHAR
STARTCHAR 3259
ENCODING 12889
SWIDTH 960 0
DWIDTH 14 0
BBX 14 14 0 -2
BITMAP
0440
0440
7ffc
0440
0800
0bfc
1010
13d0
3250
5250
13d0
1210
1010
1030
ENDCHAR
STARTCHAR 325a
ENCODING 12890
SWIDTH 960 0
DWIDTH 14 0
BBX 14 14 0 -2
BITMAP
0440
0440
7ffc
0440
1ff0
0920
7ffc
0920
1ff8
0100
7ffc
0100
0100
0100
ENDCHAR
STARTCHAR 325b
ENCODING 12891
SWIDTH 960 0
DWIDTH 14 0
BBX 14 14 0 -2
BITMAP
0440
7ffc
0440
1ff0
1110
1ff0
1110
1ff0
0100
7ffc
0380
0d60
711c
0100
ENDCHAR
STARTCHAR 325c
ENCODING 12892
SWIDTH 960 0
DWIDTH 14 0
BBX 14 14 0 -2
BITMAP
1000
11d8
1148
7d48
55d8
5508
5500
7df8
5128
1928
15d0
1d10
6528
0144
ENDCHAR
STARTCHAR 325d
ENCODING 12893
SWIDTH 960 0
DWIDTH 14 0
BBX 14 14 0 -2
BITMAP
0000
3df8
0148
7f48
01f8
3d48
01f8
3c40
03fc
3ce0
2550
2648
3c44
2440
ENDCHAR
STARTCHAR 325e
ENCODING 12894
SWIDTH 960 0
DWIDTH 14 0
BBX 14 14 0 -2
BITMAP
0110
0110
7ffc
4910
4bf8
4950
4ffc
4950
4bf8
7840
4ffc
4040
0040
0040
ENDCHAR
STARTCHAR 325f
ENCODING 12895
SWIDTH 960 0
DWIDTH 14 0
BBX 14 14 0 -2
BITMAP
0480
048c
18f0
6884
087c
0fe0
0820
0fe0
0820
0fe0
0820
0fe0
0660
3818
ENDCHAR
STARTCHAR 3260
ENCODING 12896
SWIDTH 960 0
DWIDTH 14 0
BBX 14 14 0 -2
BITMAP
0200
2200
1238
1fa8
02a8
02a8
72a8
12a8
14a8
14a8
18b8
1b28
2600
41fc
ENDCHAR
STARTCHAR 3261
ENCODING 12897
SWIDTH 960 0
DWIDTH 14 0
BBX 14 14 0 -2
BITMAP
0000
23f0
1210
12f0
0290
07f8
7408
15e8
1528
15e8
1528
1c18
2600
41fc
ENDCHAR
STARTCHAR 3262
ENCODING 12898
SWIDTH 960 0
DWIDTH 14 0
BBX 14 14 0 -2
BITMAP
0000
1ff0
0100
3ffc
2108
5d70
0100
3ef8
2208
3ef8
3df8
2050
3c70
218c
ENDCHAR
STARTCHAR 3263
ENCODING 12899
SWIDTH 960 0
DWIDTH 14 0
BBX 14 14 0 -2
BITMAP
0820
0820
0820
3ffc
2a88
2a88
2a88
3e50
2a50
0c20
0a20
0f50
7088
0104
ENDCHAR
STARTCHAR 3264
ENCODING 12900
SWIDTH 960 0
DWIDTH 14 0
BBX 14 14 0 -2
BITMAP
0860
09a8
0f24
1124
1120
3ffc
5120
11a8
1128
1310
1d10
1134
134c
1104
ENDCHAR
STARTCHAR 3265
ENCODING 12901
SWIDTH 960 0
DWIDTH 14 0
BBX 14 14 0 -2
BITMAP
0060
10a8
13a4
10a4
54a0
57fc
54a4
54a8
54d8
5590
7eb0
44cc
408c
0184
ENDCHAR
STARTCHAR 3266
ENCODING 12902
SWIDTH 960 0
DWIDTH 14 0
BBX 14 14 0 -2
BITMAP
0280
0490
3888
0888
0880
7ffc
0888
0888
0e50
7850
0824
08d4
0b0c
1804
ENDCHAR
STARTCHAR 3267
ENCODING 12903
SWIDTH 960 0
DWIDTH 14 0
BBX 14 14 0 -2
BITMAP
0000
0ff0
0840
0840
0840
0840
7ffc
00c0
0140
0240
0440
1840
6040
00c0
ENDCHAR
STARTCHAR 3268
ENCODING 12904
SWIDTH 960 0
DWIDTH 14 0
BBX 14 14 0 -2
BITMAP
0000
7ffc
0100
0100
2fe8
2928
2928
2fe8
2928
2928
2fe8
2008
3ff8
2008
ENDCHAR
STARTCHAR 3269
ENCODING 12905
SWIDTH 960 0
DWIDTH 14 0
BBX 14 14 0 -2
BITMAP
0020
3fa0
2420
2420
3f20
2120
2120
2160
3f50
2450
2490
3f88
2108
0204
ENDCHAR
STARTCHAR 326a
ENCODING 12906
SWIDTH 960 0
DWIDTH 14 0
BBX 14 14 0 -2
BITMAP
0440
0440
7ffc
0440
1ff0
0840
0840
7ffc
00c0
0140
0640
1840
6040
00c0
ENDCHAR
STARTCHAR 326b
ENCODING 12907
SWIDTH 960 0
DWIDTH 14 0
BBX 14 14 0 -2
BITMAP
1060
10b0
13a8
7ca8
54a0
57fc
54a0
7ca8
50e8
1bb0
1490
1eb4
60cc
0184
ENDCHAR
STARTCHAR 326c
ENCODING 12908
SWIDTH 960 0
DWIDTH 14 0
BBX 14 14 0 -2
BITMAP
0800
08f8
7e88
12f8
1688
2fe0
4820
0fe0
0820
0fe0
0820
0fe0
0660
3818
ENDCHAR
STARTCHAR 326d
ENCODING 12909
SWIDTH 960 0
DWIDTH 14 0
BBX 14 14 0 -2
BITMAP
0048
3e48
2490
24fc
2590
7e90
0cfc
0c90
1490
14fc
2490
4490
04fc
0c80
ENDCHAR
STARTCHAR 326e
ENCODING 12910
SWIDTH 960 0
DWIDTH 14 0
BBX 14 14 0 -2
BITMAP
0820
0868
17a4
1aa4
28a0
7ffc
24a0
3ca8
24e8
3f90
2894
24ac
3ecc
6184
ENDCHAR
STARTCHAR 326f
ENCODING 12911
SWIDTH 960 0
DWIDTH 14 0
BBX 14 14 0 -2
BITMAP
0800
7ef8
1288
1288
26f8
4088
1ff0
1100
1fe0
1100
1ff8
2a48
2528
4030
ENDCHAR
STARTCHAR 3270
ENCODING 12912
SWIDTH 960 0
DWIDTH 14 0
BBX 14 14 0 -2
BITMAP
0100
0100
0280
0440
1830
644c
0440
0440
0440
0440
0840
0840
1040
2040
ENDCHAR
STARTCHAR 3271
ENCODING 12913
SWIDTH 960 0
DWIDTH 14 0
BBX 14 14 0 -2
BITMAP
0100
0100
0280
0440
1830
67cc
0000
0000
3ff8
0240
0220
04f0
3f08
0008
ENDCHAR
STARTCHAR 3272
ENCODING 12914
SWIDTH 960 0
DWIDTH 14 0
BBX 14 14 0 -2
BITMAP
1000
1ff8
2448
4888
3f30
2aa0
2af8
3f20
2a20
3ffc
2220
2220
2220
4620
ENDCHAR
STARTCHAR 3273
ENCODING 12915
SWIDTH 960 0
DWIDTH 14 0
BBX 14 14 0 -2
BITMAP
0000
3ff8
2008
2008
27c8
2448
2448
2448
2448
27c8
2008
2008
3ff8
2008
ENDCHAR
STARTCHAR 3274
ENCODING 12916
SWIDTH 960 0
DWIDTH 14 0
BBX 14 14 0 -2
BITMAP
0040
1080
13f8
1248
7ff8
1248
13f8
12c8
10d0
1d50
6168
027c
0444
083c
ENDCHAR
STARTCHAR 3275
ENCODING 12917
SWIDTH 960 0
DWIDTH 14 0
BBX 14 14 0 -2
BITMAP
0040
17fc
1040
13f8
7ea8
12a8
13f8
1040
17fc
18c8
6350
0d20
01d0
060c
ENDCHAR
STARTCHAR 3276
ENCODING 12918
SWIDTH 960 0
DWIDTH 14 0
BBX 14 14 0 -2
BITMAP
0000
03f8
7a08
0ae8
12a8
12a8
3aa8
0aa8
4ae8
2a08
13f8
1a08
2600
41fc
ENDCHAR
STARTCHAR 3277
ENCODING 12919
SWIDTH 960 0
DWIDTH 14 0
BBX 14 14 0 -2
BITMAP
1040
1040
1040
13f8
3848
3448
3448
53fc
1060
10a0
1090
1110
1208
1404
ENDCHAR
STARTCHAR 3278
ENCODING 12920
SWIDTH 960 0
DWIDTH 14 0
BBX 14 14 0 -2
BITMAP
1000
17f8
1110
10a0
38c0
3730
344c
5040
13f8
1040
1040
1040
17fc
1000
ENDCHAR
STARTCHAR 3279
ENCODING 12921
SWIDTH 960 0
DWIDTH 14 0
BBX 14 14 0 -2
BITMAP
1100
1100
11fc
1a00
35f0
3550
3150
57fc
1250
1250
17fc
1410
1010
1060
ENDCHAR
STARTCHAR 327a
ENCODING 12922
SWIDTH 960 0
DWIDTH 14 0
BBX 14 14 0 -2
BITMAP
1000
13fc
1200
1220
3a28
36a8
36b0
52a0
1320
1220
1250
1490
1b08
1c04
ENDCHAR
STARTCHAR 327b
ENCODING 12923
SWIDTH 960 0
DWIDTH 14 0
BBX 14 14 0 -2
BITMAP
1040
17fc
1040
1bf8
36a8
36a8
33f8
5040
17fc
10c8
1350
1d20
11d0
160c
ENDCHAR
STARTCHAR 327c
ENCODING 12924
SWIDTH 960 0
DWIDTH 14 0
BBX 14 14 0 -2
BITMAP
0090
0088
0088
7ffc
0080
1288
1288
1250
7fd0
1220
1224
2254
228c
4104
ENDCHAR
STARTCHAR 327d
ENCODING 12925
SWIDTH 960 0
DWIDTH 14 0
BBX 14 14 0 -2
BITMAP
1000
13f8
1208
7e08
13f8
1208
1000
1ff8
7088
1088
1088
1108
1208
3430
ENDCHAR
STARTCHAR 327e
ENCODING 12926
SWIDTH 960 0
DWIDTH 14 0
BBX 14 14 0 -2
BITMAP
0080
7c80
0480
04fc
0510
7d90
4690
4050
4060
4420
4460
3c90
0308
0c04
ENDCHAR
STARTCHAR 3321
ENCODING 13089
SWIDTH 960 0
DWIDTH 14 0
BBX 14 14 0 -2
BITMAP
0890
1050
3e50
2b10
3e90
2a90
3e1c
2df0
0d10
0d10
1690
17d4
2404
43fc
ENDCHAR
STARTCHAR 3322
ENCODING 13090
SWIDTH 960 0
DWIDTH 14 0
BBX 14 14 0 -2
BITMAP
0100
0100
79fc
4a00
4df0
4950
7950
4ffc
4a50
4a50
7bfc
4a10
4010
0060
ENDCHAR
STARTCHAR 3323
ENCODING 13091
SWIDTH 960 0
DWIDTH 14 0
BBX 14 14 0 -2
BITMAP
1020
1028
1024
7ffc
1020
12a8
3aa8
36a8
37f0
5290
5294
14ac
184c
1084
ENDCHAR
STARTCHAR 3324
ENCODING 13092
SWIDTH 960 0
DWIDTH 14 0
BBX 14 14 0 -2
BITMAP
1100
0900
0bfc
4200
25f0
2150
0150
1ffc
1250
1250
27fc
2410
4010
4060
ENDCHAR
STARTCHAR 3325
ENCODING 13093
SWIDTH 960 0
DWIDTH 14 0
BBX 14 14 0 -2
BITMAP
0000
1ffc
1000
1080
1088
1288
1290
14a0
1080
1140
2140
2220
4c10
300c
ENDCHAR
STARTCHAR 3326
ENCODING 13094
SWIDTH 960 0
DWIDTH 14 0
BBX 14 14 0 -2
BITMAP
0000
1ff0
1110
1ff0
1110
1ff0
1110
0280
0c60
745c
0440
0440
0840
3040
ENDCHAR
STARTCHAR 3327
ENCODING 13095
SWIDTH 960 0
DWIDTH 14 0
BBX 14 14 0 -2
BITMAP
1080
1098
1fe0
1084
1084
1d7c
6200
0fe0
0820
0fe0
0820
0820
0fe0
0820
ENDCHAR
STARTCHAR 3328
ENCODING 13096
SWIDTH 960 0
DWIDTH 14 0
BBX 14 14 0 -2
BITMAP
0820
0820
0a50
7250
1488
0d74
1200
7e00
09fc
2c40
2a50
2a98
49e4
0804
ENDCHAR
STARTCHAR 3329
ENCODING 13097
SWIDTH 960 0
DWIDTH 14 0
BBX 14 14 0 -2
BITMAP
0440
0440
7ffc
0440
0540
0280
0440
1c70
644c
0440
0840
0840
1040
2040
ENDCHAR
STARTCHAR 332a
ENCODING 13098
SWIDTH 960 0
DWIDTH 14 0
BBX 14 14 0 -2
BITMAP
1000
1df8
2848
7e98
2ba0
3ef8
2b20
3ffc
2320
4fe0
0920
0fe0
0110
3fe8
ENDCHAR
STARTCHAR 332b
ENCODING 13099
SWIDTH 960 0
DWIDTH 14 0
BBX 14 14 0 -2
BITMAP
0000
3ef8
2288
3ef8
2288
3ef8
2008
2fe8
2288
3ff8
2288
2488
2888
2018
ENDCHAR
STARTCHAR 332c
ENCODING 13100
SWIDTH 960 0
DWIDTH 14 0
BBX 14 14 0 -2
BITMAP
0120
3d24
25f8
2920
3124
29bc
2640
25f8
2508
25f8
3908
2108
21f8
2108
ENDCHAR
STARTCHAR 332d
ENCODING 13101
SWIDTH 960 0
DWIDTH 14 0
BBX 14 14 0 -2
BITMAP
0000
1ff0
1010
1010
1ff0
1010
1010
1ff0
1010
1010
1ff0
0440
1830
6008
ENDCHAR
STARTCHAR 332e
ENCODING 13102
SWIDTH 960 0
DWIDTH 14 0
BBX 14 14 0 -2
BITMAP
0800
2af0
2a90
3e90
0090
7e90
0090
3e90
2290
3e90
2490
1494
1f14
620c
ENDCHAR
STARTCHAR 332f
ENCODING 13103
SWIDTH 960 0
DWIDTH 14 0
BBX 14 14 0 -2
BITMAP
0840
0840
7f40
1040
15f8
6448
1848
0a48
1248
2448
0c88
1288
2108
4230
ENDCHAR
STARTCHAR 3330
ENCODING 13104
SWIDTH 960 0
DWIDTH 14 0
BBX 14 14 0 -2
BITMAP
0840
0840
0840
0f40
09c0
1140
1960
2658
4244
0440
0440
0840
1040
2040
ENDCHAR
STARTCHAR 3331
ENCODING 13105
SWIDTH 960 0
DWIDTH 14 0
BBX 14 14 0 -2
BITMAP
0040
0040
7ffc
4840
4a48
4990
48a0
4848
4890
7b20
4860
4090
0308
0c04
ENDCHAR
STARTCHAR 3332
ENCODING 13106
SWIDTH 960 0
DWIDTH 14 0
BBX 14 14 0 -2
BITMAP
0100
3ffc
2108
5ff0
0100
1ff0
0100
7ffc
0000
0fe0
0820
0820
0fe0
0820
ENDCHAR
STARTCHAR 3333
ENCODING 13107
SWIDTH 960 0
DWIDTH 14 0
BBX 14 14 0 -2
BITMAP
0100
1110
1ff0
0000
1ffc
1080
17f0
1080
1ff8
1080
27f0
2080
5ffc
0000
ENDCHAR
STARTCHAR 3334
ENCODING 13108
SWIDTH 960 0
DWIDTH 14 0
BBX 14 14 0 -2
BITMAP
1000
17f8
1550
1550
3f50
3d50
35fc
5710
1530
14b0
15d0
1654
1c94
110c
ENDCHAR
STARTCHAR 3335
ENCODING 13109
SWIDTH 960 0
DWIDTH 14 0
BBX 14 14 0 -2
BITMAP
1000
17fc
1510
7d50
1750
1550
3dfc
3730
3630
5530
55d0
16d4
1c94
110c
ENDCHAR
STARTCHAR 3336
ENCODING 13110
SWIDTH 960 0
DWIDTH 14 0
BBX 14 14 0 -2
BITMAP
1000
0bfc
0a20
4220
22f8
2220
03fc
0220
1220
12f8
2420
2420
4bfc
4000
ENDCHAR
STARTCHAR 3337
ENCODING 13111
SWIDTH 960 0
DWIDTH 14 0
BBX 14 14 0 -2
BITMAP
0000
7df8
1108
11f8
1108
3df8
2400
65f8
2410
27fc
3d10
2090
2090
0030
ENDCHAR
STARTCHAR 3338
ENCODING 13112
SWIDTH 960 0
DWIDTH 14 0
BBX 14 14 0 -2
BITMAP
0440
7ffc
0540
1ff0
0100
7ffc
0240
3ff0
0008
1ff0
1290
1290
7ffc
0000
ENDCHAR
STARTCHAR 3339
ENCODING 13113
SWIDTH 960 0
DWIDTH 14 0
BBX 14 14 0 -2
BITMAP
1100
113c
27c0
4900
0900
17fc
1108
3108
57c8
1108
1108
11c8
1608
1018
ENDCHAR
STARTCHAR 333a
ENCODING 13114
SWIDTH 960 0
DWIDTH 14 0
BBX 14 14 0 -2
BITMAP
0040
3c40
03fc
7c40
0050
3d90
00a0
3c68
0048
3c90
2530
2448
3d84
2604
ENDCHAR
STARTCHAR 333b
ENCODING 13115
SWIDTH 960 0
DWIDTH 14 0
BBX 14 14 0 -2
BITMAP
0820
08a8
14a8
12f8
2200
5dfc
0800
7ef8
0888
2af8
1c88
1850
0ffc
7000
ENDCHAR
STARTCHAR 333c
ENCODING 13116
SWIDTH 960 0
DWIDTH 14 0
BBX 14 14 0 -2
BITMAP
0020
3e20
23fc
2e40
2a50
7f90
42a0
7e68
2248
3e90
2230
3e48
2284
2704
ENDCHAR
STARTCHAR 333d
ENCODING 13117
SWIDTH 960 0
DWIDTH 14 0
BBX 14 14 0 -2
BITMAP
1000
0bf8
0a48
4248
23f8
2248
0248
0bf8
0840
0bf8
1040
1040
27fc
2000
ENDCHAR
STARTCHAR 333e
ENCODING 13118
SWIDTH 960 0
DWIDTH 14 0
BBX 14 14 0 -2
BITMAP
0870
7f54
089c
3ef0
2a50
3e70
27cc
4100
7ffc
0540
1ff0
67cc
0440
07c0
ENDCHAR
STARTCHAR 333f
ENCODING 13119
SWIDTH 960 0
DWIDTH 14 0
BBX 14 14 0 -2
BITMAP
0820
0820
0820
3ef8
2a20
2a20
2bfc
3e20
2a20
0cf8
0a20
0e20
73fc
0000
ENDCHAR
STARTCHAR 3340
ENCODING 13120
SWIDTH 960 0
DWIDTH 14 0
BBX 14 14 0 -2
BITMAP
0000
17fc
1000
11f0
7d10
1110
11f0
1110
1510
19f0
6110
0000
0ffc
0000
ENDCHAR
STARTCHAR 3341
ENCODING 13121
SWIDTH 960 0
DWIDTH 14 0
BBX 14 14 0 -2
BITMAP
0820
0820
0820
7ffc
0820
1820
1dfc
1b24
2b24
2924
4924
092c
0820
0820
ENDCHAR
STARTCHAR 3342
ENCODING 13122
SWIDTH 960 0
DWIDTH 14 0
BBX 14 14 0 -2
BITMAP
0800
08fc
0880
3e80
2afc
2aa0
2aa0
3ebc
2aa4
0ca4
0b44
0f44
7284
0118
ENDCHAR
STARTCHAR 3343
ENCODING 13123
SWIDTH 960 0
DWIDTH 14 0
BBX 14 14 0 -2
BITMAP
0880
0880
1480
12f8
2308
5e48
0848
7ec8
08a8
2bd8
1c08
1808
0e08
7030
ENDCHAR
STARTCHAR 3344
ENCODING 13124
SWIDTH 960 0
DWIDTH 14 0
BBX 14 14 0 -2
BITMAP
0808
3f48
0948
7fc8
0948
3f48
0848
7fc8
2948
3f48
2948
3f08
0708
7818
ENDCHAR
STARTCHAR 3345
ENCODING 13125
SWIDTH 960 0
DWIDTH 14 0
BBX 14 14 0 -2
BITMAP
0210
0210
7ffc
5210
5210
5ffc
5528
5568
5dec
7dac
556c
4948
0948
1398
ENDCHAR
STARTCHAR 3346
ENCODING 13126
SWIDTH 960 0
DWIDTH 14 0
BBX 14 14 0 -2
BITMAP
0200
0200
07f0
0c20
1240
2180
0340
0c30
7fec
0820
0820
0820
0fe0
0820
ENDCHAR
STARTCHAR 3347
ENCODING 13127
SWIDTH 960 0
DWIDTH 14 0
BBX 14 14 0 -2
BITMAP
0080
1ffc
1100
1ffc
1024
17a8
14b0
17a8
1024
17a4
21a4
2f38
4120
0320
ENDCHAR
STARTCHAR 3348
ENCODING 13128
SWIDTH 960 0
DWIDTH 14 0
BBX 14 14 0 -2
BITMAP
1020
1020
11fc
7d00
1120
1120
1120
1d20
7120
1150
1248
127c
1784
3804
ENDCHAR
STARTCHAR 3349
ENCODING 13129
SWIDTH 960 0
DWIDTH 14 0
BBX 14 14 0 -2
BITMAP
1288
1150
13fc
7e08
15f0
1110
11f0
1d10
71f0
1110
11f0
10a4
1124
361c
ENDCHAR
STARTCHAR 334a
ENCODING 13130
SWIDTH 960 0
DWIDTH 14 0
BBX 14 14 0 -2
BITMAP
0840
0840
0878
7e88
0950
1820
1c50
1a88
2bfc
2888
4888
0888
08f8
0888
ENDCHAR
STARTCHAR 334b
ENCODING 13131
SWIDTH 960 0
DWIDTH 14 0
BBX 14 14 0 -2
BITMAP
0820
0820
09fc
7e20
0948
1c88
1a50
1a20
2848
2990
4830
0848
0984
0e04
ENDCHAR
STARTCHAR 334c
ENCODING 13132
SWIDTH 960 0
DWIDTH 14 0
BBX 14 14 0 -2
BITMAP
0800
0870
7f50
0854
3e54
008c
3f00
22f8
5c88
1450
1450
1620
24d0
430c
ENDCHAR
STARTCHAR 334d
ENCODING 13133
SWIDTH 960 0
DWIDTH 14 0
BBX 14 14 0 -2
BITMAP
0910
4ffc
3130
11fc
3320
4df8
0920
19fc
2800
4bf8
0890
0860
30f0
170c
ENDCHAR
STARTCHAR 334e
ENCODING 13134
SWIDTH 960 0
DWIDTH 14 0
BBX 14 14 0 -2
BITMAP
0040
7e40
11fc
1148
1290
3ca0
25fc
6720
25f8
2520
3df8
2520
21fc
0100
ENDCHAR
STARTCHAR 334f
ENCODING 13135
SWIDTH 960 0
DWIDTH 14 0
BBX 14 14 0 -2
BITMAP
0490
0bfc
70b0
11fc
1320
7df8
1120
19fc
3400
37f8
5090
1060
10f0
170c
ENDCHAR
STARTCHAR 3350
ENCODING 13136
SWIDTH 960 0
DWIDTH 14 0
BBX 14 14 0 -2
BITMAP
1210
0920
3ffc
2008
4fe0
0820
0fe0
0820
0fe0
0820
0fe0
0284
0c84
707c
ENDCHAR
STARTCHAR 3351
ENCODING 13137
SWIDTH 960 0
DWIDTH 14 0
BBX 14 14 0 -2
BITMAP
0200
07e0
1880
6100
1ff0
1110
1ff0
1110
1110
1ff0
1010
1010
2010
4030
ENDCHAR
STARTCHAR 3352
ENCODING 13138
SWIDTH 960 0
DWIDTH 14 0
BBX 14 14 0 -2
BITMAP
0820
0820
3ef8
0820
0820
7ffc
1450
36d0
35d8
5554
1654
2490
2490
4d30
ENDCHAR
STARTCHAR 3353
ENCODING 13139
SWIDTH 960 0
DWIDTH 14 0
BBX 14 14 0 -2
BITMAP
0820
0820
7f20
09fc
3e50
2a88
3f94
2a90
3e50
0860
7f20
0850
0888
0904
ENDCHAR
STARTCHAR 3354
ENCODING 13140
SWIDTH 960 0
DWIDTH 14 0
BBX 14 14 0 -2
BITMAP
0400
7ff8
0048
1f50
1150
1f60
0050
3f48
0244
0744
7c64
0458
0440
0c40
ENDCHAR
STARTCHAR 3355
ENCODING 13141
SWIDTH 960 0
DWIDTH 14 0
BBX 14 14 0 -2
BITMAP
0000
3ef8
2288
3ef8
2288
3ef8
23c8
2e48
2188
22c8
3ff8
2448
27c8
2458
ENDCHAR
STARTCHAR 3356
ENCODING 13142
SWIDTH 960 0
DWIDTH 14 0
BBX 14 14 0 -2
BITMAP
0000
3ff8
2400
29f0
2910
31f0
2800
27f8
26a8
2738
3af8
2248
2248
2258
ENDCHAR
STARTCHAR 3357
ENCODING 13143
SWIDTH 960 0
DWIDTH 14 0
BBX 14 14 0 -2
BITMAP
0440
0440
7ffc
0440
07c0
0100
1ff0
1110
1ff0
0100
7ffc
0100
0100
0100
ENDCHAR
STARTCHAR 3358
ENCODING 13144
SWIDTH 960 0
DWIDTH 14 0
BBX 14 14 0 -2
BITMAP
1210
0910
0920
3ffc
2008
4fe0
0040
0080
0100
7ffc
0100
0100
0100
0300
ENDCHAR
STARTCHAR 3359
ENCODING 13145
SWIDTH 960 0
DWIDTH 14 0
BBX 14 14 0 -2
BITMAP
0020
00c0
0f00
0800
0ff8
0840
0840
7ffc
0100
1110
1110
1110
1ff0
1010
ENDCHAR
STARTCHAR 335a
ENCODING 13146
SWIDTH 960 0
DWIDTH 14 0
BBX 14 14 0 -2
BITMAP
0100
2208
17c8
1450
07e0
1c58
67c4
0100
7ffc
0380
0540
1930
610c
0100
ENDCHAR
STARTCHAR 335b
ENCODING 13147
SWIDTH 960 0
DWIDTH 14 0
BBX 14 14 0 -2
BITMAP
0800
09fc
3f20
2940
4ef8
1288
34f8
0c88
12f8
3f88
52f8
1250
1e88
1304
ENDCHAR
STARTCHAR 335c
ENCODING 13148
SWIDTH 960 0
DWIDTH 14 0
BBX 14 14 0 -2
BITMAP
0000
77fc
5520
5540
77f8
0088
3ef8
0088
7ff8
1088
1ef8
2250
0288
0f04
ENDCHAR
STARTCHAR 335d
ENCODING 13149
SWIDTH 960 0
DWIDTH 14 0
BBX 14 14 0 -2
BITMAP
1110
1110
17d0
7910
1110
17f8
1914
1114
37f0
5110
1110
11d0
1e10
3010
ENDCHAR
STARTCHAR 335e
ENCODING 13150
SWIDTH 960 0
DWIDTH 14 0
BBX 14 14 0 -2
BITMAP
1040
1040
1ffc
18a0
2510
4510
0100
3ff8
0020
0820
0440
0480
7ffc
0000
ENDCHAR
STARTCHAR 335f
ENCODING 13151
SWIDTH 960 0
DWIDTH 14 0
BBX 14 14 0 -2
BITMAP
1000
13f8
12a8
7fe8
1250
13d0
3aa8
37c4
3440
53f8
5040
1040
17fc
1000
ENDCHAR
STARTCHAR 3360
ENCODING 13152
SWIDTH 960 0
DWIDTH 14 0
BBX 14 14 0 -2
BITMAP
1000
17fc
1000
7df0
1150
19f0
3550
37f8
3000
51f0
5150
11f0
1150
17fc
ENDCHAR
STARTCHAR 3361
ENCODING 13153
SWIDTH 960 0
DWIDTH 14 0
BBX 14 14 0 -2
BITMAP
0800
09f8
0908
7ff8
0908
19f0
1d40
1bf8
2b40
29fc
4940
0a44
0a44
0c3c
ENDCHAR
STARTCHAR 3362
ENCODING 13154
SWIDTH 960 0
DWIDTH 14 0
BBX 14 14 0 -2
BITMAP
0830
09d0
1e90
2494
7eb4
2bf4
3eb8
2ad0
3ff0
05a8
3aa8
2ec8
28c4
4084
ENDCHAR
STARTCHAR 3363
ENCODING 13155
SWIDTH 960 0
DWIDTH 14 0
BBX 14 14 0 -2
BITMAP
1080
0b38
0a08
43b8
2208
23f8
0100
13fc
1624
2a94
2554
4544
4804
4018
ENDCHAR
STARTCHAR 3364
ENCODING 13156
SWIDTH 960 0
DWIDTH 14 0
BBX 14 14 0 -2
BITMAP
0808
7f48
4948
7f48
0848
3e48
0848
7f48
0048
3e48
2248
2208
3e08
2218
ENDCHAR
STARTCHAR 3365
ENCODING 13157
SWIDTH 960 0
DWIDTH 14 0
BBX 14 14 0 -2
BITMAP
0000
03f0
7a10
4bf0
4a10
4bf0
4880
49f8
4e68
7b88
4a08
4228
01e8
0030
ENDCHAR
STARTCHAR 3366
ENCODING 13158
SWIDTH 960 0
DWIDTH 14 0
BBX 14 14 0 -2
BITMAP
1040
1040
10a0
18a0
3510
37f8
3404
5000
11f0
1110
1110
1110
11f0
1110
ENDCHAR
STARTCHAR 3367
ENCODING 13159
SWIDTH 960 0
DWIDTH 14 0
BBX 14 14 0 -2
BITMAP
1008
1030
13c0
7c40
1040
17fc
1040
1c40
73f8
1208
1208
1208
13f8
3208
ENDCHAR
STARTCHAR 3368
ENCODING 13160
SWIDTH 960 0
DWIDTH 14 0
BBX 14 14 0 -2
BITMAP
1008
0830
0bc0
4040
2040
27fc
0040
1040
13f8
1208
2208
2208
43f8
4208
ENDCHAR
STARTCHAR 3369
ENCODING 13161
SWIDTH 960 0
DWIDTH 14 0
BBX 14 14 0 -2
BITMAP
1000
0bf0
0a10
43f0
2210
23f0
0100
13f8
1648
1b88
2208
2228
41e8
4030
ENDCHAR
STARTCHAR 336a
ENCODING 13162
SWIDTH 960 0
DWIDTH 14 0
BBX 14 14 0 -2
BITMAP
1000
0bf0
0a10
42f0
2290
27fc
0404
17f8
1a10
13f0
2210
23f0
4210
4230
ENDCHAR
STARTCHAR 336b
ENCODING 13163
SWIDTH 960 0
DWIDTH 14 0
BBX 14 14 0 -2
BITMAP
0440
7ffc
0440
0fe0
0820
0fe0
0820
0fe0
07f8
18c8
6f08
0848
07c8
0070
ENDCHAR
STARTCHAR 336c
ENCODING 13164
SWIDTH 960 0
DWIDTH 14 0
BBX 14 14 0 -2
BITMAP
1000
11f0
1110
7df0
0910
0bf0
1480
19f8
3728
55c8
1108
1128
10e8
1030
ENDCHAR
STARTCHAR 336d
ENCODING 13165
SWIDTH 960 0
DWIDTH 14 0
BBX 14 14 0 -2
BITMAP
0820
0820
7ffc
0924
3ff8
2a20
3ef8
2a20
3ffc
0800
7ff8
0888
08f8
0888
ENDCHAR
STARTCHAR 336e
ENCODING 13166
SWIDTH 960 0
DWIDTH 14 0
BBX 14 14 0 -2
BITMAP
0000
0fe0
0820
0820
0820
0fe0
0820
0820
0fe0
0820
0820
0820
7ffc
0000
ENDCHAR
STARTCHAR 336f
ENCODING 13167
SWIDTH 960 0
DWIDTH 14 0
BBX 14 14 0 -2
BITMAP
0800
09fc
1f44
25f4
7f28
2be8
3f54
2be4
3e20
04f8
3a20
2e20
29fc
4000
ENDCHAR
STARTCHAR 3370
ENCODING 13168
SWIDTH 960 0
DWIDTH 14 0
BBX 14 14 0 -2
BITMAP
0040
0040
7840
4840
4840
4ffc
4840
4840
4840
7840
4840
4040
0040
0040
ENDCHAR
STARTCHAR 3371
ENCODING 13169
SWIDTH 960 0
DWIDTH 14 0
BBX 14 14 0 -2
BITMAP
0890
0890
0bfc
7e90
0840
1c64
1aa4
1ba8
29b0
2aa0
48a0
08a4
08a4
089c
ENDCHAR
STARTCHAR 3372
ENCODING 13170
SWIDTH 960 0
DWIDTH 14 0
BBX 14 14 0 -2
BITMAP
1110
1110
17fc
7d10
13f8
1950
37fc
3550
33f8
5040
57fc
1040
1040
1040
ENDCHAR
STARTCHAR 3373
ENCODING 13171
SWIDTH 960 0
DWIDTH 14 0
BBX 14 14 0 -2
BITMAP
1440
1440
7ff8
1488
1de8
0828
3e28
2ae8
3eb0
0880
7f80
0884
0884
087c
ENDCHAR
STARTCHAR 3374
ENCODING 13172
SWIDTH 960 0
DWIDTH 14 0
BBX 14 14 0 -2
BITMAP
0820
08a0
08a0
7ff8
0920
1a20
1ffc
1a60
2a70
28b0
4928
0a24
0820
0820
ENDCHAR
STARTCHAR 3375
ENCODING 13173
SWIDTH 960 0
DWIDTH 14 0
BBX 14 14 0 -2
BITMAP
0080
0900
37f8
2448
27c8
2448
37d8
2008
0480
0480
0480
0884
1084
607c
ENDCHAR
STARTCHAR 3376
ENCODING 13174
SWIDTH 960 0
DWIDTH 14 0
BBX 14 14 0 -2
BITMAP
0100
3ffc
2d48
77b8
3ff8
0920
0fe0
0920
1ff0
1110
1ff0
1114
1ff4
10fc
ENDCHAR
STARTCHAR 3377
ENCODING 13175
SWIDTH 960 0
DWIDTH 14 0
BBX 14 14 0 -2
BITMAP
0440
0440
7ffc
0450
1048
0ffc
4840
23f8
2a48
0bf8
1248
13f8
2248
2258
ENDCHAR
STARTCHAR 3378
ENCODING 13176
SWIDTH 960 0
DWIDTH 14 0
BBX 14 14 0 -2
BITMAP
0240
0c30
3248
0180
02c0
0c30
7fec
0100
1ff0
0920
0520
0540
7ffc
0000
ENDCHAR
STARTCHAR 3379
ENCODING 13177
SWIDTH 960 0
DWIDTH 14 0
BBX 14 14 0 -2
BITMAP
1110
10a0
1bfc
24a0
27f8
78a8
13fc
7ca8
13f8
54a8
39b0
32a8
1ca4
60a0
ENDCHAR
STARTCHAR 337a
ENCODING 13178
SWIDTH 960 0
DWIDTH 14 0
BBX 14 14 0 -2
BITMAP
0040
0140
7978
4940
4ffc
4b58
4ad8
4ae8
4bf8
7ae8
4b58
4248
03f8
0208
ENDCHAR
STARTCHAR 337b
ENCODING 13179
SWIDTH 960 0
DWIDTH 14 0
BBX 14 14 0 -2
BITMAP
0020
7c40
55f0
5510
7df0
5510
55f0
7dfc
5500
11fc
1154
12ac
1284
1418
ENDCHAR
STARTCHAR 337c
ENCODING 13180
SWIDTH 960 0
DWIDTH 14 0
BBX 14 14 0 -2
BITMAP
0800
0bfc
0820
7e40
09f8
1908
1d08
1b08
2bf8
2908
4908
0908
09f8
0908
ENDCHAR
STARTCHAR 337d
ENCODING 13181
SWIDTH 960 0
DWIDTH 14 0
BBX 14 14 0 -2
BITMAP
0440
0440
7ffc
0440
1ff0
04c0
0300
7ffc
0118
0360
0500
1900
6100
0300
ENDCHAR
STARTCHAR 337e
ENCODING 13182
SWIDTH 960 0
DWIDTH 14 0
BBX 14 14 0 -2
BITMAP
0440
7ffc
0540
3ffc
2008
7ff8
0000
0fe0
0820
0fe0
0820
0fe0
0000
7ffc
ENDCHAR
STARTCHAR 3421
ENCODING 13345
SWIDTH 960 0
DWIDTH 14 0
BBX 14 14 0 -2
BITMAP
0100
7138
1948
1548
75b8
4120
4fe0
7138
53a8
1348
1548
1908
1108
6130
ENDCHAR
STARTCHAR 3422
ENCODING 13346
SWIDTH 960 0
DWIDTH 14 0
BBX 14 14 0 -2
BITMAP
0208
0248
0248
2248
1248
0c48
0448
0648
0a48
0948
1148
1008
2008
4018
ENDCHAR
STARTCHAR 3423
ENCODING 13347
SWIDTH 960 0
DWIDTH 14 0
BBX 14 14 0 -2
BITMAP
0440
0440
7ffc
0440
0440
0208
2248
1248
0c48
0448
0c48
1248
2208
4018
ENDCHAR
STARTCHAR 3424
ENCODING 13348
SWIDTH 960 0
DWIDTH 14 0
BBX 14 14 0 -2
BITMAP
0000
7ffc
0400
0400
07c0
0440
0440
0640
0940
0940
0840
09c4
0e44
703c
ENDCHAR
STARTCHAR 3425
ENCODING 13349
SWIDTH 960 0
DWIDTH 14 0
BBX 14 14 0 -2
BITMAP
0880
0880
7ffc
0880
3f00
22f8
3e10
2220
3e40
0840
7f80
0884
0884
087c
ENDCHAR
STARTCHAR 3426
ENCODING 13350
SWIDTH 960 0
DWIDTH 14 0
BBX 14 14 0 -2
BITMAP
0800
0bf8
0a08
1208
1208
33f8
5000
1290
1290
1290
1290
1494
1494
180c
ENDCHAR
STARTCHAR 3427
ENCODING 13351
SWIDTH 960 0
DWIDTH 14 0
BBX 14 14 0 -2
BITMAP
0000
3ffc
2008
7e10
0010
01fc
7f10
1490
1490
1410
1410
2434
2404
43fc
ENDCHAR
STARTCHAR 3428
ENCODING 13352
SWIDTH 960 0
DWIDTH 14 0
BBX 14 14 0 -2
BITMAP
0100
3ffc
2448
7ff8
0440
1ff0
0440
7ffc
0440
1b30
608c
0600
0180
0040
ENDCHAR
STARTCHAR 3429
ENCODING 13353
SWIDTH 960 0
DWIDTH 14 0
BBX 14 14 0 -2
BITMAP
0008
7f48
0848
0848
0848
0848
7f48
0848
0848
0848
0848
0808
0808
0818
ENDCHAR
STARTCHAR 342a
ENCODING 13354
SWIDTH 960 0
DWIDTH 14 0
BBX 14 14 0 -2
BITMAP
1240
1240
7f40
12f8
1e48
1248
1e48
1248
7fc8
2c48
2d48
3388
3f88
2130
ENDCHAR
STARTCHAR 342b
ENCODING 13355
SWIDTH 960 0
DWIDTH 14 0
BBX 14 14 0 -2
BITMAP
1040
1040
3f40
28f8
5f48
1448
3f48
6448
3f48
2448
3f48
2488
3f88
2130
ENDCHAR
STARTCHAR 342c
ENCODING 13356
SWIDTH 960 0
DWIDTH 14 0
BBX 14 14 0 -2
BITMAP
1110
0910
0920
3ff8
0280
7ffc
0440
1ff0
604c
0fc0
0840
0808
0808
07f8
ENDCHAR
STARTCHAR 342d
ENCODING 13357
SWIDTH 960 0
DWIDTH 14 0
BBX 14 14 0 -2
BITMAP
0080
00f0
7920
4a40
4ff8
4aa8
4aa8
4ab8
4b28
7a48
4ffc
40a0
0318
0c04
ENDCHAR
STARTCHAR 342e
ENCODING 13358
SWIDTH 960 0
DWIDTH 14 0
BBX 14 14 0 -2
BITMAP
0110
17fc
1110
11f0
7d10
11f0
1110
17fc
12a0
1aa8
6318
0200
03fc
0200
ENDCHAR
STARTCHAR 342f
ENCODING 13359
SWIDTH 960 0
DWIDTH 14 0
BBX 14 14 0 -2
BITMAP
0100
0100
3ff8
0440
0e80
03c0
1c30
0820
7ffc
1248
34d0
0c30
1a68
6184
ENDCHAR
STARTCHAR 3430
ENCODING 13360
SWIDTH 960 0
DWIDTH 14 0
BBX 14 14 0 -2
BITMAP
0100
0100
3ffc
2008
4fe0
0000
0000
7ffc
0480
0480
0480
0884
1084
607c
ENDCHAR
STARTCHAR 3431
ENCODING 13361
SWIDTH 960 0
DWIDTH 14 0
BBX 14 14 0 -2
BITMAP
0100
0100
3ffc
2008
4fe0
0820
0820
0fe0
0800
0ff0
0810
0810
0ff0
0810
ENDCHAR
STARTCHAR 3432
ENCODING 13362
SWIDTH 960 0
DWIDTH 14 0
BBX 14 14 0 -2
BITMAP
0100
3ffc
2448
7ff8
0440
0fe0
0820
0fa0
0be0
0820
0fe0
0284
0c84
707c
ENDCHAR
STARTCHAR 3433
ENCODING 13363
SWIDTH 960 0
DWIDTH 14 0
BBX 14 14 0 -2
BITMAP
0000
3ff8
0100
0100
0100
0100
7ffc
0100
0100
0100
0100
0100
0100
0100
ENDCHAR
STARTCHAR 3434
ENCODING 13364
SWIDTH 960 0
DWIDTH 14 0
BBX 14 14 0 -2
BITMAP
0820
0820
7f50
0888
3f04
22f8
3e20
2220
3ffc
0820
7f20
0820
0820
0820
ENDCHAR
STARTCHAR 3435
ENCODING 13365
SWIDTH 960 0
DWIDTH 14 0
BBX 14 14 0 -2
BITMAP
0100
0fe0
0920
0fe0
0100
1ff0
1110
1ff0
0100
1490
1488
2424
4424
03e0
ENDCHAR
STARTCHAR 3436
ENCODING 13366
SWIDTH 960 0
DWIDTH 14 0
BBX 14 14 0 -2
BITMAP
0090
0088
1ffc
1088
1f48
1050
2f20
2954
4f8c
0104
2488
24a4
4424
03e0
ENDCHAR
STARTCHAR 3437
ENCODING 13367
SWIDTH 960 0
DWIDTH 14 0
BBX 14 14 0 -2
BITMAP
1000
11f8
1148
17fc
3a50
37f8
3608
53f8
1208
13f8
1208
13f8
1198
1604
ENDCHAR
STARTCHAR 3438
ENCODING 13368
SWIDTH 960 0
DWIDTH 14 0
BBX 14 14 0 -2
BITMAP
1028
13fc
1220
1be8
3628
37d0
3354
55ec
1884
1150
1548
1514
1914
10f0
ENDCHAR
STARTCHAR 3439
ENCODING 13369
SWIDTH 960 0
DWIDTH 14 0
BBX 14 14 0 -2
BITMAP
1080
10f0
1120
7ff8
12a8
12a8
1338
1a58
7040
17fc
1040
10a0
1110
360c
ENDCHAR
STARTCHAR 343a
ENCODING 13370
SWIDTH 960 0
DWIDTH 14 0
BBX 14 14 0 -2
BITMAP
0040
3f40
0440
0440
7ffc
1288
1f88
1250
1e50
1320
1e20
6250
0288
0304
ENDCHAR
STARTCHAR 343b
ENCODING 13371
SWIDTH 960 0
DWIDTH 14 0
BBX 14 14 0 -2
BITMAP
0888
0888
0888
7ffc
0888
1888
1c88
1af8
2a88
2888
4888
0888
08f8
0888
ENDCHAR
STARTCHAR 343c
ENCODING 13372
SWIDTH 960 0
DWIDTH 14 0
BBX 14 14 0 -2
BITMAP
0800
09fc
0800
7ef8
0888
1888
1cf8
1a88
2a88
28f8
4888
0800
0bfc
0800
ENDCHAR
STARTCHAR 343d
ENCODING 13373
SWIDTH 960 0
DWIDTH 14 0
BBX 14 14 0 -2
BITMAP
0840
0840
0bfc
7e08
09f0
1910
1d10
1bf0
2b00
29f8
4908
0908
09f8
0908
ENDCHAR
STARTCHAR 343e
ENCODING 13374
SWIDTH 960 0
DWIDTH 14 0
BBX 14 14 0 -2
BITMAP
0840
0840
7f40
0840
3efc
00a8
3f30
0020
7f20
0c60
2a50
2a90
4908
1a04
ENDCHAR
STARTCHAR 343f
ENCODING 13375
SWIDTH 960 0
DWIDTH 14 0
BBX 14 14 0 -2
BITMAP
1040
1040
1f40
2840
7ffc
14a8
1f30
3420
5f20
1420
1f50
1450
1f88
1104
ENDCHAR
STARTCHAR 3440
ENCODING 13376
SWIDTH 960 0
DWIDTH 14 0
BBX 14 14 0 -2
BITMAP
1000
0bf8
0840
4040
2040
2040
07fc
0840
0840
0840
1040
1040
2040
2040
ENDCHAR
STARTCHAR 3441
ENCODING 13377
SWIDTH 960 0
DWIDTH 14 0
BBX 14 14 0 -2
BITMAP
1120
0920
0ffc
4120
23f8
2248
03f8
1040
13f8
1040
27fc
20a0
4110
460c
ENDCHAR
STARTCHAR 3442
ENCODING 13378
SWIDTH 960 0
DWIDTH 14 0
BBX 14 14 0 -2
BITMAP
2000
1f78
1948
4f78
2948
2f78
0808
0be8
1a28
1be8
2a28
2be8
4a28
4818
ENDCHAR
STARTCHAR 3443
ENCODING 13379
SWIDTH 960 0
DWIDTH 14 0
BBX 14 14 0 -2
BITMAP
1100
0900
0bf8
4280
27fc
2920
03fc
1220
17f8
2a20
23f8
4220
43fc
4200
ENDCHAR
STARTCHAR 3444
ENCODING 13380
SWIDTH 960 0
DWIDTH 14 0
BBX 14 14 0 -2
BITMAP
0000
03f8
7ea8
13f8
1000
17fc
7df0
1110
11f8
14c8
19b0
6690
008c
0080
ENDCHAR
STARTCHAR 3445
ENCODING 13381
SWIDTH 960 0
DWIDTH 14 0
BBX 14 14 0 -2
BITMAP
0820
0820
0820
0820
7ffc
0820
0820
0820
0fe0
0820
0820
0820
0fe0
0820
ENDCHAR
STARTCHAR 3446
ENCODING 13382
SWIDTH 960 0
DWIDTH 14 0
BBX 14 14 0 -2
BITMAP
0040
3f40
2440
3efc
2280
3f00
2478
3f00
2000
1ff0
1290
1290
7ffc
0000
ENDCHAR
STARTCHAR 3447
ENCODING 13383
SWIDTH 960 0
DWIDTH 14 0
BBX 14 14 0 -2
BITMAP
0030
1fc0
0200
3ff8
0200
7ffc
0400
07f0
0c10
0ff0
1410
27f0
4410
07f0
ENDCHAR
STARTCHAR 3448
ENCODING 13384
SWIDTH 960 0
DWIDTH 14 0
BBX 14 14 0 -2
BITMAP
1040
1040
1ffc
28a0
2510
4210
3ff8
0100
0100
7ffc
0100
0100
0100
0100
ENDCHAR
STARTCHAR 3449
ENCODING 13385
SWIDTH 960 0
DWIDTH 14 0
BBX 14 14 0 -2
BITMAP
1040
1ffc
29a0
4510
3ffc
2008
4fe0
0820
0fe0
0800
0ff0
0810
0ff0
0810
ENDCHAR
STARTCHAR 344a
ENCODING 13386
SWIDTH 960 0
DWIDTH 14 0
BBX 14 14 0 -2
BITMAP
1040
1ffc
28a0
4510
3ef8
2288
3ef8
2288
3ff8
2448
27c8
2448
27c8
2418
ENDCHAR
STARTCHAR 344b
ENCODING 13387
SWIDTH 960 0
DWIDTH 14 0
BBX 14 14 0 -2
BITMAP
081c
09e4
0aa8
7250
17fc
0c40
13fc
7e40
0c78
2ac8
2ab0
2930
4ac8
0b04
ENDCHAR
STARTCHAR 344c
ENCODING 13388
SWIDTH 960 0
DWIDTH 14 0
BBX 14 14 0 -2
BITMAP
0800
0800
0800
1ff8
1100
2100
7ffc
0100
1110
1110
1110
1110
1ff0
1010
ENDCHAR
STARTCHAR 344d
ENCODING 13389
SWIDTH 960 0
DWIDTH 14 0
BBX 14 14 0 -2
BITMAP
0840
0840
7fa0
0890
3f08
23fc
3e48
2368
3ed8
08d8
7f68
0968
0848
08d8
ENDCHAR
STARTCHAR 344e
ENCODING 13390
SWIDTH 960 0
DWIDTH 14 0
BBX 14 14 0 -2
BITMAP
0000
3ff8
2440
2440
2440
3c40
27fc
2440
3c40
2440
2440
2440
2440
4c40
ENDCHAR
STARTCHAR 344f
ENCODING 13391
SWIDTH 960 0
DWIDTH 14 0
BBX 14 14 0 -2
BITMAP
0810
11f0
3d50
25fc
3530
2de0
2d5c
7fe0
2400
2df8
2d68
2d68
2568
4ffc
ENDCHAR
STARTCHAR 3450
ENCODING 13392
SWIDTH 960 0
DWIDTH 14 0
BBX 14 14 0 -2
BITMAP
0440
0440
7ffc
0440
0100
3ffc
2008
4fe0
0000
3ffc
0280
0484
1884
607c
ENDCHAR
STARTCHAR 3451
ENCODING 13393
SWIDTH 960 0
DWIDTH 14 0
BBX 14 14 0 -2
BITMAP
1000
10f8
3e88
4888
7ff8
1488
3ff8
6888
3ef8
2850
3e50
2894
3f14
220c
ENDCHAR
STARTCHAR 3452
ENCODING 13394
SWIDTH 960 0
DWIDTH 14 0
BBX 14 14 0 -2
BITMAP
0040
3c40
03fc
7c40
01f8
3d48
01f8
3d48
01f8
3ce0
2550
2648
3c44
2440
ENDCHAR
STARTCHAR 3453
ENCODING 13395
SWIDTH 960 0
DWIDTH 14 0
BBX 14 14 0 -2
BITMAP
0000
0fe0
0920
7ffc
1240
1fe0
0820
0fe0
0820
0fe0
0820
0fe0
0660
3818
ENDCHAR
STARTCHAR 3454
ENCODING 13396
SWIDTH 960 0
DWIDTH 14 0
BBX 14 14 0 -2
BITMAP
0000
27f8
1528
17f8
0000
0ffc
73f0
1210
13f8
10c8
17b0
1888
2680
41fc
ENDCHAR
STARTCHAR 3455
ENCODING 13397
SWIDTH 960 0
DWIDTH 14 0
BBX 14 14 0 -2
BITMAP
1010
13d0
1a90
27dc
2660
7bc0
129c
7fc0
1200
55f8
3968
3168
1ffc
6000
ENDCHAR
STARTCHAR 3456
ENCODING 13398
SWIDTH 960 0
DWIDTH 14 0
BBX 14 14 0 -2
BITMAP
0000
3ef8
2288
3ef8
2288
3ef8
2008
27c8
2448
27c8
2448
27c8
2448
2018
ENDCHAR
STARTCHAR 3457
ENCODING 13399
SWIDTH 960 0
DWIDTH 14 0
BBX 14 14 0 -2
BITMAP
0000
3ef8
2288
3ef8
2288
3ef8
2108
2108
2fe8
2388
2548
2928
2108
2018
ENDCHAR
STARTCHAR 3458
ENCODING 13400
SWIDTH 960 0
DWIDTH 14 0
BBX 14 14 0 -2
BITMAP
0000
3ef8
2288
3ef8
2288
3ef8
2448
2288
27c8
2108
2fe8
2288
2448
2818
ENDCHAR
STARTCHAR 3459
ENCODING 13401
SWIDTH 960 0
DWIDTH 14 0
BBX 14 14 0 -2
BITMAP
0040
3c40
24f8
2890
3110
2a20
2578
2548
2548
2578
3948
2148
2178
2148
ENDCHAR
STARTCHAR 345a
ENCODING 13402
SWIDTH 960 0
DWIDTH 14 0
BBX 14 14 0 -2
BITMAP
0820
08f8
7e28
09fc
3e00
22f8
3e88
22f8
3e10
08f8
7e90
09fc
0810
0810
ENDCHAR
STARTCHAR 345b
ENCODING 13403
SWIDTH 960 0
DWIDTH 14 0
BBX 14 14 0 -2
BITMAP
0820
0820
15fc
1b08
28f0
7e90
2290
3ef0
2280
3ef8
2488
2688
39f8
6088
ENDCHAR
STARTCHAR 345c
ENCODING 13404
SWIDTH 960 0
DWIDTH 14 0
BBX 14 14 0 -2
BITMAP
0820
0820
15fc
1308
22f0
7e90
0890
7ef0
0880
3ef8
2288
2288
3ef8
2288
ENDCHAR
STARTCHAR 345d
ENCODING 13405
SWIDTH 960 0
DWIDTH 14 0
BBX 14 14 0 -2
BITMAP
0200
0200
0200
0200
7fc0
0240
0240
1a40
0640
0540
08c4
1044
2044
403c
ENDCHAR
STARTCHAR 345e
ENCODING 13406
SWIDTH 960 0
DWIDTH 14 0
BBX 14 14 0 -2
BITMAP
0100
0100
0280
0440
1ff0
600c
1fe0
0040
0080
1ff0
1010
1010
1ff0
1010
ENDCHAR
STARTCHAR 345f
ENCODING 13407
SWIDTH 960 0
DWIDTH 14 0
BBX 14 14 0 -2
BITMAP
0100
1110
1110
1ff0
0000
1ffc
1000
17f0
1080
1080
2ff8
2080
4080
0080
ENDCHAR
STARTCHAR 3460
ENCODING 13408
SWIDTH 960 0
DWIDTH 14 0
BBX 14 14 0 -2
BITMAP
0100
1108
1ff8
0910
3ffc
2f20
2220
3fbc
2948
2fa8
2910
2fb0
3948
4184
ENDCHAR
STARTCHAR 3461
ENCODING 13409
SWIDTH 960 0
DWIDTH 14 0
BBX 14 14 0 -2
BITMAP
0000
01f8
7c00
1000
1000
13fc
7ca0
10a0
10a0
1120
1d20
6224
0424
081c
ENDCHAR
STARTCHAR 3462
ENCODING 13410
SWIDTH 960 0
DWIDTH 14 0
BBX 14 14 0 -2
BITMAP
0080
0ffc
0800
49f0
2910
29f0
0fbc
1ca4
2fbc
4c44
1248
1248
23f8
4208
ENDCHAR
STARTCHAR 3463
ENCODING 13411
SWIDTH 960 0
DWIDTH 14 0
BBX 14 14 0 -2
BITMAP
0000
79f0
4910
4910
79f0
4910
4910
79f8
4948
4950
7920
4950
4188
0604
ENDCHAR
STARTCHAR 3464
ENCODING 13412
SWIDTH 960 0
DWIDTH 14 0
BBX 14 14 0 -2
BITMAP
0100
1110
1110
1ff0
0000
7ffc
0400
0400
0ff0
0c10
1410
2410
47f0
0410
ENDCHAR
STARTCHAR 3465
ENCODING 13413
SWIDTH 960 0
DWIDTH 14 0
BBX 14 14 0 -2
BITMAP
0000
7ff8
4c80
2a80
1b80
6cfc
19b0
0830
3f30
2130
3f50
2154
3f94
210c
ENDCHAR
STARTCHAR 3466
ENCODING 13414
SWIDTH 960 0
DWIDTH 14 0
BBX 14 14 0 -2
BITMAP
0000
1ffc
1290
14fc
1d90
16f8
1490
17fc
1210
13f0
2210
23f0
4330
1c0c
ENDCHAR
STARTCHAR 3467
ENCODING 13415
SWIDTH 960 0
DWIDTH 14 0
BBX 14 14 0 -2
BITMAP
0000
1ffc
1248
1250
14fc
1490
1d90
16f8
1490
14f8
2490
2490
44fc
0480
ENDCHAR
STARTCHAR 3468
ENCODING 13416
SWIDTH 960 0
DWIDTH 14 0
BBX 14 14 0 -2
BITMAP
0000
01fc
3e20
0040
00f8
7f88
14f8
1488
14f8
1588
23f8
2050
4188
0604
ENDCHAR
STARTCHAR 3469
ENCODING 13417
SWIDTH 960 0
DWIDTH 14 0
BBX 14 14 0 -2
BITMAP
0800
09fc
7f20
2240
14f8
3f88
24f8
2888
32f8
2488
39f8
2250
4c88
3304
ENDCHAR
STARTCHAR 346a
ENCODING 13418
SWIDTH 960 0
DWIDTH 14 0
BBX 14 14 0 -2
BITMAP
0000
3ffc
2210
2420
2f78
2948
2f78
2948
2f78
2648
2d78
3530
4448
0d84
ENDCHAR
STARTCHAR 346b
ENCODING 13419
SWIDTH 960 0
DWIDTH 14 0
BBX 14 14 0 -2
BITMAP
0100
0100
0280
0440
1930
610c
0100
0900
09f0
0900
0900
0900
7ffc
0000
ENDCHAR
STARTCHAR 346c
ENCODING 13420
SWIDTH 960 0
DWIDTH 14 0
BBX 14 14 0 -2
BITMAP
0840
0840
0840
17fc
1040
3040
53f8
1108
1110
1090
10a0
1040
11b0
160c
ENDCHAR
STARTCHAR 346d
ENCODING 13421
SWIDTH 960 0
DWIDTH 14 0
BBX 14 14 0 -2
BITMAP
0200
07e0
18c0
6100
1ffc
1000
13f0
1210
1210
1210
1260
2204
2204
41fc
ENDCHAR
STARTCHAR 346e
ENCODING 13422
SWIDTH 960 0
DWIDTH 14 0
BBX 14 14 0 -2
BITMAP
0100
7ffc
0100
1ff0
0000
0fe0
0820
0fe0
0440
7ffc
0000
1ff0
1010
1ff0
ENDCHAR
STARTCHAR 346f
ENCODING 13423
SWIDTH 960 0
DWIDTH 14 0
BBX 14 14 0 -2
BITMAP
0000
1ef0
1290
1290
1ef0
0100
7ffc
0440
1830
7efc
1290
1290
1ef0
1290
ENDCHAR
STARTCHAR 3470
ENCODING 13424
SWIDTH 960 0
DWIDTH 14 0
BBX 14 14 0 -2
BITMAP
0440
7ffc
0440
07c0
0440
07c0
0440
7ffc
0920
1ff0
610c
0100
3ff8
0000
ENDCHAR
STARTCHAR 3471
ENCODING 13425
SWIDTH 960 0
DWIDTH 14 0
BBX 14 14 0 -2
BITMAP
0100
0100
3ff8
0280
0440
1820
7ffc
0010
1f10
1110
1110
1f10
1110
0030
ENDCHAR
STARTCHAR 3472
ENCODING 13426
SWIDTH 960 0
DWIDTH 14 0
BBX 14 14 0 -2
BITMAP
1040
17fc
1040
13f8
7df8
2508
25f8
2490
7bfc
4800
0df8
1508
21f8
4108
ENDCHAR
STARTCHAR 3473
ENCODING 13427
SWIDTH 960 0
DWIDTH 14 0
BBX 14 14 0 -2
BITMAP
0100
0100
3ffc
2108
5ff8
0240
0c20
7ffc
0010
1f10
1110
1f10
1110
0030
ENDCHAR
STARTCHAR 3474
ENCODING 13428
SWIDTH 960 0
DWIDTH 14 0
BBX 14 14 0 -2
BITMAP
0040
1040
1040
17fc
5440
5440
57f8
5508
5490
7c90
4460
4060
0190
060c
ENDCHAR
STARTCHAR 3475
ENCODING 13429
SWIDTH 960 0
DWIDTH 14 0
BBX 14 14 0 -2
BITMAP
0620
01c0
0760
3910
0200
7ffc
0480
0ff8
1888
2888
4888
0888
08b0
0080
ENDCHAR
STARTCHAR 3476
ENCODING 13430
SWIDTH 960 0
DWIDTH 14 0
BBX 14 14 0 -2
BITMAP
1120
1528
65c8
1930
0d30
1348
7ffc
0110
3ffc
0890
0ca0
1244
21b4
460c
ENDCHAR
STARTCHAR 3477
ENCODING 13431
SWIDTH 960 0
DWIDTH 14 0
BBX 14 14 0 -2
BITMAP
0000
1fe0
0020
0020
1fe0
1020
1008
0ff8
0100
1490
1488
2424
4424
03e0
ENDCHAR
STARTCHAR 3478
ENCODING 13432
SWIDTH 960 0
DWIDTH 14 0
BBX 14 14 0 -2
BITMAP
1000
13fc
1248
7ff8
1040
13f8
1248
1ff8
7248
13f8
1040
17fc
1040
3040
ENDCHAR
STARTCHAR 3479
ENCODING 13433
SWIDTH 960 0
DWIDTH 14 0
BBX 14 14 0 -2
BITMAP
0800
08f0
0890
7f90
0890
1c90
1a90
1a90
2890
2890
4910
0914
0a14
0c0c
ENDCHAR
STARTCHAR 347a
ENCODING 13434
SWIDTH 960 0
DWIDTH 14 0
BBX 14 14 0 -2
BITMAP
1080
1080
11fc
7e90
13fc
1090
1cf0
1490
14f0
1490
27fc
2450
4488
1b04
ENDCHAR
STARTCHAR 347b
ENCODING 13435
SWIDTH 960 0
DWIDTH 14 0
BBX 14 14 0 -2
BITMAP
0000
3efc
2250
2250
3e50
2250
23fc
3e30
2830
2450
2650
3a94
6114
020c
ENDCHAR
STARTCHAR 347c
ENCODING 13436
SWIDTH 960 0
DWIDTH 14 0
BBX 14 14 0 -2
BITMAP
1200
1278
1248
7fc8
1278
1e48
1248
1e78
1248
7fc8
1448
1288
2288
4118
ENDCHAR
STARTCHAR 347d
ENCODING 13437
SWIDTH 960 0
DWIDTH 14 0
BBX 14 14 0 -2
BITMAP
0890
0890
0890
7ffc
0890
1cf0
1a90
1af0
2890
2bfc
4890
0888
0904
0a04
ENDCHAR
STARTCHAR 347e
ENCODING 13438
SWIDTH 960 0
DWIDTH 14 0
BBX 14 14 0 -2
BITMAP
0100
7ffc
0240
1fe0
0930
7ffc
0920
0fe0
0100
7ffc
0380
0d60
711c
0100
ENDCHAR
STARTCHAR 3521
ENCODING 13601
SWIDTH 960 0
DWIDTH 14 0
BBX 14 14 0 -2
BITMAP
1148
1148
16f4
7ed4
1148
1ad4
37fc
3450
33fc
5228
5328
1490
143c
18c4
ENDCHAR
STARTCHAR 3522
ENCODING 13602
SWIDTH 960 0
DWIDTH 14 0
BBX 14 14 0 -2
BITMAP
0800
0bf8
0808
09f8
2808
2bf8
2800
4ffc
0c44
0bf8
0a48
1248
1258
2040
ENDCHAR
STARTCHAR 3523
ENCODING 13603
SWIDTH 960 0
DWIDTH 14 0
BBX 14 14 0 -2
BITMAP
0800
0870
3f50
1250
0c54
7f94
190c
6df8
1648
6d50
1530
6430
04c8
1b04
ENDCHAR
STARTCHAR 3524
ENCODING 13604
SWIDTH 960 0
DWIDTH 14 0
BBX 14 14 0 -2
BITMAP
0800
0800
1ff8
1000
2fe0
4000
3fe0
0120
0120
1a20
0614
0514
180c
6004
ENDCHAR
STARTCHAR 3525
ENCODING 13605
SWIDTH 960 0
DWIDTH 14 0
BBX 14 14 0 -2
BITMAP
1100
0900
0bf8
4200
25f0
2000
07f0
0010
0810
0810
1014
100c
200c
2004
ENDCHAR
STARTCHAR 3526
ENCODING 13606
SWIDTH 960 0
DWIDTH 14 0
BBX 14 14 0 -2
BITMAP
1120
1528
65c8
1930
1528
7ffc
02a4
7ffc
3e88
2a48
3e50
2a20
3e54
218c
ENDCHAR
STARTCHAR 3527
ENCODING 13607
SWIDTH 960 0
DWIDTH 14 0
BBX 14 14 0 -2
BITMAP
0808
0830
08c0
7e80
0480
08fc
0c90
1a90
2a90
4890
0910
0910
0a10
0c10
ENDCHAR
STARTCHAR 3528
ENCODING 13608
SWIDTH 960 0
DWIDTH 14 0
BBX 14 14 0 -2
BITMAP
0060
1f80
0100
7ffc
0380
0540
1930
6fec
0040
0180
7ffc
0100
0100
0700
ENDCHAR
STARTCHAR 3529
ENCODING 13609
SWIDTH 960 0
DWIDTH 14 0
BBX 14 14 0 -2
BITMAP
0210
0cd0
3830
09c8
0840
7ffc
08a0
1cf8
1ba8
2aa8
48a8
08b8
0820
0820
ENDCHAR
STARTCHAR 352a
ENCODING 13610
SWIDTH 960 0
DWIDTH 14 0
BBX 14 14 0 -2
BITMAP
0800
08f8
0a08
7208
1408
0cf8
1288
7d80
0880
2c80
2a80
2a84
4884
087c
ENDCHAR
STARTCHAR 352b
ENCODING 13611
SWIDTH 960 0
DWIDTH 14 0
BBX 14 14 0 -2
BITMAP
1220
1aa0
2aa0
4fa0
147c
1548
3dc8
6228
2528
3fb0
2a90
2b30
32c8
2284
ENDCHAR
STARTCHAR 352c
ENCODING 13612
SWIDTH 960 0
DWIDTH 14 0
BBX 14 14 0 -2
BITMAP
0800
09f8
0908
3ff8
0908
09f8
7f08
09f8
09a8
08a0
1520
1524
2224
441c
ENDCHAR
STARTCHAR 352d
ENCODING 13613
SWIDTH 960 0
DWIDTH 14 0
BBX 14 14 0 -2
BITMAP
0000
3ef8
0008
7f08
0008
3ef8
0088
3e80
0080
3e80
2280
2284
3e84
227c
ENDCHAR
STARTCHAR 352e
ENCODING 13614
SWIDTH 960 0
DWIDTH 14 0
BBX 14 14 0 -2
BITMAP
0100
0fe0
0920
0fe0
0100
7ffc
0820
0fe0
0820
0fe0
0820
0fe0
0660
3818
ENDCHAR
STARTCHAR 352f
ENCODING 13615
SWIDTH 960 0
DWIDTH 14 0
BBX 14 14 0 -2
BITMAP
0800
08f8
3e08
0808
0808
7ff8
0888
2880
2f80
2884
3884
287c
2600
41fc
ENDCHAR
STARTCHAR 3530
ENCODING 13616
SWIDTH 960 0
DWIDTH 14 0
BBX 14 14 0 -2
BITMAP
0840
0840
7f40
0870
3fd0
2a50
3e50
2a50
3e50
0850
7f90
0894
0914
0a0c
ENDCHAR
STARTCHAR 3531
ENCODING 13617
SWIDTH 960 0
DWIDTH 14 0
BBX 14 14 0 -2
BITMAP
0800
09fc
4b28
2bfc
2c20
08f8
7fa8
14f8
14a8
15f8
1620
25fc
2020
4020
ENDCHAR
STARTCHAR 3532
ENCODING 13618
SWIDTH 960 0
DWIDTH 14 0
BBX 14 14 0 -2
BITMAP
0800
08f0
1490
1a90
2890
7e90
2290
3e90
2290
3e90
2890
2514
3b14
620c
ENDCHAR
STARTCHAR 3533
ENCODING 13619
SWIDTH 960 0
DWIDTH 14 0
BBX 14 14 0 -2
BITMAP
0020
3f20
29fc
3e20
2850
3e88
29fc
3e08
0ae8
3ea8
3ee8
32a8
4208
0c18
ENDCHAR
STARTCHAR 3534
ENCODING 13620
SWIDTH 960 0
DWIDTH 14 0
BBX 14 14 0 -2
BITMAP
0100
0200
1ff0
1110
1ff0
1110
1ff0
1510
0520
0520
0950
09fc
1104
20fc
ENDCHAR
STARTCHAR 3535
ENCODING 13621
SWIDTH 960 0
DWIDTH 14 0
BBX 14 14 0 -2
BITMAP
0200
03c0
0c80
7fe0
0920
0fe0
0920
1ff0
1110
1ff0
1110
1ff4
1104
00fc
ENDCHAR
STARTCHAR 3536
ENCODING 13622
SWIDTH 960 0
DWIDTH 14 0
BBX 14 14 0 -2
BITMAP
0a40
0940
0940
17f0
1090
3090
51f8
1108
13fc
1554
1cac
1284
1204
1018
ENDCHAR
STARTCHAR 3537
ENCODING 13623
SWIDTH 960 0
DWIDTH 14 0
BBX 14 14 0 -2
BITMAP
0910
08a0
0ffc
1040
13f8
3040
57fc
13a8
1124
1ffc
11a8
1710
116c
1304
ENDCHAR
STARTCHAR 3538
ENCODING 13624
SWIDTH 960 0
DWIDTH 14 0
BBX 14 14 0 -2
BITMAP
0820
0820
09fc
0820
7e20
13f8
1288
1288
3c50
2450
0620
0a50
1188
2204
ENDCHAR
STARTCHAR 3539
ENCODING 13625
SWIDTH 960 0
DWIDTH 14 0
BBX 14 14 0 -2
BITMAP
0100
0100
3ffc
2008
4fc0
0840
0840
0fc0
0840
0fc0
0840
0840
7ffc
0000
ENDCHAR
STARTCHAR 353a
ENCODING 13626
SWIDTH 960 0
DWIDTH 14 0
BBX 14 14 0 -2
BITMAP
0430
0728
0428
3fa0
273c
3de0
2328
2a28
2ab0
3b10
3a34
2b4c
4c8c
3004
ENDCHAR
STARTCHAR 353b
ENCODING 13627
SWIDTH 960 0
DWIDTH 14 0
BBX 14 14 0 -2
BITMAP
1040
1040
1040
7ffc
1040
1040
13f8
1d08
7090
1090
1060
1060
1190
360c
ENDCHAR
STARTCHAR 353c
ENCODING 13628
SWIDTH 960 0
DWIDTH 14 0
BBX 14 14 0 -2
BITMAP
1400
15fc
1628
7c90
1390
127c
1398
1d50
77dc
1150
1350
12f0
1490
390c
ENDCHAR
STARTCHAR 353d
ENCODING 13629
SWIDTH 960 0
DWIDTH 14 0
BBX 14 14 0 -2
BITMAP
1240
1240
1240
7f40
127c
1ea8
1330
1e20
1220
7f20
1250
1190
2108
4204
ENDCHAR
STARTCHAR 353e
ENCODING 13630
SWIDTH 960 0
DWIDTH 14 0
BBX 14 14 0 -2
BITMAP
0910
08a0
2bfc
2840
3df8
2840
4bfc
0de8
18a4
6ffc
08e8
0b94
08ac
09c4
ENDCHAR
STARTCHAR 353f
ENCODING 13631
SWIDTH 960 0
DWIDTH 14 0
BBX 14 14 0 -2
BITMAP
2000
27f8
3890
2260
1e20
11fc
1e28
28b0
7ea0
08b8
14a0
1360
2230
440c
ENDCHAR
STARTCHAR 3540
ENCODING 13632
SWIDTH 960 0
DWIDTH 14 0
BBX 14 14 0 -2
BITMAP
1008
1030
11e0
7d20
0520
0920
09fc
1920
3510
5514
1114
11cc
160c
1004
ENDCHAR
STARTCHAR 3541
ENCODING 13633
SWIDTH 960 0
DWIDTH 14 0
BBX 14 14 0 -2
BITMAP
0440
3ff8
0100
1ff0
0100
7ffc
0690
3888
7ffc
0848
0e50
7824
08d4
1b0c
ENDCHAR
STARTCHAR 3542
ENCODING 13634
SWIDTH 960 0
DWIDTH 14 0
BBX 14 14 0 -2
BITMAP
1090
13fc
1040
7df8
5440
57fc
54a8
7fa4
53fc
18a8
14d8
1f94
60ec
0184
ENDCHAR
STARTCHAR 3543
ENCODING 13635
SWIDTH 960 0
DWIDTH 14 0
BBX 14 14 0 -2
BITMAP
0040
3c40
03fc
7e08
03f0
3d10
0110
3df0
0110
3df0
2510
2510
3ffc
2000
ENDCHAR
STARTCHAR 3544
ENCODING 13636
SWIDTH 960 0
DWIDTH 14 0
BBX 14 14 0 -2
BITMAP
0110
38a0
07fc
7840
03f8
3840
07fc
3ba8
0124
3ffc
29a8
2f14
396c
2b04
ENDCHAR
STARTCHAR 3545
ENCODING 13637
SWIDTH 960 0
DWIDTH 14 0
BBX 14 14 0 -2
BITMAP
1100
1100
1100
7ff8
1288
14a8
12a8
1ac8
77f8
11c8
11a8
1298
1488
30b0
ENDCHAR
STARTCHAR 3546
ENCODING 13638
SWIDTH 960 0
DWIDTH 14 0
BBX 14 14 0 -2
BITMAP
0440
0440
7ffc
0c40
0800
1ff8
1248
2a48
4a88
3fe8
0708
0ac8
3228
0230
ENDCHAR
STARTCHAR 3547
ENCODING 13639
SWIDTH 960 0
DWIDTH 14 0
BBX 14 14 0 -2
BITMAP
1480
1480
7ff8
14c8
1d58
0b58
3ee8
2bf8
3ee8
08d8
7f58
0a48
0848
0830
ENDCHAR
STARTCHAR 3548
ENCODING 13640
SWIDTH 960 0
DWIDTH 14 0
BBX 14 14 0 -2
BITMAP
0100
0100
0100
7ffc
0100
0100
3ff8
0000
1ff0
1010
1010
1010
1ff0
1010
ENDCHAR
STARTCHAR 3549
ENCODING 13641
SWIDTH 960 0
DWIDTH 14 0
BBX 14 14 0 -2
BITMAP
0100
0100
0100
79fc
4a00
4a00
4df0
4820
4840
7880
4900
4204
0204
01fc
ENDCHAR
STARTCHAR 354a
ENCODING 13642
SWIDTH 960 0
DWIDTH 14 0
BBX 14 14 0 -2
BITMAP
0200
02f8
7fa8
5228
5fa8
5228
53c8
5e58
5080
7ffc
5080
4140
0630
180c
ENDCHAR
STARTCHAR 354b
ENCODING 13643
SWIDTH 960 0
DWIDTH 14 0
BBX 14 14 0 -2
BITMAP
0840
0840
0840
7ffc
0840
1c40
1bf8
1a00
29f8
2908
4908
0908
09f8
0908
ENDCHAR
STARTCHAR 354c
ENCODING 13644
SWIDTH 960 0
DWIDTH 14 0
BBX 14 14 0 -2
BITMAP
1000
13f0
10a0
7ffc
10c8
1b50
34c0
37f8
32a8
5338
52e8
12a8
12e8
1218
ENDCHAR
STARTCHAR 354d
ENCODING 13645
SWIDTH 960 0
DWIDTH 14 0
BBX 14 14 0 -2
BITMAP
0040
3c40
0040
7ffc
0040
3c40
01f8
3c00
01f8
3d08
2508
2508
3df8
2508
ENDCHAR
STARTCHAR 354e
ENCODING 13646
SWIDTH 960 0
DWIDTH 14 0
BBX 14 14 0 -2
BITMAP
0020
3f20
0820
083c
0820
1020
1e20
32f8
5288
1288
1288
1e88
10f8
0088
ENDCHAR
STARTCHAR 354f
ENCODING 13647
SWIDTH 960 0
DWIDTH 14 0
BBX 14 14 0 -2
BITMAP
0880
0880
0880
7ffc
0920
1a20
1c20
1bfc
2a20
2820
4820
0820
0820
0820
ENDCHAR
STARTCHAR 3550
ENCODING 13648
SWIDTH 960 0
DWIDTH 14 0
BBX 14 14 0 -2
BITMAP
0030
1fc0
0100
7ffc
0380
0d60
711c
0380
0d60
793c
07c0
0d60
3118
0300
ENDCHAR
STARTCHAR 3551
ENCODING 13649
SWIDTH 960 0
DWIDTH 14 0
BBX 14 14 0 -2
BITMAP
0800
0878
0848
3f48
0848
0848
7fc8
0848
0c48
1248
1370
7d40
0140
0040
ENDCHAR
STARTCHAR 3552
ENCODING 13650
SWIDTH 960 0
DWIDTH 14 0
BBX 14 14 0 -2
BITMAP
0100
0100
3ffc
2208
47e0
0c40
3280
0380
0c70
7fec
0820
0820
0fe0
0820
ENDCHAR
STARTCHAR 3553
ENCODING 13651
SWIDTH 960 0
DWIDTH 14 0
BBX 14 14 0 -2
BITMAP
0100
3938
2928
2fe8
3928
2928
2fe8
3928
2928
2aa8
2af8
2f20
2820
5820
ENDCHAR
STARTCHAR 3554
ENCODING 13652
SWIDTH 960 0
DWIDTH 14 0
BBX 14 14 0 -2
BITMAP
0100
01f8
0100
1ffc
12e8
1f10
11f0
1000
17f8
1400
27f8
2400
47f8
0400
ENDCHAR
STARTCHAR 3555
ENCODING 13653
SWIDTH 960 0
DWIDTH 14 0
BBX 14 14 0 -2
BITMAP
0210
2110
1120
17fc
0040
0248
0248
7248
13f8
1248
1040
1880
2700
41fc
ENDCHAR
STARTCHAR 3556
ENCODING 13654
SWIDTH 960 0
DWIDTH 14 0
BBX 14 14 0 -2
BITMAP
0020
00c0
0f00
0800
0800
0ff8
0840
0840
0840
0840
0840
0840
7ffc
0000
ENDCHAR
STARTCHAR 3557
ENCODING 13655
SWIDTH 960 0
DWIDTH 14 0
BBX 14 14 0 -2
BITMAP
0200
0200
0200
03e0
0420
0420
0840
1040
20c0
0120
0220
0410
1808
6004
ENDCHAR
STARTCHAR 3558
ENCODING 13656
SWIDTH 960 0
DWIDTH 14 0
BBX 14 14 0 -2
BITMAP
0900
0900
0900
1100
11e0
3f20
5120
1120
1120
1120
1224
1224
1424
181c
ENDCHAR
STARTCHAR 3559
ENCODING 13657
SWIDTH 960 0
DWIDTH 14 0
BBX 14 14 0 -2
BITMAP
0840
0840
0840
1040
17fc
3040
50e0
10e0
1150
1150
1248
1444
1040
1040
ENDCHAR
STARTCHAR 355a
ENCODING 13658
SWIDTH 960 0
DWIDTH 14 0
BBX 14 14 0 -2
BITMAP
0000
3fe0
0420
0440
0440
06f0
0a10
0910
0920
08a0
1040
10a0
2310
4c0c
ENDCHAR
STARTCHAR 355b
ENCODING 13659
SWIDTH 960 0
DWIDTH 14 0
BBX 14 14 0 -2
BITMAP
0000
07f0
7910
4920
4920
49f8
4988
4988
7a50
4a50
4220
0450
0988
1604
ENDCHAR
STARTCHAR 355c
ENCODING 13660
SWIDTH 960 0
DWIDTH 14 0
BBX 14 14 0 -2
BITMAP
0100
0100
3ffc
2008
4fe0
0820
0820
0fe0
0100
1ff0
1010
1010
1ff0
1010
ENDCHAR
STARTCHAR 355d
ENCODING 13661
SWIDTH 960 0
DWIDTH 14 0
BBX 14 14 0 -2
BITMAP
0000
1ff0
0010
0010
1ff0
1010
1000
1ff8
1008
1008
0008
0008
0010
00e0
ENDCHAR
STARTCHAR 355e
ENCODING 13662
SWIDTH 960 0
DWIDTH 14 0
BBX 14 14 0 -2
BITMAP
0200
07c0
0880
3ff0
0010
0ff0
0010
1ff0
0100
1490
1488
2424
4424
03e0
ENDCHAR
STARTCHAR 355f
ENCODING 13663
SWIDTH 960 0
DWIDTH 14 0
BBX 14 14 0 -2
BITMAP
0840
0a40
0940
7f7c
0888
4a88
2b50
2c50
1c30
1a20
2a30
4850
0888
1b04
ENDCHAR
STARTCHAR 3560
ENCODING 13664
SWIDTH 960 0
DWIDTH 14 0
BBX 14 14 0 -2
BITMAP
0800
09fc
0840
7f40
0840
1cf8
1a88
1a88
2908
2808
4808
0808
0808
0830
ENDCHAR
STARTCHAR 3561
ENCODING 13665
SWIDTH 960 0
DWIDTH 14 0
BBX 14 14 0 -2
BITMAP
0120
0110
0110
7ffc
0100
0188
3188
0950
0360
0520
1910
6108
0104
0300
ENDCHAR
STARTCHAR 3562
ENCODING 13666
SWIDTH 960 0
DWIDTH 14 0
BBX 14 14 0 -2
BITMAP
2000
17f0
1210
4220
2220
2378
0308
1290
1290
1260
2420
2450
4888
5304
ENDCHAR
STARTCHAR 3563
ENCODING 13667
SWIDTH 960 0
DWIDTH 14 0
BBX 14 14 0 -2
BITMAP
1040
0840
0840
47fc
2010
2210
0110
0910
0890
10a0
10a0
2040
27fc
2000
ENDCHAR
STARTCHAR 3564
ENCODING 13668
SWIDTH 960 0
DWIDTH 14 0
BBX 14 14 0 -2
BITMAP
0100
03c0
0c80
3180
0240
0d30
710c
0110
1110
12a0
2240
0420
1810
600c
ENDCHAR
STARTCHAR 3565
ENCODING 13669
SWIDTH 960 0
DWIDTH 14 0
BBX 14 14 0 -2
BITMAP
0050
0048
7c48
13fc
1040
1248
7d68
1170
1050
14d0
1948
6644
0040
00c0
ENDCHAR
STARTCHAR 3566
ENCODING 13670
SWIDTH 960 0
DWIDTH 14 0
BBX 14 14 0 -2
BITMAP
0100
0100
3ffc
2488
4480
0488
0978
1100
3fc0
0240
0240
0444
0844
303c
ENDCHAR
STARTCHAR 3567
ENCODING 13671
SWIDTH 960 0
DWIDTH 14 0
BBX 14 14 0 -2
BITMAP
0100
3ffc
2488
4890
1470
1ef0
1210
1ef0
1e80
12f8
7e88
0608
1a08
6630
ENDCHAR
STARTCHAR 3568
ENCODING 13672
SWIDTH 960 0
DWIDTH 14 0
BBX 14 14 0 -2
BITMAP
0840
0840
1ffc
14a0
2310
5fe0
0420
0440
06f0
0a10
0920
10c0
2360
4c1c
ENDCHAR
STARTCHAR 3569
ENCODING 13673
SWIDTH 960 0
DWIDTH 14 0
BBX 14 14 0 -2
BITMAP
0800
08f8
0a88
7290
1490
0cb8
12c8
7ec8
08a8
2cb0
2a90
2b30
4948
0a84
ENDCHAR
STARTCHAR 356a
ENCODING 13674
SWIDTH 960 0
DWIDTH 14 0
BBX 14 14 0 -2
BITMAP
0810
0890
0a90
7290
1490
0c90
1290
7d90
089c
2cf0
2b90
2a10
4810
0810
ENDCHAR
STARTCHAR 356b
ENCODING 13675
SWIDTH 960 0
DWIDTH 14 0
BBX 14 14 0 -2
BITMAP
0820
0820
0a50
7250
1488
0dfc
1200
7e00
08f8
2c88
2a88
2a88
48f8
0888
ENDCHAR
STARTCHAR 356c
ENCODING 13676
SWIDTH 960 0
DWIDTH 14 0
BBX 14 14 0 -2
BITMAP
2000
27f0
2410
2410
2410
2410
27f0
2410
2410
2410
2410
27f0
2410
2000
ENDCHAR
STARTCHAR 356d
ENCODING 13677
SWIDTH 960 0
DWIDTH 14 0
BBX 14 14 0 -2
BITMAP
0100
0900
0900
0900
1ff0
1100
2100
0100
7ffc
0100
0100
0100
0100
0100
ENDCHAR
STARTCHAR 356e
ENCODING 13678
SWIDTH 960 0
DWIDTH 14 0
BBX 14 14 0 -2
BITMAP
0100
0100
0100
1ff0
0100
0100
0100
7ffc
0200
0240
0420
08f0
3f08
0008
ENDCHAR
STARTCHAR 356f
ENCODING 13679
SWIDTH 960 0
DWIDTH 14 0
BBX 14 14 0 -2
BITMAP
0000
1ff8
1008
1ff8
1088
1080
1ffc
1080
1080
17f0
2410
2410
47f0
0410
ENDCHAR
STARTCHAR 3570
ENCODING 13680
SWIDTH 960 0
DWIDTH 14 0
BBX 14 14 0 -2
BITMAP
0000
3ff8
2000
2000
3fe0
2020
2020
2020
3fe0
2020
2000
2000
3ffc
2000
ENDCHAR
STARTCHAR 3571
ENCODING 13681
SWIDTH 960 0
DWIDTH 14 0
BBX 14 14 0 -2
BITMAP
0800
09fc
0900
7f00
09f8
0908
0908
0f08
79f8
0908
0900
0900
09fc
1900
ENDCHAR
STARTCHAR 3572
ENCODING 13682
SWIDTH 960 0
DWIDTH 14 0
BBX 14 14 0 -2
BITMAP
1000
1270
1250
7a50
1750
1550
1550
1b50
7290
1294
1514
190c
10c0
303c
ENDCHAR
STARTCHAR 3573
ENCODING 13683
SWIDTH 960 0
DWIDTH 14 0
BBX 14 14 0 -2
BITMAP
1210
0910
0920
7ffc
0440
0860
1f98
6104
1ff0
0100
3ff8
0100
0100
0300
ENDCHAR
STARTCHAR 3574
ENCODING 13684
SWIDTH 960 0
DWIDTH 14 0
BBX 14 14 0 -2
BITMAP
1000
0bf8
4a00
23f0
2210
0bf0
0a00
13f8
2100
7ffc
0380
0d60
711c
0100
ENDCHAR
STARTCHAR 3575
ENCODING 13685
SWIDTH 960 0
DWIDTH 14 0
BBX 14 14 0 -2
BITMAP
0100
01f8
0100
1ffc
11e8
1f08
11f8
1140
1948
1548
2550
2140
5ffc
0000
ENDCHAR
STARTCHAR 3576
ENCODING 13686
SWIDTH 960 0
DWIDTH 14 0
BBX 14 14 0 -2
BITMAP
0080
3c80
0080
7ff8
0140
3e40
0040
3ffc
0040
3c40
2440
2440
3c40
2440
ENDCHAR
STARTCHAR 3577
ENCODING 13687
SWIDTH 960 0
DWIDTH 14 0
BBX 14 14 0 -2
BITMAP
0000
3efc
2280
2280
3ef8
0888
2888
2e88
28f8
2888
2880
2e80
38fc
6080
ENDCHAR
STARTCHAR 3578
ENCODING 13688
SWIDTH 960 0
DWIDTH 14 0
BBX 14 14 0 -2
BITMAP
0800
09f8
1508
1308
23f8
5d20
09fc
7f20
0920
2bf8
1d88
1988
0ef8
7088
ENDCHAR
STARTCHAR 3579
ENCODING 13689
SWIDTH 960 0
DWIDTH 14 0
BBX 14 14 0 -2
BITMAP
1080
0880
09f0
4120
2240
27f8
0248
13f8
1248
13f8
2000
2548
44a4
48a4
ENDCHAR
STARTCHAR 357a
ENCODING 13690
SWIDTH 960 0
DWIDTH 14 0
BBX 14 14 0 -2
BITMAP
1200
13f8
2d28
4fe8
1128
35e8
5528
15f8
1e20
1ff0
0000
7ffc
1930
630c
ENDCHAR
STARTCHAR 357b
ENCODING 13691
SWIDTH 960 0
DWIDTH 14 0
BBX 14 14 0 -2
BITMAP
0400
07c0
0880
1100
3ff0
5110
1ff0
1110
1110
1ff0
0000
2488
2244
4244
ENDCHAR
STARTCHAR 357c
ENCODING 13692
SWIDTH 960 0
DWIDTH 14 0
BBX 14 14 0 -2
BITMAP
0100
7ffc
0000
0fe0
0820
0fe0
0000
1fe0
0040
0180
0100
0100
0100
0300
ENDCHAR
STARTCHAR 357d
ENCODING 13693
SWIDTH 960 0
DWIDTH 14 0
BBX 14 14 0 -2
BITMAP
0100
7ffc
0000
0fe0
0820
0fe0
0000
1fe0
0040
0180
7ffc
0100
0100
0300
ENDCHAR
STARTCHAR 357e
ENCODING 13694
SWIDTH 960 0
DWIDTH 14 0
BBX 14 14 0 -2
BITMAP
0100
0100
7ffc
0000
0fe0
0820
0820
0fe0
0100
0920
0910
1108
2108
0300
ENDCHAR
STARTCHAR 3621
ENCODING 13857
SWIDTH 960 0
DWIDTH 14 0
BBX 14 14 0 -2
BITMAP
0920
0920
0920
1120
17f8
3120
5120
1120
1ffc
1000
1120
1110
1208
1408
ENDCHAR
STARTCHAR 3622
ENCODING 13858
SWIDTH 960 0
DWIDTH 14 0
BBX 14 14 0 -2
BITMAP
0840
0840
0840
17fc
1248
3148
5150
1ffc
1040
10a0
10a0
1110
1208
1404
ENDCHAR
STARTCHAR 3623
ENCODING 13859
SWIDTH 960 0
DWIDTH 14 0
BBX 14 14 0 -2
BITMAP
0830
0bc0
0880
1ffc
1120
33f0
5528
19e4
17f8
1408
15e8
1528
15e8
1418
ENDCHAR
STARTCHAR 3624
ENCODING 13860
SWIDTH 960 0
DWIDTH 14 0
BBX 14 14 0 -2
BITMAP
0080
2090
2d10
2310
2290
2490
2810
3ff0
2490
0480
0880
0884
1084
607c
ENDCHAR
STARTCHAR 3625
ENCODING 13861
SWIDTH 960 0
DWIDTH 14 0
BBX 14 14 0 -2
BITMAP
0820
0820
3ff8
1450
1450
7ffc
0000
3ef8
2288
3ef8
1450
1550
2694
450c
ENDCHAR
STARTCHAR 3626
ENCODING 13862
SWIDTH 960 0
DWIDTH 14 0
BBX 14 14 0 -2
BITMAP
0440
0440
0440
0440
3ff8
0440
0440
0440
7ffc
0000
0440
0420
0810
3010
ENDCHAR
STARTCHAR 3627
ENCODING 13863
SWIDTH 960 0
DWIDTH 14 0
BBX 14 14 0 -2
BITMAP
0040
0040
4048
5888
4688
4108
4188
4248
4428
4828
5008
7ff8
4008
4008
ENDCHAR
STARTCHAR 3628
ENCODING 13864
SWIDTH 960 0
DWIDTH 14 0
BBX 14 14 0 -2
BITMAP
1040
1040
13f8
1048
7c88
1108
1230
1210
1ffc
1294
1294
14a4
14a4
19cc
ENDCHAR
STARTCHAR 3629
ENCODING 13865
SWIDTH 960 0
DWIDTH 14 0
BBX 14 14 0 -2
BITMAP
0000
3ffc
2000
2ff8
2080
2080
27f0
2080
2080
2080
2ff8
2000
3ffc
2000
ENDCHAR
STARTCHAR 362a
ENCODING 13866
SWIDTH 960 0
DWIDTH 14 0
BBX 14 14 0 -2
BITMAP
0800
33b8
22a8
2aa8
2ba8
2aa8
2aa8
2ba8
2a28
3b28
6aa8
13f0
1620
2020
ENDCHAR
STARTCHAR 362b
ENCODING 13867
SWIDTH 960 0
DWIDTH 14 0
BBX 14 14 0 -2
BITMAP
0010
0010
7910
4910
4910
4910
4910
4910
491c
79f0
4f10
4010
0010
0010
ENDCHAR
STARTCHAR 362c
ENCODING 13868
SWIDTH 960 0
DWIDTH 14 0
BBX 14 14 0 -2
BITMAP
0060
0f80
0100
7ffc
0440
1ff0
644c
07c0
3ff8
2008
27c8
2448
27c8
2018
ENDCHAR
STARTCHAR 362d
ENCODING 13869
SWIDTH 960 0
DWIDTH 14 0
BBX 14 14 0 -2
BITMAP
0040
13f8
1120
10a0
7ffc
1000
11f0
1110
15f0
1910
61f0
00a0
0324
0c1c
ENDCHAR
STARTCHAR 362e
ENCODING 13870
SWIDTH 960 0
DWIDTH 14 0
BBX 14 14 0 -2
BITMAP
0040
1040
13f8
1040
5648
5548
5550
57fc
5440
7ca0
4490
4110
0208
0c04
ENDCHAR
STARTCHAR 362f
ENCODING 13871
SWIDTH 960 0
DWIDTH 14 0
BBX 14 14 0 -2
BITMAP
0040
7850
0888
0ffc
7844
4bf8
4248
7a48
4bf8
4a50
0848
087c
17c4
6004
ENDCHAR
STARTCHAR 3630
ENCODING 13872
SWIDTH 960 0
DWIDTH 14 0
BBX 14 14 0 -2
BITMAP
0000
7bf8
0950
09f0
7950
49f0
4000
7bf8
4950
49f0
0950
09f0
17fc
6000
ENDCHAR
STARTCHAR 3631
ENCODING 13873
SWIDTH 960 0
DWIDTH 14 0
BBX 14 14 0 -2
BITMAP
1040
1040
1040
13f8
3840
3440
3440
57fc
1040
1090
1088
1138
17c4
1004
ENDCHAR
STARTCHAR 3632
ENCODING 13874
SWIDTH 960 0
DWIDTH 14 0
BBX 14 14 0 -2
BITMAP
0000
7ff0
0910
0910
0990
0f54
7254
040c
0100
1490
1488
2424
4424
03e0
ENDCHAR
STARTCHAR 3633
ENCODING 13875
SWIDTH 960 0
DWIDTH 14 0
BBX 14 14 0 -2
BITMAP
0440
0440
3ff8
0440
0440
7ffc
0440
0a20
1210
620c
1290
1248
2248
0600
ENDCHAR
STARTCHAR 3634
ENCODING 13876
SWIDTH 960 0
DWIDTH 14 0
BBX 14 14 0 -2
BITMAP
1040
1040
17fc
7840
1248
1148
1150
1ffc
7040
10a0
1090
1110
1208
3404
ENDCHAR
STARTCHAR 3635
ENCODING 13877
SWIDTH 960 0
DWIDTH 14 0
BBX 14 14 0 -2
BITMAP
0840
0940
3f40
0a40
0afc
7f88
0988
1f48
2250
4730
3c20
0450
0588
0e04
ENDCHAR
STARTCHAR 3636
ENCODING 13878
SWIDTH 960 0
DWIDTH 14 0
BBX 14 14 0 -2
BITMAP
1018
13e0
1040
7ffc
10a0
19f0
36a8
34e4
33f8
5208
52e8
12a8
12e8
1218
ENDCHAR
STARTCHAR 3637
ENCODING 13879
SWIDTH 960 0
DWIDTH 14 0
BBX 14 14 0 -2
BITMAP
1000
0bf8
0a08
4208
2208
23f8
02a8
10a0
10a0
1120
2120
2224
4424
481c
ENDCHAR
STARTCHAR 3638
ENCODING 13880
SWIDTH 960 0
DWIDTH 14 0
BBX 14 14 0 -2
BITMAP
0800
4ffc
3040
1040
3040
4840
0bf8
1840
2840
4840
0840
0840
3ffc
1000
ENDCHAR
STARTCHAR 3639
ENCODING 13881
SWIDTH 960 0
DWIDTH 14 0
BBX 14 14 0 -2
BITMAP
0440
4440
2840
17fc
3248
4948
0950
1ffc
2840
48a0
08a0
0910
3208
1404
ENDCHAR
STARTCHAR 363a
ENCODING 13882
SWIDTH 960 0
DWIDTH 14 0
BBX 14 14 0 -2
BITMAP
1018
13e0
1040
3ffc
28a0
49f0
0aa8
7ee4
0bf8
0e08
16e8
12a8
22e8
4218
ENDCHAR
STARTCHAR 363b
ENCODING 13883
SWIDTH 960 0
DWIDTH 14 0
BBX 14 14 0 -2
BITMAP
0080
3c80
2480
25fc
2524
3e24
25d4
2574
3db4
2514
25f4
2514
2404
4c18
ENDCHAR
STARTCHAR 363c
ENCODING 13884
SWIDTH 960 0
DWIDTH 14 0
BBX 14 14 0 -2
BITMAP
0200
0fc0
0240
0cc0
7ff8
1248
2698
4fe0
0820
0fe0
0820
0fe0
0820
0860
ENDCHAR
STARTCHAR 363d
ENCODING 13885
SWIDTH 960 0
DWIDTH 14 0
BBX 14 14 0 -2
BITMAP
0800
37f8
2448
27c8
3c78
27c8
3ef8
27c8
2448
7ffc
0000
0460
1810
6008
ENDCHAR
STARTCHAR 363e
ENCODING 13886
SWIDTH 960 0
DWIDTH 14 0
BBX 14 14 0 -2
BITMAP
0440
7ffc
0460
1fc0
0100
3ff8
06c0
1ff0
644c
1ff0
17d0
1450
17d0
1030
ENDCHAR
STARTCHAR 363f
ENCODING 13887
SWIDTH 960 0
DWIDTH 14 0
BBX 14 14 0 -2
BITMAP
1000
13b8
16a8
66a8
2bb0
1ab0
12a8
1ba8
2b24
7aa4
12e4
1378
2c20
4020
ENDCHAR
STARTCHAR 3640
ENCODING 13888
SWIDTH 960 0
DWIDTH 14 0
BBX 14 14 0 -2
BITMAP
0820
09f8
1490
13fc
2200
5cf8
0888
7ef8
0888
2af8
1c50
1854
0e94
730c
ENDCHAR
STARTCHAR 3641
ENCODING 13889
SWIDTH 960 0
DWIDTH 14 0
BBX 14 14 0 -2
BITMAP
13b8
6aa8
2bb8
1fa4
6af8
1360
3ff8
0440
7ffc
0820
0fe0
0820
0fe0
0820
ENDCHAR
STARTCHAR 3642
ENCODING 13890
SWIDTH 960 0
DWIDTH 14 0
BBX 14 14 0 -2
BITMAP
13b8
5aa8
2bb0
16a8
7fa4
0b38
33a0
0540
1ff0
644c
07c0
04b0
0760
3818
ENDCHAR
STARTCHAR 3643
ENCODING 13891
SWIDTH 960 0
DWIDTH 14 0
BBX 14 14 0 -2
BITMAP
1440
7f40
14fc
3f48
7a30
2acc
3ff0
0880
0fe0
0880
0ff8
2a48
2528
4030
ENDCHAR
STARTCHAR 3644
ENCODING 13892
SWIDTH 960 0
DWIDTH 14 0
BBX 14 14 0 -2
BITMAP
0840
0880
0b78
1248
1248
3248
5248
1248
1248
13c8
1e70
1040
1040
1040
ENDCHAR
STARTCHAR 3645
ENCODING 13893
SWIDTH 960 0
DWIDTH 14 0
BBX 14 14 0 -2
BITMAP
0800
09fc
4e08
28b0
2790
047c
1798
1a50
225c
3fd0
4650
4570
4890
110c
ENDCHAR
STARTCHAR 3646
ENCODING 13894
SWIDTH 960 0
DWIDTH 14 0
BBX 14 14 0 -2
BITMAP
0100
0100
3ff8
0100
0920
7ffc
0820
0820
7ffc
0480
0480
0884
1084
607c
ENDCHAR
STARTCHAR 3647
ENCODING 13895
SWIDTH 960 0
DWIDTH 14 0
BBX 14 14 0 -2
BITMAP
0040
0040
7bf8
4840
4950
4ffc
7910
4910
4ffc
48a0
78a0
4924
4224
0c1c
ENDCHAR
STARTCHAR 3648
ENCODING 13896
SWIDTH 960 0
DWIDTH 14 0
BBX 14 14 0 -2
BITMAP
0280
1290
0aa0
7ffc
0440
3ff8
0100
1ff0
0100
7ffc
0380
0d60
711c
0100
ENDCHAR
STARTCHAR 3649
ENCODING 13897
SWIDTH 960 0
DWIDTH 14 0
BBX 14 14 0 -2
BITMAP
0000
1ff8
1008
1008
1ff8
1000
1ffc
1004
13e4
1224
1224
23e4
2224
4018
ENDCHAR
STARTCHAR 364a
ENCODING 13898
SWIDTH 960 0
DWIDTH 14 0
BBX 14 14 0 -2
BITMAP
0440
0440
0440
3ff8
2448
2448
2448
3ff8
2448
2448
2448
3ff8
2008
2008
ENDCHAR
STARTCHAR 364b
ENCODING 13899
SWIDTH 960 0
DWIDTH 14 0
BBX 14 14 0 -2
BITMAP
1000
17fc
1080
7c80
11dc
1124
3bb4
36a8
36a8
53b4
5224
1040
17fc
1000
ENDCHAR
STARTCHAR 364c
ENCODING 13900
SWIDTH 960 0
DWIDTH 14 0
BBX 14 14 0 -2
BITMAP
0000
3ff8
0100
0100
0100
0100
1ff0
0100
0120
0110
0110
0100
7ffc
0000
ENDCHAR
STARTCHAR 364d
ENCODING 13901
SWIDTH 960 0
DWIDTH 14 0
BBX 14 14 0 -2
BITMAP
1000
13f8
1208
7e08
13f8
1208
3ae8
36a8
36a8
52e8
52a8
1208
1208
1218
ENDCHAR
STARTCHAR 364e
ENCODING 13902
SWIDTH 960 0
DWIDTH 14 0
BBX 14 14 0 -2
BITMAP
0808
4a10
2ae0
2c20
0820
7e20
09fc
1c20
1a20
2a20
4820
0820
0820
0820
ENDCHAR
STARTCHAR 364f
ENCODING 13903
SWIDTH 960 0
DWIDTH 14 0
BBX 14 14 0 -2
BITMAP
0910
0910
0ffc
1110
13f8
3248
53f8
1040
13f8
1040
13f8
1040
17fc
1000
ENDCHAR
STARTCHAR 3650
ENCODING 13904
SWIDTH 960 0
DWIDTH 14 0
BBX 14 14 0 -2
BITMAP
1440
7f40
1440
3e40
2bf8
2a48
3e48
0848
3e48
0848
3e48
0888
0e88
7930
ENDCHAR
STARTCHAR 3651
ENCODING 13905
SWIDTH 960 0
DWIDTH 14 0
BBX 14 14 0 -2
BITMAP
0100
1100
1100
11f8
7e08
1308
1488
1088
1028
14c8
1b08
6008
0008
0030
ENDCHAR
STARTCHAR 3652
ENCODING 13906
SWIDTH 960 0
DWIDTH 14 0
BBX 14 14 0 -2
BITMAP
0100
0100
0100
3ff8
2108
2108
2108
2108
2108
2108
2108
2130
0100
0100
ENDCHAR
STARTCHAR 3653
ENCODING 13907
SWIDTH 960 0
DWIDTH 14 0
BBX 14 14 0 -2
BITMAP
0820
0840
14f8
1288
22f8
5c88
08f8
7e20
09fc
2b24
1d24
1924
0f38
7020
ENDCHAR
STARTCHAR 3654
ENCODING 13908
SWIDTH 960 0
DWIDTH 14 0
BBX 14 14 0 -2
BITMAP
0010
0060
0f80
0800
0800
0ffc
0840
0840
0840
1040
1040
2040
4040
0040
ENDCHAR
STARTCHAR 3655
ENCODING 13909
SWIDTH 960 0
DWIDTH 14 0
BBX 14 14 0 -2
BITMAP
0140
0240
1c40
1040
10fc
1fa8
1530
1420
1420
1460
2450
2490
4508
0604
ENDCHAR
STARTCHAR 3656
ENCODING 13910
SWIDTH 960 0
DWIDTH 14 0
BBX 14 14 0 -2
BITMAP
0840
0840
1440
1240
22fc
5ca8
0930
7e20
0820
2a60
1c50
1890
0f08
7204
ENDCHAR
STARTCHAR 3657
ENCODING 13911
SWIDTH 960 0
DWIDTH 14 0
BBX 14 14 0 -2
BITMAP
0000
3ef8
0820
3ef8
0820
0ffc
7280
0440
1ff0
600c
0fe0
0040
0080
0100
ENDCHAR
STARTCHAR 3658
ENCODING 13912
SWIDTH 960 0
DWIDTH 14 0
BBX 14 14 0 -2
BITMAP
0820
0820
7ffc
1c60
1a70
2aa8
4924
0fe0
0000
7ffc
0920
1110
6108
0300
ENDCHAR
STARTCHAR 3659
ENCODING 13913
SWIDTH 960 0
DWIDTH 14 0
BBX 14 14 0 -2
BITMAP
0100
0280
0540
1ff0
6aac
09a0
0e60
0fe0
0100
1ff0
1290
1fd0
1050
1030
ENDCHAR
STARTCHAR 365a
ENCODING 13914
SWIDTH 960 0
DWIDTH 14 0
BBX 14 14 0 -2
BITMAP
0840
0840
1ffc
14a0
2310
4040
1e40
13f8
1e48
1248
1e48
2288
2288
4730
ENDCHAR
STARTCHAR 365b
ENCODING 13915
SWIDTH 960 0
DWIDTH 14 0
BBX 14 14 0 -2
BITMAP
0000
3ff8
2488
3e50
2220
3ed0
3f0c
2120
0e60
0198
7fe4
0d30
3108
0100
ENDCHAR
STARTCHAR 365c
ENCODING 13916
SWIDTH 960 0
DWIDTH 14 0
BBX 14 14 0 -2
BITMAP
0440
0440
7ffc
0440
0470
0fc0
0800
0ffc
0840
0840
1040
1040
2040
4040
ENDCHAR
STARTCHAR 365d
ENCODING 13917
SWIDTH 960 0
DWIDTH 14 0
BBX 14 14 0 -2
BITMAP
0440
7ffc
0440
3ff8
2068
2f88
2108
3ff8
2388
2548
3928
2108
3ff8
2008
ENDCHAR
STARTCHAR 365e
ENCODING 13918
SWIDTH 960 0
DWIDTH 14 0
BBX 14 14 0 -2
BITMAP
1040
1040
1060
7ca0
0890
0bf8
1204
3c00
55f8
1210
1010
1020
1020
1020
ENDCHAR
STARTCHAR 365f
ENCODING 13919
SWIDTH 960 0
DWIDTH 14 0
BBX 14 14 0 -2
BITMAP
1090
1090
13fc
7cd0
09b8
0ad4
1490
19f8
3400
57fc
1128
1124
1224
1060
ENDCHAR
STARTCHAR 3660
ENCODING 13920
SWIDTH 960 0
DWIDTH 14 0
BBX 14 14 0 -2
BITMAP
0090
3c90
03fc
7c90
03f8
3e48
03f8
3c40
03f8
3c40
27f8
2440
3ffc
2000
ENDCHAR
STARTCHAR 3661
ENCODING 13921
SWIDTH 960 0
DWIDTH 14 0
BBX 14 14 0 -2
BITMAP
0010
2060
1380
1200
0200
03fc
0220
7220
1220
1420
1420
1820
2600
41fc
ENDCHAR
STARTCHAR 3662
ENCODING 13922
SWIDTH 960 0
DWIDTH 14 0
BBX 14 14 0 -2
BITMAP
0100
0100
0280
0440
1830
67cc
0100
3ff8
0100
0920
0520
0540
3ff8
0000
ENDCHAR
STARTCHAR 3663
ENCODING 13923
SWIDTH 960 0
DWIDTH 14 0
BBX 14 14 0 -2
BITMAP
0040
0040
78a0
48a0
4910
4bf8
4c04
4800
4bf8
7808
4810
4010
0020
0020
ENDCHAR
STARTCHAR 3664
ENCODING 13924
SWIDTH 960 0
DWIDTH 14 0
BBX 14 14 0 -2
BITMAP
0800
08f8
1488
1288
22f8
5c88
0888
7ef8
08a4
2aa8
1c90
18b0
0ec8
7304
ENDCHAR
STARTCHAR 3665
ENCODING 13925
SWIDTH 960 0
DWIDTH 14 0
BBX 14 14 0 -2
BITMAP
0200
0200
0200
0200
7fc0
0240
0240
0240
0440
0440
0844
1044
2044
403c
ENDCHAR
STARTCHAR 3666
ENCODING 13926
SWIDTH 960 0
DWIDTH 14 0
BBX 14 14 0 -2
BITMAP
0800
0bf0
0a10
1210
13f0
3210
53f0
1210
13f0
1000
1ffc
1120
1210
1c08
ENDCHAR
STARTCHAR 3667
ENCODING 13927
SWIDTH 960 0
DWIDTH 14 0
BBX 14 14 0 -2
BITMAP
0800
0800
0800
1ff8
1008
2f88
4888
0888
0888
0f88
0888
0008
0008
0030
ENDCHAR
STARTCHAR 3668
ENCODING 13928
SWIDTH 960 0
DWIDTH 14 0
BBX 14 14 0 -2
BITMAP
0000
3ff8
2020
2020
2040
2c40
2380
2080
2140
2220
2420
2800
3ffc
2000
ENDCHAR
STARTCHAR 3669
ENCODING 13929
SWIDTH 960 0
DWIDTH 14 0
BBX 14 14 0 -2
BITMAP
0880
4880
3080
11f8
3108
4a08
0de8
1928
2928
49e8
0928
0808
3008
1030
ENDCHAR
STARTCHAR 366a
ENCODING 13930
SWIDTH 960 0
DWIDTH 14 0
BBX 14 14 0 -2
BITMAP
0080
0080
7c80
10f0
1110
1110
7e20
1020
1060
1460
1890
6110
0208
0c04
ENDCHAR
STARTCHAR 366b
ENCODING 13931
SWIDTH 960 0
DWIDTH 14 0
BBX 14 14 0 -2
BITMAP
1000
10fc
1080
3f80
28f8
4888
0888
7f88
08f8
0c88
1480
1280
22fc
4080
ENDCHAR
STARTCHAR 366c
ENCODING 13932
SWIDTH 960 0
DWIDTH 14 0
BBX 14 14 0 -2
BITMAP
0440
0440
7ffc
0440
0540
0100
7ffc
0100
0100
0fe0
0820
0820
0fe0
0820
ENDCHAR
STARTCHAR 366d
ENCODING 13933
SWIDTH 960 0
DWIDTH 14 0
BBX 14 14 0 -2
BITMAP
0800
10fc
3e80
2288
3e88
22c8
3eb0
2390
3e90
66a8
0ac8
1280
62fc
0680
ENDCHAR
STARTCHAR 366e
ENCODING 13934
SWIDTH 960 0
DWIDTH 14 0
BBX 14 14 0 -2
BITMAP
0000
3ffc
2888
3e88
28c8
3eb0
2890
3e90
02a8
2aa8
2ac0
2a80
42fc
0c80
ENDCHAR
STARTCHAR 366f
ENCODING 13935
SWIDTH 960 0
DWIDTH 14 0
BBX 14 14 0 -2
BITMAP
0008
3f10
28e0
3e80
2880
3efc
2890
3e90
0290
2a90
2a90
2a90
43fc
0c00
ENDCHAR
STARTCHAR 3670
ENCODING 13936
SWIDTH 960 0
DWIDTH 14 0
BBX 14 14 0 -2
BITMAP
0040
3f40
2840
3ef8
2888
3fe8
28a8
3ea8
02e8
2aa8
2a08
2a08
4208
0c30
ENDCHAR
STARTCHAR 3671
ENCODING 13937
SWIDTH 960 0
DWIDTH 14 0
BBX 14 14 0 -2
BITMAP
0000
0fe0
0820
0820
0fe0
0820
0fe0
0820
0fe0
0000
7ffc
0460
1810
6008
ENDCHAR
STARTCHAR 3672
ENCODING 13938
SWIDTH 960 0
DWIDTH 14 0
BBX 14 14 0 -2
BITMAP
0000
0fe0
0920
0fe0
0920
0fe0
3ff8
2148
2fe8
2138
1488
24a4
4424
03e0
ENDCHAR
STARTCHAR 3673
ENCODING 13939
SWIDTH 960 0
DWIDTH 14 0
BBX 14 14 0 -2
BITMAP
0100
01f0
1ffc
11e8
1f08
10f8
15f0
1510
15f0
17e0
2020
3ffc
4630
180c
ENDCHAR
STARTCHAR 3674
ENCODING 13940
SWIDTH 960 0
DWIDTH 14 0
BBX 14 14 0 -2
BITMAP
0040
0040
78a0
49f0
4e0c
49f0
4910
49f0
4910
79f8
4948
4130
01d8
0f04
ENDCHAR
STARTCHAR 3675
ENCODING 13941
SWIDTH 960 0
DWIDTH 14 0
BBX 14 14 0 -2
BITMAP
0100
0100
3ffc
2488
4480
0888
1078
0000
1ff0
0100
0100
0100
7ffc
0000
ENDCHAR
STARTCHAR 3676
ENCODING 13942
SWIDTH 960 0
DWIDTH 14 0
BBX 14 14 0 -2
BITMAP
0800
0bf0
0a90
13f0
1290
33f0
5080
17f8
14a8
14f8
1718
1408
1408
1418
ENDCHAR
STARTCHAR 3677
ENCODING 13943
SWIDTH 960 0
DWIDTH 14 0
BBX 14 14 0 -2
BITMAP
0100
3ffc
2008
4fe0
0920
0fe0
0920
0fe0
0100
3ff8
2148
2fe8
2028
2018
ENDCHAR
STARTCHAR 3678
ENCODING 13944
SWIDTH 960 0
DWIDTH 14 0
BBX 14 14 0 -2
BITMAP
0000
23f0
1290
13f0
0290
03f0
7080
17f8
14a8
14f8
1708
1c18
2600
41fc
ENDCHAR
STARTCHAR 3679
ENCODING 13945
SWIDTH 960 0
DWIDTH 14 0
BBX 14 14 0 -2
BITMAP
0000
3df8
2548
2948
31f8
2948
25f8
2440
27fc
2654
3a7c
238c
2204
220c
ENDCHAR
STARTCHAR 367a
ENCODING 13946
SWIDTH 960 0
DWIDTH 14 0
BBX 14 14 0 -2
BITMAP
0100
0100
1ff0
1110
1110
1ff0
0100
3ff8
2108
2108
3ff8
2108
0100
0100
ENDCHAR
STARTCHAR 367b
ENCODING 13947
SWIDTH 960 0
DWIDTH 14 0
BBX 14 14 0 -2
BITMAP
1220
13fc
1330
7cc8
1000
1bb8
36a8
37a8
32a8
53a8
5328
12b0
13e0
1c20
ENDCHAR
STARTCHAR 367c
ENCODING 13948
SWIDTH 960 0
DWIDTH 14 0
BBX 14 14 0 -2
BITMAP
0808
0888
14a8
12a8
22a8
5ca8
08a8
7ea8
08a8
2aa8
1d28
1928
0e08
7408
ENDCHAR
STARTCHAR 367d
ENCODING 13949
SWIDTH 960 0
DWIDTH 14 0
BBX 14 14 0 -2
BITMAP
0000
1ff8
1008
1ff8
1490
12a0
17f0
1410
17f0
1410
27f0
2410
4410
0430
ENDCHAR
STARTCHAR 367e
ENCODING 13950
SWIDTH 960 0
DWIDTH 14 0
BBX 14 14 0 -2
BITMAP
0000
1ff8
1008
1ff8
1088
1490
1490
17f0
1490
1888
2888
2888
4ff8
0808
ENDCHAR
STARTCHAR 3721
ENCODING 14113
SWIDTH 960 0
DWIDTH 14 0
BBX 14 14 0 -2
BITMAP
1000
13fc
1204
7ffc
1224
12a8
12a8
1ef8
72a8
1324
1524
1524
19fc
3104
ENDCHAR
STARTCHAR 3722
ENCODING 14114
SWIDTH 960 0
DWIDTH 14 0
BBX 14 14 0 -2
BITMAP
0100
3ffc
2688
5878
1ff8
1008
1ff8
1490
1490
17f0
2888
2888
4ff8
0808
ENDCHAR
STARTCHAR 3723
ENCODING 14115
SWIDTH 960 0
DWIDTH 14 0
BBX 14 14 0 -2
BITMAP
0100
0108
3f90
0560
0920
1110
630c
0fe0
0820
0fe0
0820
0820
0fe0
0820
ENDCHAR
STARTCHAR 3724
ENCODING 14116
SWIDTH 960 0
DWIDTH 14 0
BBX 14 14 0 -2
BITMAP
1460
1460
7f60
14a4
1ca4
09a8
3eb0
2aa0
3ea0
08a0
7fa0
08a4
08a4
089c
ENDCHAR
STARTCHAR 3725
ENCODING 14117
SWIDTH 960 0
DWIDTH 14 0
BBX 14 14 0 -2
BITMAP
2110
2fd4
4fe4
3558
2fd4
7d7c
37d8
5ff4
1110
0fe0
0820
0820
0fe0
0820
ENDCHAR
STARTCHAR 3726
ENCODING 14118
SWIDTH 960 0
DWIDTH 14 0
BBX 14 14 0 -2
BITMAP
0100
3ffc
2488
4488
0878
1040
0bf8
4840
27fc
2040
0bf8
0840
17fc
2000
ENDCHAR
STARTCHAR 3727
ENCODING 14119
SWIDTH 960 0
DWIDTH 14 0
BBX 14 14 0 -2
BITMAP
0840
1248
7f70
0144
3e3c
2240
3e4c
2270
3e40
2244
263c
1490
2248
4244
ENDCHAR
STARTCHAR 3728
ENCODING 14120
SWIDTH 960 0
DWIDTH 14 0
BBX 14 14 0 -2
BITMAP
0000
3df8
2548
29f8
3148
29f8
2400
27fc
2548
2530
3920
2150
2188
2604
ENDCHAR
STARTCHAR 3729
ENCODING 14121
SWIDTH 960 0
DWIDTH 14 0
BBX 14 14 0 -2
BITMAP
0100
07e0
1840
01c0
0730
792c
0920
0540
3ff8
0380
0540
1930
610c
0100
ENDCHAR
STARTCHAR 372a
ENCODING 14122
SWIDTH 960 0
DWIDTH 14 0
BBX 14 14 0 -2
BITMAP
0000
7ffc
0280
1ff0
1290
1290
1ff0
0100
7ffc
0380
0540
1930
610c
0100
ENDCHAR
STARTCHAR 372b
ENCODING 14123
SWIDTH 960 0
DWIDTH 14 0
BBX 14 14 0 -2
BITMAP
0800
08f8
0a88
72f8
1400
0ddc
1354
7fdc
0820
2dfc
2a70
2aa8
4924
0820
ENDCHAR
STARTCHAR 372c
ENCODING 14124
SWIDTH 960 0
DWIDTH 14 0
BBX 14 14 0 -2
BITMAP
0000
1fe0
0440
0380
3ef8
1248
0d30
1bc8
6104
3ff8
0380
0d60
711c
0100
ENDCHAR
STARTCHAR 372d
ENCODING 14125
SWIDTH 960 0
DWIDTH 14 0
BBX 14 14 0 -2
BITMAP
1050
1090
1b90
2494
24b4
7bf4
10b8
7dd0
11b0
5598
3aa8
30a8
1cc4
6084
ENDCHAR
STARTCHAR 372e
ENCODING 14126
SWIDTH 960 0
DWIDTH 14 0
BBX 14 14 0 -2
BITMAP
0240
3c40
0840
7ff8
2a48
3e48
2a48
7f48
0888
0f88
7930
0000
2488
4244
ENDCHAR
STARTCHAR 372f
ENCODING 14127
SWIDTH 960 0
DWIDTH 14 0
BBX 14 14 0 -2
BITMAP
0000
1fe0
0220
0220
7ffc
0220
0220
1fe0
0400
0ff0
1410
2410
47f0
0410
ENDCHAR
STARTCHAR 3730
ENCODING 14128
SWIDTH 960 0
DWIDTH 14 0
BBX 14 14 0 -2
BITMAP
0440
7ffc
05e0
1f00
7ffc
0fe0
0920
0fe0
0920
1ff0
0100
7ffc
1248
6124
ENDCHAR
STARTCHAR 3731
ENCODING 14129
SWIDTH 960 0
DWIDTH 14 0
BBX 14 14 0 -2
BITMAP
0008
3e88
00a8
7fa8
00a8
3ea8
00a8
3ea8
00a8
3ea8
22a8
2308
3f08
2208
ENDCHAR
STARTCHAR 3732
ENCODING 14130
SWIDTH 960 0
DWIDTH 14 0
BBX 14 14 0 -2
BITMAP
0088
3e48
1250
13fc
7f20
1220
3ef8
1020
1e20
33fc
3220
5220
1e20
1020
ENDCHAR
STARTCHAR 3733
ENCODING 14131
SWIDTH 960 0
DWIDTH 14 0
BBX 14 14 0 -2
BITMAP
0000
3ffc
2108
7ff8
0100
1ff0
1110
1ff0
1110
1ff0
0100
7ffc
0100
0100
ENDCHAR
STARTCHAR 3734
ENCODING 14132
SWIDTH 960 0
DWIDTH 14 0
BBX 14 14 0 -2
BITMAP
0000
3f78
0948
0950
7fd0
0960
3f50
0848
0f44
1944
1964
2958
4f40
0940
ENDCHAR
STARTCHAR 3735
ENCODING 14133
SWIDTH 960 0
DWIDTH 14 0
BBX 14 14 0 -2
BITMAP
0420
0420
0420
3fa0
0420
0430
7fe8
0424
0424
3fa0
0420
0420
07a0
7c20
ENDCHAR
STARTCHAR 3736
ENCODING 14134
SWIDTH 960 0
DWIDTH 14 0
BBX 14 14 0 -2
BITMAP
1000
10f8
7e88
1288
1288
22f8
4d88
0100
7ffc
0310
0ca0
7440
0730
380c
ENDCHAR
STARTCHAR 3737
ENCODING 14135
SWIDTH 960 0
DWIDTH 14 0
BBX 14 14 0 -2
BITMAP
0800
08f8
0888
7e90
0290
04a0
0890
1c88
2a84
4a84
08c4
08b8
0880
0880
ENDCHAR
STARTCHAR 3738
ENCODING 14136
SWIDTH 960 0
DWIDTH 14 0
BBX 14 14 0 -2
BITMAP
0818
08e0
0f90
1090
1320
30d0
5098
11e4
1740
1050
1248
1244
1444
1040
ENDCHAR
STARTCHAR 3739
ENCODING 14137
SWIDTH 960 0
DWIDTH 14 0
BBX 14 14 0 -2
BITMAP
0800
09fc
0810
1420
1578
3548
5678
1448
1478
1548
1578
1330
1048
1184
ENDCHAR
STARTCHAR 373a
ENCODING 14138
SWIDTH 960 0
DWIDTH 14 0
BBX 14 14 0 -2
BITMAP
0008
3fc8
1248
1248
1248
1248
7fc8
1248
1248
1248
1248
2208
2208
4218
ENDCHAR
STARTCHAR 373b
ENCODING 14139
SWIDTH 960 0
DWIDTH 14 0
BBX 14 14 0 -2
BITMAP
0000
1fe0
1020
1020
1020
1fe0
1520
0500
0500
0900
0908
1108
2108
40f8
ENDCHAR
STARTCHAR 373c
ENCODING 14140
SWIDTH 960 0
DWIDTH 14 0
BBX 14 14 0 -2
BITMAP
0040
7f40
00fc
3f90
2290
2260
3e60
2390
200c
4fe0
0820
0820
0fe0
0820
ENDCHAR
STARTCHAR 373d
ENCODING 14141
SWIDTH 960 0
DWIDTH 14 0
BBX 14 14 0 -2
BITMAP
0100
0100
1ff0
0100
0100
7ffc
0100
0100
3ff8
0100
0100
0100
7ffc
0000
ENDCHAR
STARTCHAR 373e
ENCODING 14142
SWIDTH 960 0
DWIDTH 14 0
BBX 14 14 0 -2
BITMAP
0040
0040
7ff8
1040
1040
17fc
7c40
1040
13f8
1440
1840
6040
0ffc
0000
ENDCHAR
STARTCHAR 373f
ENCODING 14143
SWIDTH 960 0
DWIDTH 14 0
BBX 14 14 0 -2
BITMAP
0008
3fc8
1248
1248
7fc8
1248
1248
2218
4100
1ff0
0100
0100
7ffc
0000
ENDCHAR
STARTCHAR 3740
ENCODING 14144
SWIDTH 960 0
DWIDTH 14 0
BBX 14 14 0 -2
BITMAP
0800
09f8
7f48
0848
3e48
0888
0f08
7130
0100
7ffc
0280
0440
1830
600c
ENDCHAR
STARTCHAR 3741
ENCODING 14145
SWIDTH 960 0
DWIDTH 14 0
BBX 14 14 0 -2
BITMAP
0010
3f10
1220
1220
1248
1208
7f90
1210
1224
1204
1208
2208
2210
4220
ENDCHAR
STARTCHAR 3742
ENCODING 14146
SWIDTH 960 0
DWIDTH 14 0
BBX 14 14 0 -2
BITMAP
0800
0bf8
1110
24a0
0440
09f0
1e4c
2840
4bf8
0840
0840
0840
0ffc
0800
ENDCHAR
STARTCHAR 3743
ENCODING 14147
SWIDTH 960 0
DWIDTH 14 0
BBX 14 14 0 -2
BITMAP
0100
7ffc
0100
1ff0
1110
1ff0
1110
1ff0
0100
0490
2488
2424
4424
03e0
ENDCHAR
STARTCHAR 3744
ENCODING 14148
SWIDTH 960 0
DWIDTH 14 0
BBX 14 14 0 -2
BITMAP
0080
1ffc
1240
1ff8
1248
1ff8
1000
1ffc
1558
14f4
2b24
20c0
4360
1c1c
ENDCHAR
STARTCHAR 3745
ENCODING 14149
SWIDTH 960 0
DWIDTH 14 0
BBX 14 14 0 -2
BITMAP
0820
7ffc
0820
3ef8
0820
7ffc
0820
07e0
0020
0fe0
2508
24a4
4424
03e0
ENDCHAR
STARTCHAR 3746
ENCODING 14150
SWIDTH 960 0
DWIDTH 14 0
BBX 14 14 0 -2
BITMAP
0220
3cf8
0888
7ff8
0888
3ef8
2288
3ef8
2088
0500
2488
24a4
4424
03e0
ENDCHAR
STARTCHAR 3747
ENCODING 14151
SWIDTH 960 0
DWIDTH 14 0
BBX 14 14 0 -2
BITMAP
1000
11f8
1108
7df8
1108
11f8
1080
1dfc
7334
15c4
1104
1114
10f4
3018
ENDCHAR
STARTCHAR 3748
ENCODING 14152
SWIDTH 960 0
DWIDTH 14 0
BBX 14 14 0 -2
BITMAP
1120
11fc
1320
7ff8
1520
11f8
1120
15fc
1fe0
7120
113c
1104
1204
3418
ENDCHAR
STARTCHAR 3749
ENCODING 14153
SWIDTH 960 0
DWIDTH 14 0
BBX 14 14 0 -2
BITMAP
1440
1440
7f40
147c
1088
1e88
2348
7a50
2a30
2a20
3a30
2250
0288
0d04
ENDCHAR
STARTCHAR 374a
ENCODING 14154
SWIDTH 960 0
DWIDTH 14 0
BBX 14 14 0 -2
BITMAP
0000
0fe0
0820
0fe0
0820
0fe0
0100
7ffc
0fe0
0820
0fe0
0560
0910
3308
ENDCHAR
STARTCHAR 374b
ENCODING 14155
SWIDTH 960 0
DWIDTH 14 0
BBX 14 14 0 -2
BITMAP
0840
0840
09f8
7e40
0840
1bfc
1c40
1a40
2bf8
2840
4840
0840
0ffc
0800
ENDCHAR
STARTCHAR 374c
ENCODING 14156
SWIDTH 960 0
DWIDTH 14 0
BBX 14 14 0 -2
BITMAP
1008
0870
0b88
4248
2150
2120
0040
13f8
1040
17fc
20c0
20a0
4110
460c
ENDCHAR
STARTCHAR 374d
ENCODING 14157
SWIDTH 960 0
DWIDTH 14 0
BBX 14 14 0 -2
BITMAP
0040
0040
7ff8
5440
5440
57fc
7c40
5440
57f8
5440
7c40
4440
07fc
0000
ENDCHAR
STARTCHAR 374e
ENCODING 14158
SWIDTH 960 0
DWIDTH 14 0
BBX 14 14 0 -2
BITMAP
0228
0dfc
7860
08a4
099c
7ef0
0884
1c7c
1af8
2a88
48f8
0888
08f8
0888
ENDCHAR
STARTCHAR 374f
ENCODING 14159
SWIDTH 960 0
DWIDTH 14 0
BBX 14 14 0 -2
BITMAP
0038
3fc0
0220
0220
1c40
0390
0108
7ffc
0104
0920
0910
1108
2108
0100
ENDCHAR
STARTCHAR 3750
ENCODING 14160
SWIDTH 960 0
DWIDTH 14 0
BBX 14 14 0 -2
BITMAP
0800
09f8
0a88
7250
1420
0c70
13ac
7f20
0cf8
2a20
2a20
2820
4bfc
0800
ENDCHAR
STARTCHAR 3751
ENCODING 14161
SWIDTH 960 0
DWIDTH 14 0
BBX 14 14 0 -2
BITMAP
0820
0920
0ba8
7368
1570
0d20
13fc
7f20
0970
2da8
2b28
2b20
49fc
0900
ENDCHAR
STARTCHAR 3752
ENCODING 14162
SWIDTH 960 0
DWIDTH 14 0
BBX 14 14 0 -2
BITMAP
0800
7f70
3e54
2a8c
3ff8
2a90
3e60
7fb0
0a4c
0ec0
0170
7f88
0d30
3108
ENDCHAR
STARTCHAR 3753
ENCODING 14163
SWIDTH 960 0
DWIDTH 14 0
BBX 14 14 0 -2
BITMAP
0000
3ff8
2448
3ff8
0420
3f20
0430
7fa8
0424
3f24
0420
07a0
7820
0020
ENDCHAR
STARTCHAR 3754
ENCODING 14164
SWIDTH 960 0
DWIDTH 14 0
BBX 14 14 0 -2
BITMAP
0440
0440
7ffc
0440
1ff0
0460
0380
0d60
711c
0fe0
0100
0100
7ffc
0000
ENDCHAR
STARTCHAR 3755
ENCODING 14165
SWIDTH 960 0
DWIDTH 14 0
BBX 14 14 0 -2
BITMAP
0440
0440
7ffc
0440
0000
3f48
1248
1248
7fc8
1248
1248
1248
2208
4218
ENDCHAR
STARTCHAR 3756
ENCODING 14166
SWIDTH 960 0
DWIDTH 14 0
BBX 14 14 0 -2
BITMAP
1210
0910
0920
3ffc
2108
4100
0fe0
0920
0920
0fe0
0920
0110
01f8
3e08
ENDCHAR
STARTCHAR 3757
ENCODING 14167
SWIDTH 960 0
DWIDTH 14 0
BBX 14 14 0 -2
BITMAP
0020
3c20
0020
7e20
01fc
3c20
0020
3c20
0020
3c20
2420
2420
3c20
2420
ENDCHAR
STARTCHAR 3758
ENCODING 14168
SWIDTH 960 0
DWIDTH 14 0
BBX 14 14 0 -2
BITMAP
0080
3c98
00e0
7e80
0084
3c7c
0000
3cf8
0088
3cf8
2488
2488
3cf8
2488
ENDCHAR
STARTCHAR 3759
ENCODING 14169
SWIDTH 960 0
DWIDTH 14 0
BBX 14 14 0 -2
BITMAP
1240
7ffc
1fc8
3d50
5530
1ecc
07c0
0000
7ffc
0000
0fe0
0820
0fe0
0820
ENDCHAR
STARTCHAR 375a
ENCODING 14170
SWIDTH 960 0
DWIDTH 14 0
BBX 14 14 0 -2
BITMAP
0800
09f8
7e88
0850
3e20
2af0
3f2c
2a20
3ef8
0820
7f20
0820
09fc
0800
ENDCHAR
STARTCHAR 375b
ENCODING 14171
SWIDTH 960 0
DWIDTH 14 0
BBX 14 14 0 -2
BITMAP
0000
7ffc
0220
3440
0cf8
1a88
29f8
4888
3ef8
0888
08f8
0e50
7088
0304
ENDCHAR
STARTCHAR 375c
ENCODING 14172
SWIDTH 960 0
DWIDTH 14 0
BBX 14 14 0 -2
BITMAP
0220
0c40
72f8
4a88
2cf8
0888
3ef8
08fc
7e80
08fc
1454
13ac
2144
4238
ENDCHAR
STARTCHAR 375d
ENCODING 14173
SWIDTH 960 0
DWIDTH 14 0
BBX 14 14 0 -2
BITMAP
0440
0440
7ffc
0440
0440
1ff0
0000
0000
7ffc
0240
0220
04f0
3f08
0008
ENDCHAR
STARTCHAR 375e
ENCODING 14174
SWIDTH 960 0
DWIDTH 14 0
BBX 14 14 0 -2
BITMAP
0040
2080
1378
1248
0248
0248
7248
1248
13c8
1e70
1040
1840
2640
41fc
ENDCHAR
STARTCHAR 375f
ENCODING 14175
SWIDTH 960 0
DWIDTH 14 0
BBX 14 14 0 -2
BITMAP
0820
0820
1ffc
2400
7ef8
2a88
3e88
2af8
3e20
04b0
3aa8
2ea4
2924
4060
ENDCHAR
STARTCHAR 3760
ENCODING 14176
SWIDTH 960 0
DWIDTH 14 0
BBX 14 14 0 -2
BITMAP
0408
07a8
3fe8
26a8
3ba8
3fa8
26a8
3ca8
2728
3b28
26a8
3a88
4208
0c18
ENDCHAR
STARTCHAR 3761
ENCODING 14177
SWIDTH 960 0
DWIDTH 14 0
BBX 14 14 0 -2
BITMAP
0840
0850
7f48
085c
3fe0
2248
3e48
2250
3e30
0820
7f60
0894
090c
0804
ENDCHAR
STARTCHAR 3762
ENCODING 14178
SWIDTH 960 0
DWIDTH 14 0
BBX 14 14 0 -2
BITMAP
0800
7f70
3e54
2a8c
3ff8
2a50
7f30
08cc
0f00
1ff0
0100
7ffc
0100
0300
ENDCHAR
STARTCHAR 3763
ENCODING 14179
SWIDTH 960 0
DWIDTH 14 0
BBX 14 14 0 -2
BITMAP
2120
1220
17a0
44a0
27fc
24c8
07a8
1228
1fe8
1390
2490
24a8
4b48
5084
ENDCHAR
STARTCHAR 3764
ENCODING 14180
SWIDTH 960 0
DWIDTH 14 0
BBX 14 14 0 -2
BITMAP
0040
3d50
2548
2a48
31f0
2910
25f0
2510
25f0
2550
3948
2244
2444
20c0
ENDCHAR
STARTCHAR 3765
ENCODING 14181
SWIDTH 960 0
DWIDTH 14 0
BBX 14 14 0 -2
BITMAP
0880
08f8
0900
7e00
0880
1cfc
1b10
1b10
2910
2910
4910
0910
0910
0930
ENDCHAR
STARTCHAR 3766
ENCODING 14182
SWIDTH 960 0
DWIDTH 14 0
BBX 14 14 0 -2
BITMAP
0908
0908
0bfc
12a8
15a8
317c
5248
1448
1ffc
10e0
1150
1248
1444
1040
ENDCHAR
STARTCHAR 3767
ENCODING 14183
SWIDTH 960 0
DWIDTH 14 0
BBX 14 14 0 -2
BITMAP
0800
0800
0800
0800
1ffc
1108
2110
4120
0180
0280
0240
0420
1810
600c
ENDCHAR
STARTCHAR 3768
ENCODING 14184
SWIDTH 960 0
DWIDTH 14 0
BBX 14 14 0 -2
BITMAP
1080
0880
0880
47f0
2090
2090
0090
1ffc
10c0
1120
2120
2210
4408
4804
ENDCHAR
STARTCHAR 3769
ENCODING 14185
SWIDTH 960 0
DWIDTH 14 0
BBX 14 14 0 -2
BITMAP
2200
1ff8
1228
4fa8
2228
23d8
0ca0
1120
1750
10b8
2fc8
22b0
4c88
4080
ENDCHAR
STARTCHAR 376a
ENCODING 14186
SWIDTH 960 0
DWIDTH 14 0
BBX 14 14 0 -2
BITMAP
0100
0100
3ffc
2008
4000
01c0
0440
0440
0440
0820
0820
1010
2008
4004
ENDCHAR
STARTCHAR 376b
ENCODING 14187
SWIDTH 960 0
DWIDTH 14 0
BBX 14 14 0 -2
BITMAP
0820
0820
0a20
73fc
1420
0c20
12f8
7e00
08f8
2c88
2a88
2a88
48f8
0888
ENDCHAR
STARTCHAR 376c
ENCODING 14188
SWIDTH 960 0
DWIDTH 14 0
BBX 14 14 0 -2
BITMAP
0100
0100
0100
0200
1ff0
1290
1290
1290
1290
1290
1290
1290
7ffc
0000
ENDCHAR
STARTCHAR 376d
ENCODING 14189
SWIDTH 960 0
DWIDTH 14 0
BBX 14 14 0 -2
BITMAP
0040
3c40
0040
7ff8
0048
3c48
0048
3ffc
0040
3ca0
24a0
2510
3e08
2404
ENDCHAR
STARTCHAR 376e
ENCODING 14190
SWIDTH 960 0
DWIDTH 14 0
BBX 14 14 0 -2
BITMAP
0000
0ff0
0810
0810
0810
0ff0
0810
0810
0ff0
0810
1010
1010
2010
4030
ENDCHAR
STARTCHAR 376f
ENCODING 14191
SWIDTH 960 0
DWIDTH 14 0
BBX 14 14 0 -2
BITMAP
0840
0940
0940
13f8
1240
3440
5040
17fc
1040
1040
1040
1040
1040
1040
ENDCHAR
STARTCHAR 3770
ENCODING 14192
SWIDTH 960 0
DWIDTH 14 0
BBX 14 14 0 -2
BITMAP
0880
0880
0940
1220
17f0
3888
57f0
1490
17f0
1490
1140
1120
1210
1408
ENDCHAR
STARTCHAR 3771
ENCODING 14193
SWIDTH 960 0
DWIDTH 14 0
BBX 14 14 0 -2
BITMAP
0840
0a48
0950
13f8
1040
37fc
50a0
11f0
1228
15e4
1120
1108
1108
10f8
ENDCHAR
STARTCHAR 3772
ENCODING 14194
SWIDTH 960 0
DWIDTH 14 0
BBX 14 14 0 -2
BITMAP
0820
08f8
0e28
13fc
1228
34f8
5f20
11f8
1520
15fc
1220
1320
14c0
183c
ENDCHAR
STARTCHAR 3773
ENCODING 14195
SWIDTH 960 0
DWIDTH 14 0
BBX 14 14 0 -2
BITMAP
0820
0440
7ffc
0480
3ff0
0490
7ffc
0490
3ff0
04c0
1cb0
648c
0480
0480
ENDCHAR
STARTCHAR 3774
ENCODING 14196
SWIDTH 960 0
DWIDTH 14 0
BBX 14 14 0 -2
BITMAP
0100
1110
0920
3ff8
0280
7ffc
0440
1830
6fec
0220
0220
0420
0820
30c0
ENDCHAR
STARTCHAR 3775
ENCODING 14197
SWIDTH 960 0
DWIDTH 14 0
BBX 14 14 0 -2
BITMAP
0408
0408
0a48
1148
7fc8
0448
3f48
2548
3f48
2448
0a48
0908
1108
6018
ENDCHAR
STARTCHAR 3776
ENCODING 14198
SWIDTH 960 0
DWIDTH 14 0
BBX 14 14 0 -2
BITMAP
0040
0040
7bf8
4a08
4bf8
4800
49f0
4910
49f0
7910
49f0
4000
0ffc
0000
ENDCHAR
STARTCHAR 3777
ENCODING 14199
SWIDTH 960 0
DWIDTH 14 0
BBX 14 14 0 -2
BITMAP
0000
3ff8
2548
2fe8
2288
3ff8
2448
2fe8
3058
27c8
2428
23e8
3ff8
2008
ENDCHAR
STARTCHAR 3778
ENCODING 14200
SWIDTH 960 0
DWIDTH 14 0
BBX 14 14 0 -2
BITMAP
0000
3ff8
2488
3e50
2250
3e20
24d0
3f0c
2100
1ff0
0100
0100
7ffc
0000
ENDCHAR
STARTCHAR 3779
ENCODING 14201
SWIDTH 960 0
DWIDTH 14 0
BBX 14 14 0 -2
BITMAP
1108
1090
13fc
10a0
7df8
24a8
27fc
24a8
79f8
48a0
0db0
16a8
24a4
40a0
ENDCHAR
STARTCHAR 377a
ENCODING 14202
SWIDTH 960 0
DWIDTH 14 0
BBX 14 14 0 -2
BITMAP
0040
0040
7bf8
0848
17fc
1048
3bf8
0840
4bf8
2840
17fc
1840
2640
41fc
ENDCHAR
STARTCHAR 377b
ENCODING 14203
SWIDTH 960 0
DWIDTH 14 0
BBX 14 14 0 -2
BITMAP
0100
3ffc
2108
7ff8
0100
1ff0
0100
7ffc
1290
1ff0
2508
24a4
4424
03e0
ENDCHAR
STARTCHAR 377c
ENCODING 14204
SWIDTH 960 0
DWIDTH 14 0
BBX 14 14 0 -2
BITMAP
1e18
52e0
5e28
52d0
5e28
53fc
7e64
2aa8
2924
4920
0480
2488
2424
43e4
ENDCHAR
STARTCHAR 377d
ENCODING 14205
SWIDTH 960 0
DWIDTH 14 0
BBX 14 14 0 -2
BITMAP
1110
0920
1ff0
0280
7ffc
0820
1fd8
6104
1ff0
0100
3ff8
0100
0100
0300
ENDCHAR
STARTCHAR 377e
ENCODING 14206
SWIDTH 960 0
DWIDTH 14 0
BBX 14 14 0 -2
BITMAP
1040
1248
1150
7ff8
10a0
17fc
1110
13e8
1c24
71e0
1120
1108
1108
30f8
ENDCHAR
STARTCHAR 3821
ENCODING 14369
SWIDTH 960 0
DWIDTH 14 0
BBX 14 14 0 -2
BITMAP
0840
0840
08a0
7f10
0bf8
1844
1df8
1b48
2b48
29f8
4860
0890
0b08
0c04
ENDCHAR
STARTCHAR 3822
ENCODING 14370
SWIDTH 960 0
DWIDTH 14 0
BBX 14 14 0 -2
BITMAP
1080
1080
11f8
7e40
13fc
3090
39fc
3720
55f8
5120
11f8
1120
11fc
1100
ENDCHAR
STARTCHAR 3823
ENCODING 14371
SWIDTH 960 0
DWIDTH 14 0
BBX 14 14 0 -2
BITMAP
0100
0100
3ff8
06c0
0300
7ffc
4448
5fe0
0910
0fe0
1100
7ffc
0100
0100
ENDCHAR
STARTCHAR 3824
ENCODING 14372
SWIDTH 960 0
DWIDTH 14 0
BBX 14 14 0 -2
BITMAP
0100
0120
0110
0110
7ffc
0100
0300
0280
0280
0440
0440
0820
1010
600c
ENDCHAR
STARTCHAR 3825
ENCODING 14373
SWIDTH 960 0
DWIDTH 14 0
BBX 14 14 0 -2
BITMAP
0420
0428
7fa4
0424
3ffc
3320
2d20
3f30
2550
3f50
2548
2588
2584
2304
ENDCHAR
STARTCHAR 3826
ENCODING 14374
SWIDTH 960 0
DWIDTH 14 0
BBX 14 14 0 -2
BITMAP
0000
3ff8
0890
0890
0890
1090
1ffc
3290
5290
1290
1290
1f10
1110
0210
ENDCHAR
STARTCHAR 3827
ENCODING 14375
SWIDTH 960 0
DWIDTH 14 0
BBX 14 14 0 -2
BITMAP
0000
7ff8
1108
1108
11f8
1108
3df8
2508
65f8
24a0
24a0
3d24
2224
041c
ENDCHAR
STARTCHAR 3828
ENCODING 14376
SWIDTH 960 0
DWIDTH 14 0
BBX 14 14 0 -2
BITMAP
0800
08f8
0a88
7288
14f8
0c00
12f8
7e88
08f8
2c88
2af8
2a88
4888
0898
ENDCHAR
STARTCHAR 3829
ENCODING 14377
SWIDTH 960 0
DWIDTH 14 0
BBX 14 14 0 -2
BITMAP
0000
07f0
2410
27f0
2410
27f0
2410
27f0
2000
3ffc
2560
1918
6104
0100
ENDCHAR
ENDFONT
